%TF.GenerationSoftware,KiCad,Pcbnew,(7.0.0)*%
%TF.CreationDate,2023-03-07T23:24:40+05:30*%
%TF.ProjectId,Peridot Steno,50657269-646f-4742-9053-74656e6f2e6b,rev?*%
%TF.SameCoordinates,Original*%
%TF.FileFunction,Profile,NP*%
%FSLAX46Y46*%
G04 Gerber Fmt 4.6, Leading zero omitted, Abs format (unit mm)*
G04 Created by KiCad (PCBNEW (7.0.0)) date 2023-03-07 23:24:40*
%MOMM*%
%LPD*%
G01*
G04 APERTURE LIST*
%TA.AperFunction,Profile*%
%ADD10C,0.100000*%
%TD*%
G04 APERTURE END LIST*
D10*
X73818750Y-100012500D02*
X63500000Y-100012500D01*
X90487500Y-127000000D02*
G75*
G03*
X96837500Y-133350000I6350000J0D01*
G01*
X241300000Y-100012500D02*
X211931250Y-100012500D01*
X133350000Y-25400050D02*
G75*
G03*
X130968750Y-27781250I0J-2381250D01*
G01*
X241300000Y-100012500D02*
G75*
G03*
X247650000Y-93662500I0J6350000D01*
G01*
X128587500Y-38099950D02*
G75*
G03*
X130968750Y-35718750I0J2381250D01*
G01*
X90487500Y-116681250D02*
X73818750Y-100012500D01*
X211931250Y-100012500D02*
X195262500Y-116681250D01*
X154781250Y-27781250D02*
X154781250Y-35718750D01*
X128587500Y-38100000D02*
X63500000Y-38100000D01*
X154781200Y-35718750D02*
G75*
G03*
X157162500Y-38100000I2381300J50D01*
G01*
X133350000Y-25400000D02*
X152400000Y-25400000D01*
X57150000Y-93662500D02*
G75*
G03*
X63500000Y-100012500I6350000J0D01*
G01*
X247650000Y-44450000D02*
X247650000Y-93662500D01*
X57150000Y-93662500D02*
X57150000Y-44450000D01*
X154781200Y-27781250D02*
G75*
G03*
X152400000Y-25400000I-2381300J-50D01*
G01*
X247650000Y-44450000D02*
G75*
G03*
X241300000Y-38100000I-6350000J0D01*
G01*
X157162500Y-38100000D02*
X241300000Y-38100000D01*
X90487500Y-116681250D02*
X90487500Y-127000000D01*
X195262500Y-127000000D02*
X195262500Y-116681250D01*
X188912500Y-133350000D02*
G75*
G03*
X195262500Y-127000000I0J6350000D01*
G01*
X96837500Y-133350000D02*
X188912500Y-133350000D01*
X130968750Y-27781250D02*
X130968750Y-35718750D01*
X63500000Y-38100000D02*
G75*
G03*
X57150000Y-44450000I0J-6350000D01*
G01*
M02*
