%TF.GenerationSoftware,KiCad,Pcbnew,(6.0.9)*%
%TF.CreationDate,2023-02-22T02:08:21+05:30*%
%TF.ProjectId,Peridot Steno,50657269-646f-4742-9053-74656e6f2e6b,rev?*%
%TF.SameCoordinates,Original*%
%TF.FileFunction,Profile,NP*%
%FSLAX46Y46*%
G04 Gerber Fmt 4.6, Leading zero omitted, Abs format (unit mm)*
G04 Created by KiCad (PCBNEW (6.0.9)) date 2023-02-22 02:08:21*
%MOMM*%
%LPD*%
G01*
G04 APERTURE LIST*
%TA.AperFunction,Profile*%
%ADD10C,0.150000*%
%TD*%
%TA.AperFunction,Profile*%
%ADD11C,0.100000*%
%TD*%
G04 APERTURE END LIST*
D10*
X193025000Y-60175000D02*
X193025000Y-73175000D01*
X193525000Y-59675000D02*
X206525000Y-59675000D01*
X225575000Y-92725000D02*
G75*
G03*
X226075000Y-92225000I0J500000D01*
G01*
D11*
X73818750Y-95250000D02*
X63500000Y-95250000D01*
D10*
X111275000Y-130825000D02*
G75*
G03*
X111775000Y-130325000I0J500000D01*
G01*
X193025000Y-92225000D02*
G75*
G03*
X193525000Y-92725000I500000J0D01*
G01*
X193525000Y-92725000D02*
X206525000Y-92725000D01*
X116825000Y-130325000D02*
G75*
G03*
X117325000Y-130825000I500000J0D01*
G01*
D11*
X95250000Y-127000000D02*
G75*
G03*
X101600000Y-133350000I6350000J0D01*
G01*
D10*
X173975000Y-79225000D02*
X173975000Y-92225000D01*
X193525000Y-78725000D02*
X206525000Y-78725000D01*
X193525000Y-59675000D02*
G75*
G03*
X193025000Y-60175000I0J-500000D01*
G01*
X111275000Y-54625000D02*
G75*
G03*
X111775000Y-54125000I0J500000D01*
G01*
D11*
X241300000Y-95250000D02*
X211931250Y-95250000D01*
D10*
X117325000Y-59675000D02*
X130325000Y-59675000D01*
X60175000Y-73675000D02*
X73175000Y-73675000D01*
X231625000Y-92725000D02*
X244625000Y-92725000D01*
X187975000Y-79225000D02*
X187975000Y-92225000D01*
D11*
X241300000Y-95250000D02*
G75*
G03*
X247650000Y-88900000I0J6350000D01*
G01*
X130968750Y-27781250D02*
X130968750Y-35718750D01*
D10*
X173975000Y-117325000D02*
X173975000Y-130325000D01*
X97775000Y-73175000D02*
G75*
G03*
X98275000Y-73675000I500000J0D01*
G01*
X187975000Y-60175000D02*
G75*
G03*
X187475000Y-59675000I-500000J0D01*
G01*
X231125000Y-60175000D02*
X231125000Y-73175000D01*
X187475000Y-73675000D02*
G75*
G03*
X187975000Y-73175000I0J500000D01*
G01*
X212575000Y-78725000D02*
G75*
G03*
X212075000Y-79225000I0J-500000D01*
G01*
X116825000Y-79225000D02*
X116825000Y-92225000D01*
D11*
X128587500Y-38099950D02*
G75*
G03*
X130968750Y-35718750I0J2381250D01*
G01*
D10*
X111775000Y-79225000D02*
G75*
G03*
X111275000Y-78725000I-500000J0D01*
G01*
X206525000Y-73675000D02*
G75*
G03*
X207025000Y-73175000I0J500000D01*
G01*
X225575000Y-73675000D02*
G75*
G03*
X226075000Y-73175000I0J500000D01*
G01*
X212075000Y-79225000D02*
X212075000Y-92225000D01*
X149375000Y-130825000D02*
G75*
G03*
X149875000Y-130325000I0J500000D01*
G01*
D11*
X95250000Y-116681250D02*
X73818750Y-95250000D01*
D10*
X60175000Y-40625000D02*
G75*
G03*
X59675000Y-41125000I0J-500000D01*
G01*
D11*
X211931250Y-95250000D02*
X190500000Y-116681250D01*
X154781250Y-27781250D02*
X154781250Y-35718750D01*
D10*
X212575000Y-78725000D02*
X225575000Y-78725000D01*
X226075000Y-60175000D02*
X226075000Y-73175000D01*
X92725000Y-60175000D02*
X92725000Y-73175000D01*
X193025000Y-41125000D02*
X193025000Y-54125000D01*
X79225000Y-92725000D02*
X92225000Y-92725000D01*
X226075000Y-60175000D02*
G75*
G03*
X225575000Y-59675000I-500000J0D01*
G01*
X92725000Y-79225000D02*
G75*
G03*
X92225000Y-78725000I-500000J0D01*
G01*
X130825000Y-60175000D02*
X130825000Y-73175000D01*
X155425000Y-92725000D02*
X168425000Y-92725000D01*
X98275000Y-73675000D02*
X111275000Y-73675000D01*
X187975000Y-117325000D02*
X187975000Y-130325000D01*
D11*
X128587500Y-38100000D02*
X63500000Y-38100000D01*
D10*
X130825000Y-79225000D02*
G75*
G03*
X130325000Y-78725000I-500000J0D01*
G01*
X206525000Y-92725000D02*
G75*
G03*
X207025000Y-92225000I0J500000D01*
G01*
X97775000Y-130325000D02*
G75*
G03*
X98275000Y-130825000I500000J0D01*
G01*
X149375000Y-73675000D02*
G75*
G03*
X149875000Y-73175000I0J500000D01*
G01*
X212575000Y-59675000D02*
G75*
G03*
X212075000Y-60175000I0J-500000D01*
G01*
X116825000Y-73175000D02*
G75*
G03*
X117325000Y-73675000I500000J0D01*
G01*
X231125000Y-79225000D02*
X231125000Y-92225000D01*
X193025000Y-79225000D02*
X193025000Y-92225000D01*
X207025000Y-41125000D02*
X207025000Y-54125000D01*
X60175000Y-40625000D02*
X73175000Y-40625000D01*
X130325000Y-92725000D02*
G75*
G03*
X130825000Y-92225000I0J500000D01*
G01*
X168925000Y-41125000D02*
X168925000Y-54125000D01*
X111275000Y-92725000D02*
G75*
G03*
X111775000Y-92225000I0J500000D01*
G01*
D11*
X154781200Y-35718750D02*
G75*
G03*
X157162500Y-38100000I2381300J50D01*
G01*
D10*
X155425000Y-40625000D02*
G75*
G03*
X154925000Y-41125000I0J-500000D01*
G01*
X168925000Y-41125000D02*
G75*
G03*
X168425000Y-40625000I-500000J0D01*
G01*
X73175000Y-54625000D02*
G75*
G03*
X73675000Y-54125000I0J500000D01*
G01*
X207025000Y-60175000D02*
G75*
G03*
X206525000Y-59675000I-500000J0D01*
G01*
X174475000Y-92725000D02*
X187475000Y-92725000D01*
X117325000Y-116825000D02*
G75*
G03*
X116825000Y-117325000I0J-500000D01*
G01*
X226075000Y-79225000D02*
X226075000Y-92225000D01*
X59675000Y-60175000D02*
X59675000Y-73175000D01*
X98275000Y-40625000D02*
X111275000Y-40625000D01*
X116825000Y-60175000D02*
X116825000Y-73175000D01*
X245125000Y-79225000D02*
X245125000Y-92225000D01*
X111775000Y-117325000D02*
X111775000Y-130325000D01*
X187975000Y-60175000D02*
X187975000Y-73175000D01*
X231625000Y-78725000D02*
G75*
G03*
X231125000Y-79225000I0J-500000D01*
G01*
X155425000Y-78725000D02*
G75*
G03*
X154925000Y-79225000I0J-500000D01*
G01*
X154925000Y-92225000D02*
G75*
G03*
X155425000Y-92725000I500000J0D01*
G01*
X116825000Y-117325000D02*
X116825000Y-130325000D01*
X78725000Y-60175000D02*
X78725000Y-73175000D01*
X98275000Y-116825000D02*
G75*
G03*
X97775000Y-117325000I0J-500000D01*
G01*
X136375000Y-116825000D02*
X149375000Y-116825000D01*
X193525000Y-73675000D02*
X206525000Y-73675000D01*
X155425000Y-116825000D02*
X168425000Y-116825000D01*
X155425000Y-59675000D02*
X168425000Y-59675000D01*
X136375000Y-59675000D02*
X149375000Y-59675000D01*
D11*
X133350000Y-25400000D02*
X152400000Y-25400000D01*
D10*
X187975000Y-117325000D02*
G75*
G03*
X187475000Y-116825000I-500000J0D01*
G01*
X231125000Y-92225000D02*
G75*
G03*
X231625000Y-92725000I500000J0D01*
G01*
X207025000Y-41125000D02*
G75*
G03*
X206525000Y-40625000I-500000J0D01*
G01*
X135875000Y-60175000D02*
X135875000Y-73175000D01*
X92725000Y-79225000D02*
X92725000Y-92225000D01*
X79225000Y-78725000D02*
X92225000Y-78725000D01*
X193525000Y-40625000D02*
X206525000Y-40625000D01*
X154925000Y-117325000D02*
X154925000Y-130325000D01*
X60175000Y-54625000D02*
X73175000Y-54625000D01*
X187975000Y-79225000D02*
G75*
G03*
X187475000Y-78725000I-500000J0D01*
G01*
X206525000Y-54625000D02*
G75*
G03*
X207025000Y-54125000I0J500000D01*
G01*
X193525000Y-54625000D02*
X206525000Y-54625000D01*
X174475000Y-130825000D02*
X187475000Y-130825000D01*
X130825000Y-79225000D02*
X130825000Y-92225000D01*
X207025000Y-79225000D02*
G75*
G03*
X206525000Y-78725000I-500000J0D01*
G01*
X187475000Y-92725000D02*
G75*
G03*
X187975000Y-92225000I0J500000D01*
G01*
X136375000Y-73675000D02*
X149375000Y-73675000D01*
X173975000Y-130325000D02*
G75*
G03*
X174475000Y-130825000I500000J0D01*
G01*
X111775000Y-41125000D02*
G75*
G03*
X111275000Y-40625000I-500000J0D01*
G01*
X212575000Y-59675000D02*
X225575000Y-59675000D01*
X97775000Y-117325000D02*
X97775000Y-130325000D01*
X174475000Y-116825000D02*
G75*
G03*
X173975000Y-117325000I0J-500000D01*
G01*
X73175000Y-73675000D02*
G75*
G03*
X73675000Y-73175000I0J500000D01*
G01*
X149875000Y-117325000D02*
G75*
G03*
X149375000Y-116825000I-500000J0D01*
G01*
X60175000Y-59675000D02*
X73175000Y-59675000D01*
X212575000Y-73675000D02*
X225575000Y-73675000D01*
X78725000Y-92225000D02*
G75*
G03*
X79225000Y-92725000I500000J0D01*
G01*
X117325000Y-92725000D02*
X130325000Y-92725000D01*
X111775000Y-60175000D02*
X111775000Y-73175000D01*
X136375000Y-130825000D02*
X149375000Y-130825000D01*
X173975000Y-60175000D02*
X173975000Y-73175000D01*
X154925000Y-130325000D02*
G75*
G03*
X155425000Y-130825000I500000J0D01*
G01*
X97775000Y-92225000D02*
G75*
G03*
X98275000Y-92725000I500000J0D01*
G01*
X168925000Y-60175000D02*
X168925000Y-73175000D01*
D11*
X57150000Y-88900000D02*
G75*
G03*
X63500000Y-95250000I6350000J0D01*
G01*
X247650000Y-44450000D02*
X247650000Y-88900000D01*
D10*
X168925000Y-60175000D02*
G75*
G03*
X168425000Y-59675000I-500000J0D01*
G01*
X78725000Y-73175000D02*
G75*
G03*
X79225000Y-73675000I500000J0D01*
G01*
D11*
X133350000Y-25399950D02*
G75*
G03*
X130968750Y-27781250I100J-2381350D01*
G01*
D10*
X130825000Y-117325000D02*
X130825000Y-130325000D01*
X79225000Y-78725000D02*
G75*
G03*
X78725000Y-79225000I0J-500000D01*
G01*
D11*
X57150000Y-88900000D02*
X57150000Y-44450000D01*
D10*
X79225000Y-59675000D02*
X92225000Y-59675000D01*
X168925000Y-79225000D02*
X168925000Y-92225000D01*
X168925000Y-117325000D02*
G75*
G03*
X168425000Y-116825000I-500000J0D01*
G01*
X231625000Y-59675000D02*
G75*
G03*
X231125000Y-60175000I0J-500000D01*
G01*
X193025000Y-54125000D02*
G75*
G03*
X193525000Y-54625000I500000J0D01*
G01*
X116825000Y-92225000D02*
G75*
G03*
X117325000Y-92725000I500000J0D01*
G01*
X111775000Y-79225000D02*
X111775000Y-92225000D01*
X117325000Y-78725000D02*
X130325000Y-78725000D01*
X155425000Y-40625000D02*
X168425000Y-40625000D01*
X168925000Y-117325000D02*
X168925000Y-130325000D01*
X98275000Y-59675000D02*
G75*
G03*
X97775000Y-60175000I0J-500000D01*
G01*
X154925000Y-54125000D02*
G75*
G03*
X155425000Y-54625000I500000J0D01*
G01*
X155425000Y-78725000D02*
X168425000Y-78725000D01*
D11*
X247650000Y-44450000D02*
G75*
G03*
X241300000Y-38100000I-6350000J0D01*
G01*
D10*
X231625000Y-59675000D02*
X244625000Y-59675000D01*
X98275000Y-40625000D02*
G75*
G03*
X97775000Y-41125000I0J-500000D01*
G01*
X174475000Y-116825000D02*
X187475000Y-116825000D01*
D11*
X157162500Y-38100000D02*
X241300000Y-38100000D01*
D10*
X245125000Y-60175000D02*
X245125000Y-73175000D01*
X98275000Y-130825000D02*
X111275000Y-130825000D01*
X130325000Y-73675000D02*
G75*
G03*
X130825000Y-73175000I0J500000D01*
G01*
X193025000Y-73175000D02*
G75*
G03*
X193525000Y-73675000I500000J0D01*
G01*
X193525000Y-78725000D02*
G75*
G03*
X193025000Y-79225000I0J-500000D01*
G01*
X117325000Y-73675000D02*
X130325000Y-73675000D01*
X117325000Y-59675000D02*
G75*
G03*
X116825000Y-60175000I0J-500000D01*
G01*
X155425000Y-73675000D02*
X168425000Y-73675000D01*
X173975000Y-73175000D02*
G75*
G03*
X174475000Y-73675000I500000J0D01*
G01*
X244625000Y-73675000D02*
G75*
G03*
X245125000Y-73175000I0J500000D01*
G01*
X212075000Y-60175000D02*
X212075000Y-73175000D01*
X135875000Y-130325000D02*
G75*
G03*
X136375000Y-130825000I500000J0D01*
G01*
X59675000Y-41125000D02*
X59675000Y-54125000D01*
X149875000Y-117325000D02*
X149875000Y-130325000D01*
X135875000Y-73175000D02*
G75*
G03*
X136375000Y-73675000I500000J0D01*
G01*
D11*
X95250000Y-116681250D02*
X95250000Y-127000000D01*
X154781200Y-27781250D02*
G75*
G03*
X152400000Y-25400000I-2381200J50D01*
G01*
X190500000Y-127000000D02*
X190500000Y-116681250D01*
D10*
X111275000Y-73675000D02*
G75*
G03*
X111775000Y-73175000I0J500000D01*
G01*
X231625000Y-73675000D02*
X244625000Y-73675000D01*
X174475000Y-78725000D02*
X187475000Y-78725000D01*
X73675000Y-60175000D02*
G75*
G03*
X73175000Y-59675000I-500000J0D01*
G01*
X78725000Y-79225000D02*
X78725000Y-92225000D01*
X98275000Y-116825000D02*
X111275000Y-116825000D01*
X130825000Y-60175000D02*
G75*
G03*
X130325000Y-59675000I-500000J0D01*
G01*
X231625000Y-78725000D02*
X244625000Y-78725000D01*
X98275000Y-78725000D02*
X111275000Y-78725000D01*
X168425000Y-130825000D02*
G75*
G03*
X168925000Y-130325000I0J500000D01*
G01*
X149875000Y-60175000D02*
G75*
G03*
X149375000Y-59675000I-500000J0D01*
G01*
X212575000Y-92725000D02*
X225575000Y-92725000D01*
X98275000Y-54625000D02*
X111275000Y-54625000D01*
X97775000Y-41125000D02*
X97775000Y-54125000D01*
X173975000Y-92225000D02*
G75*
G03*
X174475000Y-92725000I500000J0D01*
G01*
X79225000Y-59675000D02*
G75*
G03*
X78725000Y-60175000I0J-500000D01*
G01*
X245125000Y-60175000D02*
G75*
G03*
X244625000Y-59675000I-500000J0D01*
G01*
X111775000Y-60175000D02*
G75*
G03*
X111275000Y-59675000I-500000J0D01*
G01*
X117325000Y-130825000D02*
X130325000Y-130825000D01*
X60175000Y-59675000D02*
G75*
G03*
X59675000Y-60175000I0J-500000D01*
G01*
X149875000Y-60175000D02*
X149875000Y-73175000D01*
X244625000Y-92725000D02*
G75*
G03*
X245125000Y-92225000I0J500000D01*
G01*
X73675000Y-41125000D02*
G75*
G03*
X73175000Y-40625000I-500000J0D01*
G01*
X73675000Y-41125000D02*
X73675000Y-54125000D01*
X117325000Y-116825000D02*
X130325000Y-116825000D01*
X212075000Y-73175000D02*
G75*
G03*
X212575000Y-73675000I500000J0D01*
G01*
X174475000Y-73675000D02*
X187475000Y-73675000D01*
X168925000Y-79225000D02*
G75*
G03*
X168425000Y-78725000I-500000J0D01*
G01*
X79225000Y-73675000D02*
X92225000Y-73675000D01*
X135875000Y-117325000D02*
X135875000Y-130325000D01*
X174475000Y-59675000D02*
G75*
G03*
X173975000Y-60175000I0J-500000D01*
G01*
X187475000Y-130825000D02*
G75*
G03*
X187975000Y-130325000I0J500000D01*
G01*
X92725000Y-60175000D02*
G75*
G03*
X92225000Y-59675000I-500000J0D01*
G01*
D11*
X184150000Y-133350000D02*
G75*
G03*
X190500000Y-127000000I0J6350000D01*
G01*
D10*
X174475000Y-59675000D02*
X187475000Y-59675000D01*
X136375000Y-116825000D02*
G75*
G03*
X135875000Y-117325000I0J-500000D01*
G01*
X231125000Y-73175000D02*
G75*
G03*
X231625000Y-73675000I500000J0D01*
G01*
X154925000Y-79225000D02*
X154925000Y-92225000D01*
X155425000Y-116825000D02*
G75*
G03*
X154925000Y-117325000I0J-500000D01*
G01*
X130825000Y-117325000D02*
G75*
G03*
X130325000Y-116825000I-500000J0D01*
G01*
D11*
X101600000Y-133350000D02*
X184150000Y-133350000D01*
D10*
X245125000Y-79225000D02*
G75*
G03*
X244625000Y-78725000I-500000J0D01*
G01*
X111775000Y-117325000D02*
G75*
G03*
X111275000Y-116825000I-500000J0D01*
G01*
X155425000Y-54625000D02*
X168425000Y-54625000D01*
X136375000Y-59675000D02*
G75*
G03*
X135875000Y-60175000I0J-500000D01*
G01*
X207025000Y-79225000D02*
X207025000Y-92225000D01*
X73675000Y-60175000D02*
X73675000Y-73175000D01*
X59675000Y-54125000D02*
G75*
G03*
X60175000Y-54625000I500000J0D01*
G01*
X59675000Y-73175000D02*
G75*
G03*
X60175000Y-73675000I500000J0D01*
G01*
X168425000Y-54625000D02*
G75*
G03*
X168925000Y-54125000I0J500000D01*
G01*
X97775000Y-79225000D02*
X97775000Y-92225000D01*
X168425000Y-73675000D02*
G75*
G03*
X168925000Y-73175000I0J500000D01*
G01*
X174475000Y-78725000D02*
G75*
G03*
X173975000Y-79225000I0J-500000D01*
G01*
X117325000Y-78725000D02*
G75*
G03*
X116825000Y-79225000I0J-500000D01*
G01*
X212075000Y-92225000D02*
G75*
G03*
X212575000Y-92725000I500000J0D01*
G01*
X154925000Y-73175000D02*
G75*
G03*
X155425000Y-73675000I500000J0D01*
G01*
X155425000Y-130825000D02*
X168425000Y-130825000D01*
X97775000Y-60175000D02*
X97775000Y-73175000D01*
X168425000Y-92725000D02*
G75*
G03*
X168925000Y-92225000I0J500000D01*
G01*
X92225000Y-73675000D02*
G75*
G03*
X92725000Y-73175000I0J500000D01*
G01*
X98275000Y-78725000D02*
G75*
G03*
X97775000Y-79225000I0J-500000D01*
G01*
X92225000Y-92725000D02*
G75*
G03*
X92725000Y-92225000I0J500000D01*
G01*
X154925000Y-41125000D02*
X154925000Y-54125000D01*
X155425000Y-59675000D02*
G75*
G03*
X154925000Y-60175000I0J-500000D01*
G01*
X130325000Y-130825000D02*
G75*
G03*
X130825000Y-130325000I0J500000D01*
G01*
D11*
X63500000Y-38100000D02*
G75*
G03*
X57150000Y-44450000I0J-6350000D01*
G01*
D10*
X111775000Y-41125000D02*
X111775000Y-54125000D01*
X98275000Y-92725000D02*
X111275000Y-92725000D01*
X226075000Y-79225000D02*
G75*
G03*
X225575000Y-78725000I-500000J0D01*
G01*
X193525000Y-40625000D02*
G75*
G03*
X193025000Y-41125000I0J-500000D01*
G01*
X98275000Y-59675000D02*
X111275000Y-59675000D01*
X207025000Y-60175000D02*
X207025000Y-73175000D01*
X154925000Y-60175000D02*
X154925000Y-73175000D01*
X97775000Y-54125000D02*
G75*
G03*
X98275000Y-54625000I500000J0D01*
G01*
M02*
