%TF.GenerationSoftware,KiCad,Pcbnew,(6.0.9)*%
%TF.CreationDate,2023-02-21T23:40:31+05:30*%
%TF.ProjectId,Peridot Steno,50657269-646f-4742-9053-74656e6f2e6b,rev?*%
%TF.SameCoordinates,Original*%
%TF.FileFunction,Soldermask,Top*%
%TF.FilePolarity,Negative*%
%FSLAX46Y46*%
G04 Gerber Fmt 4.6, Leading zero omitted, Abs format (unit mm)*
G04 Created by KiCad (PCBNEW (6.0.9)) date 2023-02-21 23:40:31*
%MOMM*%
%LPD*%
G01*
G04 APERTURE LIST*
%ADD10C,1.900000*%
%ADD11C,2.100000*%
%ADD12C,4.000000*%
%ADD13O,2.800000X2.000000*%
%ADD14O,2.500000X2.000000*%
%ADD15O,2.000000X2.500000*%
%ADD16O,2.000000X2.800000*%
%ADD17C,3.987800*%
%ADD18C,3.048000*%
%ADD19C,1.800000*%
%ADD20R,1.752600X1.752600*%
%ADD21C,1.752600*%
%ADD22R,1.600000X1.600000*%
%ADD23O,1.600000X1.600000*%
%ADD24R,2.000000X2.000000*%
G04 APERTURE END LIST*
D10*
%TO.C,SW26*%
X156845000Y-66675000D03*
D11*
X167425000Y-66675000D03*
D12*
X161925000Y-66675000D03*
D10*
X167005000Y-66675000D03*
D11*
X156425000Y-66675000D03*
D13*
X156825000Y-70575000D03*
D14*
X158115000Y-64135000D03*
X164465000Y-61595000D03*
D13*
X161925000Y-72575000D03*
%TD*%
D11*
%TO.C,SW19*%
X99275000Y-123825000D03*
D12*
X104775000Y-123825000D03*
D10*
X99695000Y-123825000D03*
D11*
X110275000Y-123825000D03*
D10*
X109855000Y-123825000D03*
D14*
X100965000Y-121285000D03*
D13*
X99675000Y-127725000D03*
X104775000Y-129725000D03*
D14*
X107315000Y-118745000D03*
%TD*%
D11*
%TO.C,SW17*%
X118325000Y-66675000D03*
D10*
X128905000Y-66675000D03*
D11*
X129325000Y-66675000D03*
D10*
X118745000Y-66675000D03*
D12*
X123825000Y-66675000D03*
D14*
X120015000Y-64135000D03*
D13*
X118725000Y-70575000D03*
X123825000Y-72575000D03*
D14*
X126365000Y-61595000D03*
%TD*%
D11*
%TO.C,SW42*%
X232625000Y-66675000D03*
D10*
X243205000Y-66675000D03*
X233045000Y-66675000D03*
D12*
X238125000Y-66675000D03*
D11*
X243625000Y-66675000D03*
D14*
X234315000Y-64135000D03*
D13*
X233025000Y-70575000D03*
X238125000Y-72575000D03*
D14*
X240665000Y-61595000D03*
%TD*%
D12*
%TO.C,SW27*%
X161925000Y-85725000D03*
D11*
X156425000Y-85725000D03*
D10*
X167005000Y-85725000D03*
X156845000Y-85725000D03*
D11*
X167425000Y-85725000D03*
D13*
X156825000Y-89625000D03*
D14*
X158115000Y-83185000D03*
D13*
X161925000Y-91625000D03*
D14*
X164465000Y-80645000D03*
%TD*%
D11*
%TO.C,SW36*%
X186475000Y-123825000D03*
X175475000Y-123825000D03*
D12*
X180975000Y-123825000D03*
D10*
X175895000Y-123825000D03*
X186055000Y-123825000D03*
D13*
X175875000Y-127725000D03*
D14*
X177165000Y-121285000D03*
D13*
X180975000Y-129725000D03*
D14*
X183515000Y-118745000D03*
%TD*%
D10*
%TO.C,SW21*%
X142875000Y-68738750D03*
D11*
X142875000Y-79318750D03*
D10*
X142875000Y-78898750D03*
D12*
X142875000Y-73818750D03*
D11*
X142875000Y-68318750D03*
D15*
X140335000Y-77628750D03*
D16*
X146775000Y-78918750D03*
X148775000Y-73818750D03*
D15*
X137795000Y-71278750D03*
%TD*%
D11*
%TO.C,SW32*%
X167425000Y-123825000D03*
D10*
X156845000Y-123825000D03*
X167005000Y-123825000D03*
D12*
X161925000Y-123825000D03*
D11*
X156425000Y-123825000D03*
D14*
X158115000Y-121285000D03*
D13*
X156825000Y-127725000D03*
D14*
X164465000Y-118745000D03*
D13*
X161925000Y-129725000D03*
%TD*%
D12*
%TO.C,SW28*%
X142875000Y-123825000D03*
D10*
X147955000Y-123825000D03*
X137795000Y-123825000D03*
D11*
X148375000Y-123825000D03*
X137375000Y-123825000D03*
D13*
X137775000Y-127725000D03*
D14*
X139065000Y-121285000D03*
D13*
X142875000Y-129725000D03*
D14*
X145415000Y-118745000D03*
%TD*%
D11*
%TO.C,SW33*%
X204050000Y-47625000D03*
X215050000Y-47625000D03*
D10*
X214630000Y-47625000D03*
D12*
X209550000Y-47625000D03*
D10*
X204470000Y-47625000D03*
D13*
X204450000Y-51525000D03*
D14*
X205740000Y-45085000D03*
D13*
X209550000Y-53525000D03*
D14*
X212090000Y-42545000D03*
%TD*%
D11*
%TO.C,SW34*%
X205525000Y-66675000D03*
D12*
X200025000Y-66675000D03*
D10*
X205105000Y-66675000D03*
X194945000Y-66675000D03*
D11*
X194525000Y-66675000D03*
D14*
X196215000Y-64135000D03*
D13*
X194925000Y-70575000D03*
X200025000Y-72575000D03*
D14*
X202565000Y-61595000D03*
%TD*%
D17*
%TO.C,REF\u002A\u002A*%
X221450000Y-55880000D03*
D18*
X197650000Y-40640000D03*
X221450000Y-40640000D03*
D17*
X197650000Y-55880000D03*
%TD*%
D12*
%TO.C,SW39*%
X219075000Y-85725000D03*
D11*
X224575000Y-85725000D03*
D10*
X213995000Y-85725000D03*
X224155000Y-85725000D03*
D11*
X213575000Y-85725000D03*
D14*
X215265000Y-83185000D03*
D13*
X213975000Y-89625000D03*
D14*
X221615000Y-80645000D03*
D13*
X219075000Y-91625000D03*
%TD*%
D11*
%TO.C,SW31*%
X186475000Y-85725000D03*
X175475000Y-85725000D03*
D12*
X180975000Y-85725000D03*
D10*
X186055000Y-85725000D03*
X175895000Y-85725000D03*
D14*
X177165000Y-83185000D03*
D13*
X175875000Y-89625000D03*
X180975000Y-91625000D03*
D14*
X183515000Y-80645000D03*
%TD*%
D12*
%TO.C,SW9*%
X85725000Y-85725000D03*
D10*
X80645000Y-85725000D03*
D11*
X80225000Y-85725000D03*
X91225000Y-85725000D03*
D10*
X90805000Y-85725000D03*
D14*
X81915000Y-83185000D03*
D13*
X80625000Y-89625000D03*
D14*
X88265000Y-80645000D03*
D13*
X85725000Y-91625000D03*
%TD*%
D19*
%TO.C,U1*%
X135255000Y-28892500D03*
X135255000Y-31432500D03*
X135255000Y-33972500D03*
X135255000Y-36512500D03*
X135255000Y-39052500D03*
X135255000Y-41592500D03*
X135255000Y-44132500D03*
X135255000Y-46672500D03*
X135255000Y-49212500D03*
X135255000Y-51752500D03*
X135255000Y-54292500D03*
X135255000Y-56832500D03*
X150495000Y-56832500D03*
X150495000Y-54292500D03*
X150495000Y-51752500D03*
X150495000Y-49212500D03*
X150495000Y-46672500D03*
X150495000Y-44132500D03*
X150495000Y-41592500D03*
X150495000Y-39052500D03*
X150495000Y-36512500D03*
X150495000Y-33972500D03*
X150495000Y-31432500D03*
X150495000Y-28892500D03*
%TD*%
D11*
%TO.C,SW12*%
X110275000Y-66675000D03*
X99275000Y-66675000D03*
D12*
X104775000Y-66675000D03*
D10*
X109855000Y-66675000D03*
X99695000Y-66675000D03*
D13*
X99675000Y-70575000D03*
D14*
X100965000Y-64135000D03*
D13*
X104775000Y-72575000D03*
D14*
X107315000Y-61595000D03*
%TD*%
D11*
%TO.C,SW4*%
X66675000Y-68318750D03*
D10*
X66675000Y-78898750D03*
D11*
X66675000Y-79318750D03*
D12*
X66675000Y-73818750D03*
D10*
X66675000Y-68738750D03*
D16*
X70575000Y-78918750D03*
D15*
X64135000Y-77628750D03*
D16*
X72575000Y-73818750D03*
D15*
X61595000Y-71278750D03*
%TD*%
D18*
%TO.C,REF\u002A\u002A*%
X59690000Y-85718750D03*
D17*
X74930000Y-85718750D03*
X74930000Y-61918750D03*
D18*
X59690000Y-61918750D03*
%TD*%
D17*
%TO.C,REF\u002A\u002A*%
X151130000Y-85718750D03*
D18*
X135890000Y-61918750D03*
D17*
X151130000Y-61918750D03*
D18*
X135890000Y-85718750D03*
%TD*%
D10*
%TO.C,SW11*%
X109220000Y-47625000D03*
D12*
X114300000Y-47625000D03*
D11*
X108800000Y-47625000D03*
X119800000Y-47625000D03*
D10*
X119380000Y-47625000D03*
D14*
X110490000Y-45085000D03*
D13*
X109200000Y-51525000D03*
D14*
X116840000Y-42545000D03*
D13*
X114300000Y-53525000D03*
%TD*%
D17*
%TO.C,REF\u002A\u002A*%
X159550000Y-55880000D03*
D18*
X183350000Y-40640000D03*
D17*
X183350000Y-55880000D03*
D18*
X159550000Y-40640000D03*
%TD*%
D20*
%TO.C,SW1*%
X240506250Y-51746150D03*
D21*
X240506250Y-45243750D03*
%TD*%
D12*
%TO.C,SW38*%
X217850000Y-66675000D03*
D11*
X223350000Y-66675000D03*
X212350000Y-66675000D03*
D10*
X222930000Y-66675000D03*
X212770000Y-66675000D03*
D13*
X212750000Y-70575000D03*
D14*
X214040000Y-64135000D03*
D13*
X217850000Y-72575000D03*
D14*
X220390000Y-61595000D03*
%TD*%
D11*
%TO.C,SW2*%
X81700000Y-47625000D03*
X70700000Y-47625000D03*
D10*
X81280000Y-47625000D03*
X71120000Y-47625000D03*
D12*
X76200000Y-47625000D03*
D13*
X71100000Y-51525000D03*
D14*
X72390000Y-45085000D03*
X78740000Y-42545000D03*
D13*
X76200000Y-53525000D03*
%TD*%
D17*
%TO.C,REF\u002A\u002A*%
X88100000Y-55880000D03*
D18*
X64300000Y-40640000D03*
D17*
X64300000Y-55880000D03*
D18*
X88100000Y-40640000D03*
%TD*%
D11*
%TO.C,SW35*%
X205525000Y-85725000D03*
D12*
X200025000Y-85725000D03*
D10*
X194945000Y-85725000D03*
X205105000Y-85725000D03*
D11*
X194525000Y-85725000D03*
D14*
X196215000Y-83185000D03*
D13*
X194925000Y-89625000D03*
D14*
X202565000Y-80645000D03*
D13*
X200025000Y-91625000D03*
%TD*%
D10*
%TO.C,SW23*%
X118745000Y-123825000D03*
D12*
X123825000Y-123825000D03*
D10*
X128905000Y-123825000D03*
D11*
X118325000Y-123825000D03*
X129325000Y-123825000D03*
D13*
X118725000Y-127725000D03*
D14*
X120015000Y-121285000D03*
X126365000Y-118745000D03*
D13*
X123825000Y-129725000D03*
%TD*%
D11*
%TO.C,SW25*%
X165950000Y-47625000D03*
D10*
X166370000Y-47625000D03*
X176530000Y-47625000D03*
D11*
X176950000Y-47625000D03*
D12*
X171450000Y-47625000D03*
D13*
X166350000Y-51525000D03*
D14*
X167640000Y-45085000D03*
X173990000Y-42545000D03*
D13*
X171450000Y-53525000D03*
%TD*%
D18*
%TO.C,REF\u002A\u002A*%
X102400000Y-40640000D03*
D17*
X102400000Y-55880000D03*
X126200000Y-55880000D03*
D18*
X126200000Y-40640000D03*
%TD*%
D12*
%TO.C,SW30*%
X180975000Y-66675000D03*
D10*
X175895000Y-66675000D03*
X186055000Y-66675000D03*
D11*
X175475000Y-66675000D03*
X186475000Y-66675000D03*
D13*
X175875000Y-70575000D03*
D14*
X177165000Y-64135000D03*
X183515000Y-61595000D03*
D13*
X180975000Y-72575000D03*
%TD*%
D10*
%TO.C,SW43*%
X243205000Y-85725000D03*
D11*
X243625000Y-85725000D03*
D12*
X238125000Y-85725000D03*
D11*
X232625000Y-85725000D03*
D10*
X233045000Y-85725000D03*
D14*
X234315000Y-83185000D03*
D13*
X233025000Y-89625000D03*
X238125000Y-91625000D03*
D14*
X240665000Y-80645000D03*
%TD*%
D12*
%TO.C,SW8*%
X85725000Y-66675000D03*
D11*
X80225000Y-66675000D03*
D10*
X90805000Y-66675000D03*
D11*
X91225000Y-66675000D03*
D10*
X80645000Y-66675000D03*
D13*
X80625000Y-70575000D03*
D14*
X81915000Y-64135000D03*
X88265000Y-61595000D03*
D13*
X85725000Y-72575000D03*
%TD*%
D10*
%TO.C,SW13*%
X109855000Y-85725000D03*
D12*
X104775000Y-85725000D03*
D11*
X99275000Y-85725000D03*
X110275000Y-85725000D03*
D10*
X99695000Y-85725000D03*
D14*
X100965000Y-83185000D03*
D13*
X99675000Y-89625000D03*
X104775000Y-91625000D03*
D14*
X107315000Y-80645000D03*
%TD*%
D11*
%TO.C,SW18*%
X129325000Y-85725000D03*
X118325000Y-85725000D03*
D12*
X123825000Y-85725000D03*
D10*
X118745000Y-85725000D03*
X128905000Y-85725000D03*
D14*
X120015000Y-83185000D03*
D13*
X118725000Y-89625000D03*
X123825000Y-91625000D03*
D14*
X126365000Y-80645000D03*
%TD*%
D22*
%TO.C,D27*%
X152400000Y-117633750D03*
D23*
X152400000Y-125253750D03*
%TD*%
D22*
%TO.C,D41*%
X228600000Y-65246250D03*
D23*
X228600000Y-72866250D03*
%TD*%
D22*
%TO.C,D33*%
X190500000Y-65246250D03*
D23*
X190500000Y-72866250D03*
%TD*%
D22*
%TO.C,D30*%
X190500000Y-84296250D03*
D23*
X190500000Y-91916250D03*
%TD*%
D22*
%TO.C,D31*%
X171450000Y-117633750D03*
D23*
X171450000Y-125253750D03*
%TD*%
D22*
%TO.C,D12*%
X114300000Y-84296250D03*
D23*
X114300000Y-91916250D03*
%TD*%
D22*
%TO.C,D22*%
X133350000Y-117633750D03*
D23*
X133350000Y-125253750D03*
%TD*%
D22*
%TO.C,D42*%
X234315000Y-76200000D03*
D23*
X241935000Y-76200000D03*
%TD*%
D22*
%TO.C,D37*%
X209550000Y-65246250D03*
D23*
X209550000Y-72866250D03*
%TD*%
D22*
%TO.C,D1*%
X88106250Y-51435000D03*
D23*
X88106250Y-43815000D03*
%TD*%
D22*
%TO.C,D17*%
X119380000Y-76200000D03*
D23*
X127000000Y-76200000D03*
%TD*%
D22*
%TO.C,D29*%
X171450000Y-65246250D03*
D23*
X171450000Y-72866250D03*
%TD*%
D24*
%TO.C,J3*%
X227330000Y-58420000D03*
%TD*%
D22*
%TO.C,D38*%
X228600000Y-79533750D03*
D23*
X228600000Y-87153750D03*
%TD*%
D22*
%TO.C,D25*%
X158115000Y-76200000D03*
D23*
X165735000Y-76200000D03*
%TD*%
D22*
%TO.C,D3*%
X76200000Y-67627500D03*
D23*
X76200000Y-75247500D03*
%TD*%
D24*
%TO.C,J1*%
X231140000Y-58420000D03*
%TD*%
D22*
%TO.C,D26*%
X171450000Y-84296250D03*
D23*
X171450000Y-91916250D03*
%TD*%
D22*
%TO.C,D16*%
X114300000Y-65246250D03*
D23*
X114300000Y-72866250D03*
%TD*%
D24*
%TO.C,J2*%
X234950000Y-58420000D03*
%TD*%
D22*
%TO.C,D11*%
X95250000Y-65246250D03*
D23*
X95250000Y-72866250D03*
%TD*%
D22*
%TO.C,D7*%
X89535000Y-76200000D03*
D23*
X81915000Y-76200000D03*
%TD*%
D22*
%TO.C,D24*%
X183356250Y-52070000D03*
D23*
X183356250Y-44450000D03*
%TD*%
D22*
%TO.C,D8*%
X95250000Y-84296250D03*
D23*
X95250000Y-91916250D03*
%TD*%
D22*
%TO.C,D32*%
X196850000Y-52070000D03*
D23*
X196850000Y-44450000D03*
%TD*%
D22*
%TO.C,D10*%
X126206250Y-51435000D03*
D23*
X126206250Y-43815000D03*
%TD*%
D22*
%TO.C,D34*%
X209550000Y-84296250D03*
D23*
X209550000Y-91916250D03*
%TD*%
D22*
%TO.C,D35*%
X187166250Y-114300000D03*
D23*
X179546250Y-114300000D03*
%TD*%
D22*
%TO.C,D18*%
X114300000Y-117633750D03*
D23*
X114300000Y-125253750D03*
%TD*%
D22*
%TO.C,D20*%
X153670000Y-80010000D03*
D23*
X153670000Y-72390000D03*
%TD*%
M02*
