%TF.GenerationSoftware,KiCad,Pcbnew,(7.0.0)*%
%TF.CreationDate,2023-03-05T08:54:37+05:30*%
%TF.ProjectId,Peridot Steno,50657269-646f-4742-9053-74656e6f2e6b,rev?*%
%TF.SameCoordinates,Original*%
%TF.FileFunction,Soldermask,Bot*%
%TF.FilePolarity,Negative*%
%FSLAX46Y46*%
G04 Gerber Fmt 4.6, Leading zero omitted, Abs format (unit mm)*
G04 Created by KiCad (PCBNEW (7.0.0)) date 2023-03-05 08:54:37*
%MOMM*%
%LPD*%
G01*
G04 APERTURE LIST*
%ADD10C,2.100000*%
%ADD11C,1.900000*%
%ADD12C,4.000000*%
%ADD13O,2.800000X2.000000*%
%ADD14O,2.500000X2.000000*%
%ADD15O,2.000000X2.800000*%
%ADD16O,2.000000X2.500000*%
%ADD17C,3.048000*%
%ADD18C,3.987800*%
%ADD19C,1.800000*%
%ADD20R,1.752600X1.752600*%
%ADD21C,1.752600*%
%ADD22R,1.600000X1.600000*%
%ADD23O,1.600000X1.600000*%
%ADD24R,2.000000X2.000000*%
G04 APERTURE END LIST*
D10*
%TO.C,SW26*%
X156425000Y-66675000D03*
D11*
X156845000Y-66675000D03*
D12*
X161925000Y-66675000D03*
D11*
X167005000Y-66675000D03*
D10*
X167425000Y-66675000D03*
D13*
X156824999Y-70574999D03*
D14*
X158114999Y-64134999D03*
D13*
X161924999Y-72574999D03*
D14*
X164464999Y-61594999D03*
%TD*%
D10*
%TO.C,SW19*%
X99275000Y-123825000D03*
D11*
X99695000Y-123825000D03*
D12*
X104775000Y-123825000D03*
D11*
X109855000Y-123825000D03*
D10*
X110275000Y-123825000D03*
D13*
X99674999Y-127724999D03*
D14*
X100964999Y-121284999D03*
D13*
X104774999Y-129724999D03*
D14*
X107314999Y-118744999D03*
%TD*%
D10*
%TO.C,SW17*%
X118325000Y-66675000D03*
D11*
X118745000Y-66675000D03*
D12*
X123825000Y-66675000D03*
D11*
X128905000Y-66675000D03*
D10*
X129325000Y-66675000D03*
D13*
X118724999Y-70574999D03*
D14*
X120014999Y-64134999D03*
D13*
X123824999Y-72574999D03*
D14*
X126364999Y-61594999D03*
%TD*%
D10*
%TO.C,SW42*%
X232625000Y-66675000D03*
D11*
X233045000Y-66675000D03*
D12*
X238125000Y-66675000D03*
D11*
X243205000Y-66675000D03*
D10*
X243625000Y-66675000D03*
D13*
X233024999Y-70574999D03*
D14*
X234314999Y-64134999D03*
D13*
X238124999Y-72574999D03*
D14*
X240664999Y-61594999D03*
%TD*%
D10*
%TO.C,SW27*%
X156425000Y-85725000D03*
D11*
X156845000Y-85725000D03*
D12*
X161925000Y-85725000D03*
D11*
X167005000Y-85725000D03*
D10*
X167425000Y-85725000D03*
D13*
X156824999Y-89624999D03*
D14*
X158114999Y-83184999D03*
D13*
X161924999Y-91624999D03*
D14*
X164464999Y-80644999D03*
%TD*%
D10*
%TO.C,SW36*%
X175475000Y-123825000D03*
D11*
X175895000Y-123825000D03*
D12*
X180975000Y-123825000D03*
D11*
X186055000Y-123825000D03*
D10*
X186475000Y-123825000D03*
D13*
X175874999Y-127724999D03*
D14*
X177164999Y-121284999D03*
D13*
X180974999Y-129724999D03*
D14*
X183514999Y-118744999D03*
%TD*%
D10*
%TO.C,SW21*%
X142875000Y-81700000D03*
D11*
X142875000Y-81280000D03*
D12*
X142875000Y-76200000D03*
D11*
X142875000Y-71120000D03*
D10*
X142875000Y-70700000D03*
D15*
X146774999Y-81299999D03*
D16*
X140334999Y-80009999D03*
D15*
X148774999Y-76199999D03*
D16*
X137794999Y-73659999D03*
%TD*%
D10*
%TO.C,SW32*%
X156425000Y-123825000D03*
D11*
X156845000Y-123825000D03*
D12*
X161925000Y-123825000D03*
D11*
X167005000Y-123825000D03*
D10*
X167425000Y-123825000D03*
D13*
X156824999Y-127724999D03*
D14*
X158114999Y-121284999D03*
D13*
X161924999Y-129724999D03*
D14*
X164464999Y-118744999D03*
%TD*%
D10*
%TO.C,SW28*%
X137375000Y-123825000D03*
D11*
X137795000Y-123825000D03*
D12*
X142875000Y-123825000D03*
D11*
X147955000Y-123825000D03*
D10*
X148375000Y-123825000D03*
D13*
X137774999Y-127724999D03*
D14*
X139064999Y-121284999D03*
D13*
X142874999Y-129724999D03*
D14*
X145414999Y-118744999D03*
%TD*%
D10*
%TO.C,SW33*%
X204050000Y-47625000D03*
D11*
X204470000Y-47625000D03*
D12*
X209550000Y-47625000D03*
D11*
X214630000Y-47625000D03*
D10*
X215050000Y-47625000D03*
D13*
X204449999Y-51524999D03*
D14*
X205739999Y-45084999D03*
D13*
X209549999Y-53524999D03*
D14*
X212089999Y-42544999D03*
%TD*%
D10*
%TO.C,SW34*%
X194525000Y-66675000D03*
D11*
X194945000Y-66675000D03*
D12*
X200025000Y-66675000D03*
D11*
X205105000Y-66675000D03*
D10*
X205525000Y-66675000D03*
D13*
X194924999Y-70574999D03*
D14*
X196214999Y-64134999D03*
D13*
X200024999Y-72574999D03*
D14*
X202564999Y-61594999D03*
%TD*%
D17*
%TO.C,REF\u002A\u002A*%
X197650000Y-40640000D03*
D18*
X197650000Y-55880000D03*
D17*
X221450000Y-40640000D03*
D18*
X221450000Y-55880000D03*
%TD*%
D10*
%TO.C,SW39*%
X213575000Y-85725000D03*
D11*
X213995000Y-85725000D03*
D12*
X219075000Y-85725000D03*
D11*
X224155000Y-85725000D03*
D10*
X224575000Y-85725000D03*
D13*
X213974999Y-89624999D03*
D14*
X215264999Y-83184999D03*
D13*
X219074999Y-91624999D03*
D14*
X221614999Y-80644999D03*
%TD*%
D10*
%TO.C,SW31*%
X175475000Y-85725000D03*
D11*
X175895000Y-85725000D03*
D12*
X180975000Y-85725000D03*
D11*
X186055000Y-85725000D03*
D10*
X186475000Y-85725000D03*
D13*
X175874999Y-89624999D03*
D14*
X177164999Y-83184999D03*
D13*
X180974999Y-91624999D03*
D14*
X183514999Y-80644999D03*
%TD*%
D10*
%TO.C,SW9*%
X80225000Y-85725000D03*
D11*
X80645000Y-85725000D03*
D12*
X85725000Y-85725000D03*
D11*
X90805000Y-85725000D03*
D10*
X91225000Y-85725000D03*
D13*
X80624999Y-89624999D03*
D14*
X81914999Y-83184999D03*
D13*
X85724999Y-91624999D03*
D14*
X88264999Y-80644999D03*
%TD*%
D19*
%TO.C,U1*%
X135255000Y-28892500D03*
X135255000Y-31432500D03*
X135255000Y-33972500D03*
X135255000Y-36512500D03*
X135255000Y-39052500D03*
X135255000Y-41592500D03*
X135255000Y-44132500D03*
X135255000Y-46672500D03*
X135255000Y-49212500D03*
X135255000Y-51752500D03*
X135255000Y-54292500D03*
X135255000Y-56832500D03*
X150495000Y-56832500D03*
X150495000Y-54292500D03*
X150495000Y-51752500D03*
X150495000Y-49212500D03*
X150495000Y-46672500D03*
X150495000Y-44132500D03*
X150495000Y-41592500D03*
X150495000Y-39052500D03*
X150495000Y-36512500D03*
X150495000Y-33972500D03*
X150495000Y-31432500D03*
X150495000Y-28892500D03*
%TD*%
D10*
%TO.C,SW12*%
X99275000Y-66675000D03*
D11*
X99695000Y-66675000D03*
D12*
X104775000Y-66675000D03*
D11*
X109855000Y-66675000D03*
D10*
X110275000Y-66675000D03*
D13*
X99674999Y-70574999D03*
D14*
X100964999Y-64134999D03*
D13*
X104774999Y-72574999D03*
D14*
X107314999Y-61594999D03*
%TD*%
D10*
%TO.C,SW4*%
X66675000Y-81700000D03*
D11*
X66675000Y-81280000D03*
D12*
X66675000Y-76200000D03*
D11*
X66675000Y-71120000D03*
D10*
X66675000Y-70700000D03*
D15*
X70574999Y-81299999D03*
D16*
X64134999Y-80009999D03*
D15*
X72574999Y-76199999D03*
D16*
X61594999Y-73659999D03*
%TD*%
D17*
%TO.C,REF\u002A\u002A*%
X59690000Y-88100000D03*
D18*
X74930000Y-88100000D03*
D17*
X59690000Y-64300000D03*
D18*
X74930000Y-64300000D03*
%TD*%
D17*
%TO.C,REF\u002A\u002A*%
X135890000Y-88100000D03*
D18*
X151130000Y-88100000D03*
D17*
X135890000Y-64300000D03*
D18*
X151130000Y-64300000D03*
%TD*%
D10*
%TO.C,SW11*%
X108800000Y-47625000D03*
D11*
X109220000Y-47625000D03*
D12*
X114300000Y-47625000D03*
D11*
X119380000Y-47625000D03*
D10*
X119800000Y-47625000D03*
D13*
X109199999Y-51524999D03*
D14*
X110489999Y-45084999D03*
D13*
X114299999Y-53524999D03*
D14*
X116839999Y-42544999D03*
%TD*%
D17*
%TO.C,REF\u002A\u002A*%
X159550000Y-40640000D03*
D18*
X159550000Y-55880000D03*
D17*
X183350000Y-40640000D03*
D18*
X183350000Y-55880000D03*
%TD*%
D20*
%TO.C,SW1*%
X239864899Y-40481249D03*
D21*
X233362500Y-40481250D03*
%TD*%
D10*
%TO.C,SW38*%
X213575000Y-66675000D03*
D11*
X213995000Y-66675000D03*
D12*
X219075000Y-66675000D03*
D11*
X224155000Y-66675000D03*
D10*
X224575000Y-66675000D03*
D13*
X213974999Y-70574999D03*
D14*
X215264999Y-64134999D03*
D13*
X219074999Y-72574999D03*
D14*
X221614999Y-61594999D03*
%TD*%
D10*
%TO.C,SW2*%
X70700000Y-47625000D03*
D11*
X71120000Y-47625000D03*
D12*
X76200000Y-47625000D03*
D11*
X81280000Y-47625000D03*
D10*
X81700000Y-47625000D03*
D13*
X71099999Y-51524999D03*
D14*
X72389999Y-45084999D03*
D13*
X76199999Y-53524999D03*
D14*
X78739999Y-42544999D03*
%TD*%
D17*
%TO.C,REF\u002A\u002A*%
X64300000Y-40640000D03*
D18*
X64300000Y-55880000D03*
D17*
X88100000Y-40640000D03*
D18*
X88100000Y-55880000D03*
%TD*%
D10*
%TO.C,SW35*%
X194525000Y-85725000D03*
D11*
X194945000Y-85725000D03*
D12*
X200025000Y-85725000D03*
D11*
X205105000Y-85725000D03*
D10*
X205525000Y-85725000D03*
D13*
X194924999Y-89624999D03*
D14*
X196214999Y-83184999D03*
D13*
X200024999Y-91624999D03*
D14*
X202564999Y-80644999D03*
%TD*%
D10*
%TO.C,SW23*%
X118325000Y-123825000D03*
D11*
X118745000Y-123825000D03*
D12*
X123825000Y-123825000D03*
D11*
X128905000Y-123825000D03*
D10*
X129325000Y-123825000D03*
D13*
X118724999Y-127724999D03*
D14*
X120014999Y-121284999D03*
D13*
X123824999Y-129724999D03*
D14*
X126364999Y-118744999D03*
%TD*%
D10*
%TO.C,SW25*%
X165950000Y-47625000D03*
D11*
X166370000Y-47625000D03*
D12*
X171450000Y-47625000D03*
D11*
X176530000Y-47625000D03*
D10*
X176950000Y-47625000D03*
D13*
X166349999Y-51524999D03*
D14*
X167639999Y-45084999D03*
D13*
X171449999Y-53524999D03*
D14*
X173989999Y-42544999D03*
%TD*%
D17*
%TO.C,REF\u002A\u002A*%
X102400000Y-40640000D03*
D18*
X102400000Y-55880000D03*
D17*
X126200000Y-40640000D03*
D18*
X126200000Y-55880000D03*
%TD*%
D10*
%TO.C,SW30*%
X175475000Y-66675000D03*
D11*
X175895000Y-66675000D03*
D12*
X180975000Y-66675000D03*
D11*
X186055000Y-66675000D03*
D10*
X186475000Y-66675000D03*
D13*
X175874999Y-70574999D03*
D14*
X177164999Y-64134999D03*
D13*
X180974999Y-72574999D03*
D14*
X183514999Y-61594999D03*
%TD*%
D10*
%TO.C,SW43*%
X232625000Y-85725000D03*
D11*
X233045000Y-85725000D03*
D12*
X238125000Y-85725000D03*
D11*
X243205000Y-85725000D03*
D10*
X243625000Y-85725000D03*
D13*
X233024999Y-89624999D03*
D14*
X234314999Y-83184999D03*
D13*
X238124999Y-91624999D03*
D14*
X240664999Y-80644999D03*
%TD*%
D10*
%TO.C,SW8*%
X80225000Y-66675000D03*
D11*
X80645000Y-66675000D03*
D12*
X85725000Y-66675000D03*
D11*
X90805000Y-66675000D03*
D10*
X91225000Y-66675000D03*
D13*
X80624999Y-70574999D03*
D14*
X81914999Y-64134999D03*
D13*
X85724999Y-72574999D03*
D14*
X88264999Y-61594999D03*
%TD*%
D10*
%TO.C,SW13*%
X99275000Y-85725000D03*
D11*
X99695000Y-85725000D03*
D12*
X104775000Y-85725000D03*
D11*
X109855000Y-85725000D03*
D10*
X110275000Y-85725000D03*
D13*
X99674999Y-89624999D03*
D14*
X100964999Y-83184999D03*
D13*
X104774999Y-91624999D03*
D14*
X107314999Y-80644999D03*
%TD*%
D10*
%TO.C,SW18*%
X118325000Y-85725000D03*
D11*
X118745000Y-85725000D03*
D12*
X123825000Y-85725000D03*
D11*
X128905000Y-85725000D03*
D10*
X129325000Y-85725000D03*
D13*
X118724999Y-89624999D03*
D14*
X120014999Y-83184999D03*
D13*
X123824999Y-91624999D03*
D14*
X126364999Y-80644999D03*
%TD*%
D22*
%TO.C,D27*%
X152399999Y-117633749D03*
D23*
X152399999Y-125253749D03*
%TD*%
D22*
%TO.C,D41*%
X228599999Y-65246249D03*
D23*
X228599999Y-72866249D03*
%TD*%
D22*
%TO.C,D33*%
X190499999Y-65246249D03*
D23*
X190499999Y-72866249D03*
%TD*%
D22*
%TO.C,D30*%
X190499999Y-84296249D03*
D23*
X190499999Y-91916249D03*
%TD*%
D22*
%TO.C,D31*%
X171449999Y-117633749D03*
D23*
X171449999Y-125253749D03*
%TD*%
D22*
%TO.C,D12*%
X114299999Y-84296249D03*
D23*
X114299999Y-91916249D03*
%TD*%
D22*
%TO.C,D22*%
X133349999Y-117633749D03*
D23*
X133349999Y-125253749D03*
%TD*%
D22*
%TO.C,D42*%
X234314999Y-76199999D03*
D23*
X241934999Y-76199999D03*
%TD*%
D22*
%TO.C,D37*%
X209549999Y-65246249D03*
D23*
X209549999Y-72866249D03*
%TD*%
D22*
%TO.C,D1*%
X88106249Y-51434999D03*
D23*
X88106249Y-43814999D03*
%TD*%
D22*
%TO.C,D17*%
X119379999Y-76199999D03*
D23*
X126999999Y-76199999D03*
%TD*%
D22*
%TO.C,D29*%
X171449999Y-65246249D03*
D23*
X171449999Y-72866249D03*
%TD*%
D24*
%TO.C,J3*%
X227329999Y-58419999D03*
%TD*%
D22*
%TO.C,D38*%
X228599999Y-79533749D03*
D23*
X228599999Y-87153749D03*
%TD*%
D22*
%TO.C,D25*%
X158114999Y-76199999D03*
D23*
X165734999Y-76199999D03*
%TD*%
D22*
%TO.C,D3*%
X76199999Y-68579999D03*
D23*
X76199999Y-76199999D03*
%TD*%
D24*
%TO.C,J1*%
X231139999Y-58419999D03*
%TD*%
D22*
%TO.C,D26*%
X171449999Y-84296249D03*
D23*
X171449999Y-91916249D03*
%TD*%
D22*
%TO.C,D16*%
X114299999Y-65246249D03*
D23*
X114299999Y-72866249D03*
%TD*%
D24*
%TO.C,J2*%
X234949999Y-58419999D03*
%TD*%
D22*
%TO.C,D11*%
X95249999Y-65246249D03*
D23*
X95249999Y-72866249D03*
%TD*%
D22*
%TO.C,D7*%
X89534999Y-76199999D03*
D23*
X81914999Y-76199999D03*
%TD*%
D22*
%TO.C,D24*%
X183356249Y-52069999D03*
D23*
X183356249Y-44449999D03*
%TD*%
D22*
%TO.C,D8*%
X95249999Y-84296249D03*
D23*
X95249999Y-91916249D03*
%TD*%
D22*
%TO.C,D32*%
X196849999Y-52069999D03*
D23*
X196849999Y-44449999D03*
%TD*%
D22*
%TO.C,D10*%
X126206249Y-51434999D03*
D23*
X126206249Y-43814999D03*
%TD*%
D22*
%TO.C,D34*%
X209549999Y-84296249D03*
D23*
X209549999Y-91916249D03*
%TD*%
D22*
%TO.C,D35*%
X187166249Y-114299999D03*
D23*
X179546249Y-114299999D03*
%TD*%
D22*
%TO.C,D18*%
X114299999Y-117633749D03*
D23*
X114299999Y-125253749D03*
%TD*%
D22*
%TO.C,D20*%
X153669999Y-80009999D03*
D23*
X153669999Y-72389999D03*
%TD*%
M02*
