M48
; DRILL file {KiCad (6.0.9)} date Tue Feb 21 23:40:33 2023
; FORMAT={-:-/ absolute / inch / decimal}
; #@! TF.CreationDate,2023-02-21T23:40:33+05:30
; #@! TF.GenerationSoftware,Kicad,Pcbnew,(6.0.9)
; #@! TF.FileFunction,Plated,1,2,PTH
FMAT,2
INCH
; #@! TA.AperFunction,Plated,PTH,ComponentDrill
T1C0.0315
; #@! TA.AperFunction,Plated,PTH,ComponentDrill
T2C0.0394
; #@! TA.AperFunction,Plated,PTH,ComponentDrill
T3C0.0433
; #@! TA.AperFunction,Plated,PTH,ComponentDrill
T4C0.0490
%
G90
G05
T1
X3.0Y-2.6625
X3.0Y-2.9625
X3.225Y-3.0
X3.4688Y-1.725
X3.4688Y-2.025
X3.525Y-3.0
X3.75Y-2.5688
X3.75Y-2.8687
X3.75Y-3.3188
X3.75Y-3.6187
X4.5Y-2.5688
X4.5Y-2.8687
X4.5Y-3.3188
X4.5Y-3.6187
X4.5Y-4.6312
X4.5Y-4.9312
X4.7Y-3.0
X4.9688Y-1.725
X4.9688Y-2.025
X5.0Y-3.0
X5.25Y-4.6312
X5.25Y-4.9312
X6.0Y-4.6312
X6.0Y-4.9312
X6.05Y-2.85
X6.05Y-3.15
X6.225Y-3.0
X6.525Y-3.0
X6.75Y-2.5688
X6.75Y-2.8687
X6.75Y-3.3188
X6.75Y-3.6187
X6.75Y-4.6312
X6.75Y-4.9312
X7.0687Y-4.5
X7.2188Y-1.75
X7.2188Y-2.05
X7.3687Y-4.5
X7.5Y-2.5688
X7.5Y-2.8687
X7.5Y-3.3188
X7.5Y-3.6187
X7.75Y-1.75
X7.75Y-2.05
X8.25Y-2.5688
X8.25Y-2.8687
X8.25Y-3.3188
X8.25Y-3.6187
X9.0Y-2.5688
X9.0Y-2.8687
X9.0Y-3.1313
X9.0Y-3.4312
X9.225Y-3.0
X9.525Y-3.0
T2
X8.95Y-2.3
X9.1Y-2.3
X9.25Y-2.3
T3
X5.325Y-1.1375
X5.325Y-1.2375
X5.325Y-1.3375
X5.325Y-1.4375
X5.325Y-1.5375
X5.325Y-1.6375
X5.325Y-1.7375
X5.325Y-1.8375
X5.325Y-1.9375
X5.325Y-2.0375
X5.325Y-2.1375
X5.325Y-2.2375
X5.925Y-1.1375
X5.925Y-1.2375
X5.925Y-1.3375
X5.925Y-1.4375
X5.925Y-1.5375
X5.925Y-1.6375
X5.925Y-1.7375
X5.925Y-1.8375
X5.925Y-1.9375
X5.925Y-2.0375
X5.925Y-2.1375
X5.925Y-2.2375
T4
X9.4688Y-1.7812
X9.4688Y-2.0372
T1
G00X2.425Y-2.8141
M15
G01X2.425Y-2.7984
M16
G05
G00X2.525Y-3.0641
M15
G01X2.525Y-3.0484
M16
G05
G00X2.7785Y-3.1208
M15
G01X2.7785Y-3.0933
M16
G05
G00X2.7854Y-2.0285
M15
G01X2.813Y-2.0285
M16
G05
G00X2.8421Y-1.775
M15
G01X2.8579Y-1.775
M16
G05
G00X2.8573Y-2.92
M15
G01X2.8573Y-2.8925
M16
G05
G00X2.9862Y-2.1073
M15
G01X3.0138Y-2.1073
M16
G05
G00X3.0921Y-1.675
M15
G01X3.1079Y-1.675
M16
G05
G00X3.1604Y-2.7785
M15
G01X3.188Y-2.7785
M16
G05
G00X3.1604Y-3.5285
M15
G01X3.188Y-3.5285
M16
G05
G00X3.2171Y-2.525
M15
G01X3.2329Y-2.525
M16
G05
G00X3.2171Y-3.275
M15
G01X3.2329Y-3.275
M16
G05
G00X3.3612Y-2.8573
M15
G01X3.3888Y-2.8573
M16
G05
G00X3.3612Y-3.6073
M15
G01X3.3888Y-3.6073
M16
G05
G00X3.4671Y-2.425
M15
G01X3.4829Y-2.425
M16
G05
G00X3.4671Y-3.175
M15
G01X3.4829Y-3.175
M16
G05
G00X3.9104Y-2.7785
M15
G01X3.938Y-2.7785
M16
G05
G00X3.9104Y-3.5285
M15
G01X3.938Y-3.5285
M16
G05
G00X3.9104Y-5.0285
M15
G01X3.938Y-5.0285
M16
G05
G00X3.9671Y-2.525
M15
G01X3.9829Y-2.525
M16
G05
G00X3.9671Y-3.275
M15
G01X3.9829Y-3.275
M16
G05
G00X3.9671Y-4.775
M15
G01X3.9829Y-4.775
M16
G05
G00X4.1112Y-2.8573
M15
G01X4.1388Y-2.8573
M16
G05
G00X4.1112Y-3.6073
M15
G01X4.1388Y-3.6073
M16
G05
G00X4.1112Y-5.1073
M15
G01X4.1388Y-5.1073
M16
G05
G00X4.2171Y-2.425
M15
G01X4.2329Y-2.425
M16
G05
G00X4.2171Y-3.175
M15
G01X4.2329Y-3.175
M16
G05
G00X4.2171Y-4.675
M15
G01X4.2329Y-4.675
M16
G05
G00X4.2854Y-2.0285
M15
G01X4.313Y-2.0285
M16
G05
G00X4.3421Y-1.775
M15
G01X4.3579Y-1.775
M16
G05
G00X4.4862Y-2.1073
M15
G01X4.5138Y-2.1073
M16
G05
G00X4.5921Y-1.675
M15
G01X4.6079Y-1.675
M16
G05
G00X4.6604Y-2.7785
M15
G01X4.688Y-2.7785
M16
G05
G00X4.6604Y-3.5285
M15
G01X4.688Y-3.5285
M16
G05
G00X4.6604Y-5.0285
M15
G01X4.688Y-5.0285
M16
G05
G00X4.7171Y-2.525
M15
G01X4.7329Y-2.525
M16
G05
G00X4.7171Y-3.275
M15
G01X4.7329Y-3.275
M16
G05
G00X4.7171Y-4.775
M15
G01X4.7329Y-4.775
M16
G05
G00X4.8612Y-2.8573
M15
G01X4.8888Y-2.8573
M16
G05
G00X4.8612Y-3.6073
M15
G01X4.8888Y-3.6073
M16
G05
G00X4.8612Y-5.1073
M15
G01X4.8888Y-5.1073
M16
G05
G00X4.9671Y-2.425
M15
G01X4.9829Y-2.425
M16
G05
G00X4.9671Y-3.175
M15
G01X4.9829Y-3.175
M16
G05
G00X4.9671Y-4.675
M15
G01X4.9829Y-4.675
M16
G05
G00X5.4104Y-5.0285
M15
G01X5.438Y-5.0285
M16
G05
G00X5.425Y-2.8141
M15
G01X5.425Y-2.7984
M16
G05
G00X5.4671Y-4.775
M15
G01X5.4829Y-4.775
M16
G05
G00X5.525Y-3.0641
M15
G01X5.525Y-3.0484
M16
G05
G00X5.6112Y-5.1073
M15
G01X5.6388Y-5.1073
M16
G05
G00X5.7171Y-4.675
M15
G01X5.7329Y-4.675
M16
G05
G00X5.7785Y-3.1208
M15
G01X5.7785Y-3.0933
M16
G05
G00X5.8573Y-2.92
M15
G01X5.8573Y-2.8925
M16
G05
G00X6.1604Y-2.7785
M15
G01X6.188Y-2.7785
M16
G05
G00X6.1604Y-3.5285
M15
G01X6.188Y-3.5285
M16
G05
G00X6.1604Y-5.0285
M15
G01X6.188Y-5.0285
M16
G05
G00X6.2171Y-2.525
M15
G01X6.2329Y-2.525
M16
G05
G00X6.2171Y-3.275
M15
G01X6.2329Y-3.275
M16
G05
G00X6.2171Y-4.775
M15
G01X6.2329Y-4.775
M16
G05
G00X6.3612Y-2.8573
M15
G01X6.3888Y-2.8573
M16
G05
G00X6.3612Y-3.6073
M15
G01X6.3888Y-3.6073
M16
G05
G00X6.3612Y-5.1073
M15
G01X6.3888Y-5.1073
M16
G05
G00X6.4671Y-2.425
M15
G01X6.4829Y-2.425
M16
G05
G00X6.4671Y-3.175
M15
G01X6.4829Y-3.175
M16
G05
G00X6.4671Y-4.675
M15
G01X6.4829Y-4.675
M16
G05
G00X6.5354Y-2.0285
M15
G01X6.563Y-2.0285
M16
G05
G00X6.5921Y-1.775
M15
G01X6.6079Y-1.775
M16
G05
G00X6.7362Y-2.1073
M15
G01X6.7638Y-2.1073
M16
G05
G00X6.8421Y-1.675
M15
G01X6.8579Y-1.675
M16
G05
G00X6.9104Y-2.7785
M15
G01X6.938Y-2.7785
M16
G05
G00X6.9104Y-3.5285
M15
G01X6.938Y-3.5285
M16
G05
G00X6.9104Y-5.0285
M15
G01X6.938Y-5.0285
M16
G05
G00X6.9671Y-2.525
M15
G01X6.9829Y-2.525
M16
G05
G00X6.9671Y-3.275
M15
G01X6.9829Y-3.275
M16
G05
G00X6.9671Y-4.775
M15
G01X6.9829Y-4.775
M16
G05
G00X7.1112Y-2.8573
M15
G01X7.1388Y-2.8573
M16
G05
G00X7.1112Y-3.6073
M15
G01X7.1388Y-3.6073
M16
G05
G00X7.1112Y-5.1073
M15
G01X7.1388Y-5.1073
M16
G05
G00X7.2171Y-2.425
M15
G01X7.2329Y-2.425
M16
G05
G00X7.2171Y-3.175
M15
G01X7.2329Y-3.175
M16
G05
G00X7.2171Y-4.675
M15
G01X7.2329Y-4.675
M16
G05
G00X7.6604Y-2.7785
M15
G01X7.688Y-2.7785
M16
G05
G00X7.6604Y-3.5285
M15
G01X7.688Y-3.5285
M16
G05
G00X7.7171Y-2.525
M15
G01X7.7329Y-2.525
M16
G05
G00X7.7171Y-3.275
M15
G01X7.7329Y-3.275
M16
G05
G00X7.8612Y-2.8573
M15
G01X7.8888Y-2.8573
M16
G05
G00X7.8612Y-3.6073
M15
G01X7.8888Y-3.6073
M16
G05
G00X7.9671Y-2.425
M15
G01X7.9829Y-2.425
M16
G05
G00X7.9671Y-3.175
M15
G01X7.9829Y-3.175
M16
G05
G00X8.0354Y-2.0285
M15
G01X8.063Y-2.0285
M16
G05
G00X8.0921Y-1.775
M15
G01X8.1079Y-1.775
M16
G05
G00X8.2362Y-2.1073
M15
G01X8.2638Y-2.1073
M16
G05
G00X8.3421Y-1.675
M15
G01X8.3579Y-1.675
M16
G05
G00X8.3622Y-2.7785
M15
G01X8.3898Y-2.7785
M16
G05
G00X8.4104Y-3.5285
M15
G01X8.438Y-3.5285
M16
G05
G00X8.4189Y-2.525
M15
G01X8.4346Y-2.525
M16
G05
G00X8.4671Y-3.275
M15
G01X8.4829Y-3.275
M16
G05
G00X8.563Y-2.8573
M15
G01X8.5906Y-2.8573
M16
G05
G00X8.6112Y-3.6073
M15
G01X8.6388Y-3.6073
M16
G05
G00X8.6689Y-2.425
M15
G01X8.6846Y-2.425
M16
G05
G00X8.7171Y-3.175
M15
G01X8.7329Y-3.175
M16
G05
G00X9.1604Y-2.7785
M15
G01X9.188Y-2.7785
M16
G05
G00X9.1604Y-3.5285
M15
G01X9.188Y-3.5285
M16
G05
G00X9.2171Y-2.525
M15
G01X9.2329Y-2.525
M16
G05
G00X9.2171Y-3.275
M15
G01X9.2329Y-3.275
M16
G05
G00X9.3612Y-2.8573
M15
G01X9.3888Y-2.8573
M16
G05
G00X9.3612Y-3.6073
M15
G01X9.3888Y-3.6073
M16
G05
G00X9.4671Y-2.425
M15
G01X9.4829Y-2.425
M16
G05
G00X9.4671Y-3.175
M15
G01X9.4829Y-3.175
M16
G05
T0
M30
