%TF.GenerationSoftware,KiCad,Pcbnew,(7.0.0)*%
%TF.CreationDate,2023-03-05T08:54:37+05:30*%
%TF.ProjectId,Peridot Steno,50657269-646f-4742-9053-74656e6f2e6b,rev?*%
%TF.SameCoordinates,Original*%
%TF.FileFunction,Copper,L1,Top*%
%TF.FilePolarity,Positive*%
%FSLAX46Y46*%
G04 Gerber Fmt 4.6, Leading zero omitted, Abs format (unit mm)*
G04 Created by KiCad (PCBNEW (7.0.0)) date 2023-03-05 08:54:37*
%MOMM*%
%LPD*%
G01*
G04 APERTURE LIST*
%TA.AperFunction,WasherPad*%
%ADD10C,2.100000*%
%TD*%
%TA.AperFunction,WasherPad*%
%ADD11C,1.900000*%
%TD*%
%TA.AperFunction,ComponentPad*%
%ADD12O,2.800000X2.000000*%
%TD*%
%TA.AperFunction,ComponentPad*%
%ADD13O,2.500000X2.000000*%
%TD*%
%TA.AperFunction,ComponentPad*%
%ADD14O,2.000000X2.800000*%
%TD*%
%TA.AperFunction,ComponentPad*%
%ADD15O,2.000000X2.500000*%
%TD*%
%TA.AperFunction,ComponentPad*%
%ADD16C,1.800000*%
%TD*%
%TA.AperFunction,ComponentPad*%
%ADD17R,1.752600X1.752600*%
%TD*%
%TA.AperFunction,ComponentPad*%
%ADD18C,1.752600*%
%TD*%
%TA.AperFunction,ComponentPad*%
%ADD19R,1.600000X1.600000*%
%TD*%
%TA.AperFunction,ComponentPad*%
%ADD20O,1.600000X1.600000*%
%TD*%
%TA.AperFunction,ComponentPad*%
%ADD21R,2.000000X2.000000*%
%TD*%
%TA.AperFunction,Conductor*%
%ADD22C,0.250000*%
%TD*%
G04 APERTURE END LIST*
D10*
%TO.P,SW26,*%
%TO.N,*%
X156425000Y-66675000D03*
D11*
X156845000Y-66675000D03*
X167005000Y-66675000D03*
D10*
X167425000Y-66675000D03*
D12*
%TO.P,SW26,1,1*%
%TO.N,ROW1*%
X156824999Y-70574999D03*
D13*
X158114999Y-64134999D03*
D12*
%TO.P,SW26,2,2*%
%TO.N,Net-(D25-A)*%
X161924999Y-72574999D03*
D13*
X164464999Y-61594999D03*
%TD*%
D10*
%TO.P,SW19,*%
%TO.N,*%
X99275000Y-123825000D03*
D11*
X99695000Y-123825000D03*
X109855000Y-123825000D03*
D10*
X110275000Y-123825000D03*
D12*
%TO.P,SW19,1,1*%
%TO.N,ROW3*%
X99674999Y-127724999D03*
D13*
X100964999Y-121284999D03*
D12*
%TO.P,SW19,2,2*%
%TO.N,Net-(D18-A)*%
X104774999Y-129724999D03*
D13*
X107314999Y-118744999D03*
%TD*%
D10*
%TO.P,SW17,*%
%TO.N,*%
X118325000Y-66675000D03*
D11*
X118745000Y-66675000D03*
X128905000Y-66675000D03*
D10*
X129325000Y-66675000D03*
D12*
%TO.P,SW17,1,1*%
%TO.N,ROW1*%
X118724999Y-70574999D03*
D13*
X120014999Y-64134999D03*
D12*
%TO.P,SW17,2,2*%
%TO.N,Net-(D16-A)*%
X123824999Y-72574999D03*
D13*
X126364999Y-61594999D03*
%TD*%
D10*
%TO.P,SW42,*%
%TO.N,*%
X232625000Y-66675000D03*
D11*
X233045000Y-66675000D03*
X243205000Y-66675000D03*
D10*
X243625000Y-66675000D03*
D12*
%TO.P,SW42,1,1*%
%TO.N,ROW1*%
X233024999Y-70574999D03*
D13*
X234314999Y-64134999D03*
D12*
%TO.P,SW42,2,2*%
%TO.N,Net-(D41-A)*%
X238124999Y-72574999D03*
D13*
X240664999Y-61594999D03*
%TD*%
D10*
%TO.P,SW27,*%
%TO.N,*%
X156425000Y-85725000D03*
D11*
X156845000Y-85725000D03*
X167005000Y-85725000D03*
D10*
X167425000Y-85725000D03*
D12*
%TO.P,SW27,1,1*%
%TO.N,ROW2*%
X156824999Y-89624999D03*
D13*
X158114999Y-83184999D03*
D12*
%TO.P,SW27,2,2*%
%TO.N,Net-(D26-A)*%
X161924999Y-91624999D03*
D13*
X164464999Y-80644999D03*
%TD*%
D10*
%TO.P,SW36,*%
%TO.N,*%
X175475000Y-123825000D03*
D11*
X175895000Y-123825000D03*
X186055000Y-123825000D03*
D10*
X186475000Y-123825000D03*
D12*
%TO.P,SW36,1,1*%
%TO.N,ROW3*%
X175874999Y-127724999D03*
D13*
X177164999Y-121284999D03*
D12*
%TO.P,SW36,2,2*%
%TO.N,Net-(D35-A)*%
X180974999Y-129724999D03*
D13*
X183514999Y-118744999D03*
%TD*%
D10*
%TO.P,SW21,*%
%TO.N,*%
X142875000Y-81700000D03*
D11*
X142875000Y-81280000D03*
X142875000Y-71120000D03*
D10*
X142875000Y-70700000D03*
D14*
%TO.P,SW21,1,1*%
%TO.N,ROW1*%
X146774999Y-81299999D03*
D15*
X140334999Y-80009999D03*
D14*
%TO.P,SW21,2,2*%
%TO.N,Net-(D20-A)*%
X148774999Y-76199999D03*
D15*
X137794999Y-73659999D03*
%TD*%
D10*
%TO.P,SW32,*%
%TO.N,*%
X156425000Y-123825000D03*
D11*
X156845000Y-123825000D03*
X167005000Y-123825000D03*
D10*
X167425000Y-123825000D03*
D12*
%TO.P,SW32,1,1*%
%TO.N,ROW3*%
X156824999Y-127724999D03*
D13*
X158114999Y-121284999D03*
D12*
%TO.P,SW32,2,2*%
%TO.N,Net-(D31-A)*%
X161924999Y-129724999D03*
D13*
X164464999Y-118744999D03*
%TD*%
D10*
%TO.P,SW28,*%
%TO.N,*%
X137375000Y-123825000D03*
D11*
X137795000Y-123825000D03*
X147955000Y-123825000D03*
D10*
X148375000Y-123825000D03*
D12*
%TO.P,SW28,1,1*%
%TO.N,ROW3*%
X137774999Y-127724999D03*
D13*
X139064999Y-121284999D03*
D12*
%TO.P,SW28,2,2*%
%TO.N,Net-(D27-A)*%
X142874999Y-129724999D03*
D13*
X145414999Y-118744999D03*
%TD*%
D10*
%TO.P,SW33,*%
%TO.N,*%
X204050000Y-47625000D03*
D11*
X204470000Y-47625000D03*
X214630000Y-47625000D03*
D10*
X215050000Y-47625000D03*
D12*
%TO.P,SW33,1,1*%
%TO.N,ROW0*%
X204449999Y-51524999D03*
D13*
X205739999Y-45084999D03*
D12*
%TO.P,SW33,2,2*%
%TO.N,Net-(D32-A)*%
X209549999Y-53524999D03*
D13*
X212089999Y-42544999D03*
%TD*%
D10*
%TO.P,SW34,*%
%TO.N,*%
X194525000Y-66675000D03*
D11*
X194945000Y-66675000D03*
X205105000Y-66675000D03*
D10*
X205525000Y-66675000D03*
D12*
%TO.P,SW34,1,1*%
%TO.N,ROW1*%
X194924999Y-70574999D03*
D13*
X196214999Y-64134999D03*
D12*
%TO.P,SW34,2,2*%
%TO.N,Net-(D33-A)*%
X200024999Y-72574999D03*
D13*
X202564999Y-61594999D03*
%TD*%
D10*
%TO.P,SW39,*%
%TO.N,*%
X213575000Y-85725000D03*
D11*
X213995000Y-85725000D03*
X224155000Y-85725000D03*
D10*
X224575000Y-85725000D03*
D12*
%TO.P,SW39,1,1*%
%TO.N,ROW2*%
X213974999Y-89624999D03*
D13*
X215264999Y-83184999D03*
D12*
%TO.P,SW39,2,2*%
%TO.N,Net-(D38-A)*%
X219074999Y-91624999D03*
D13*
X221614999Y-80644999D03*
%TD*%
D10*
%TO.P,SW31,*%
%TO.N,*%
X175475000Y-85725000D03*
D11*
X175895000Y-85725000D03*
X186055000Y-85725000D03*
D10*
X186475000Y-85725000D03*
D12*
%TO.P,SW31,1,1*%
%TO.N,ROW2*%
X175874999Y-89624999D03*
D13*
X177164999Y-83184999D03*
D12*
%TO.P,SW31,2,2*%
%TO.N,Net-(D30-A)*%
X180974999Y-91624999D03*
D13*
X183514999Y-80644999D03*
%TD*%
D10*
%TO.P,SW9,*%
%TO.N,*%
X80225000Y-85725000D03*
D11*
X80645000Y-85725000D03*
X90805000Y-85725000D03*
D10*
X91225000Y-85725000D03*
D12*
%TO.P,SW9,1,1*%
%TO.N,ROW2*%
X80624999Y-89624999D03*
D13*
X81914999Y-83184999D03*
D12*
%TO.P,SW9,2,2*%
%TO.N,Net-(D8-A)*%
X85724999Y-91624999D03*
D13*
X88264999Y-80644999D03*
%TD*%
D16*
%TO.P,U1,1,TX*%
%TO.N,unconnected-(U1-TX-Pad1)*%
X135255000Y-28892500D03*
%TO.P,U1,2,RX*%
%TO.N,unconnected-(U1-RX-Pad2)*%
X135255000Y-31432500D03*
%TO.P,U1,3,GND*%
%TO.N,GND*%
X135255000Y-33972500D03*
%TO.P,U1,4,GND*%
X135255000Y-36512500D03*
%TO.P,U1,5,SDA*%
%TO.N,unconnected-(U1-SDA-Pad5)*%
X135255000Y-39052500D03*
%TO.P,U1,6,SCL*%
%TO.N,LED_DAT*%
X135255000Y-41592500D03*
%TO.P,U1,7,D4*%
%TO.N,COL0*%
X135255000Y-44132500D03*
%TO.P,U1,8,C6*%
%TO.N,COL1*%
X135255000Y-46672500D03*
%TO.P,U1,9,D7*%
%TO.N,COL2*%
X135255000Y-49212500D03*
%TO.P,U1,10,E6*%
%TO.N,COL3*%
X135255000Y-51752500D03*
%TO.P,U1,11,B4*%
%TO.N,COL4*%
X135255000Y-54292500D03*
%TO.P,U1,12,B5*%
%TO.N,COL5*%
X135255000Y-56832500D03*
%TO.P,U1,13,B6*%
%TO.N,COL6*%
X150495000Y-56832500D03*
%TO.P,U1,14,B2*%
%TO.N,COL7*%
X150495000Y-54292500D03*
%TO.P,U1,15,B3*%
%TO.N,COL8*%
X150495000Y-51752500D03*
%TO.P,U1,16,B1*%
%TO.N,COL9*%
X150495000Y-49212500D03*
%TO.P,U1,17,F7*%
%TO.N,ROW3*%
X150495000Y-46672500D03*
%TO.P,U1,18,F6*%
%TO.N,ROW2*%
X150495000Y-44132500D03*
%TO.P,U1,19,F5*%
%TO.N,ROW1*%
X150495000Y-41592500D03*
%TO.P,U1,20,F4*%
%TO.N,ROW0*%
X150495000Y-39052500D03*
%TO.P,U1,21,VCC*%
%TO.N,unconnected-(U1-VCC-Pad21)*%
X150495000Y-36512500D03*
%TO.P,U1,22,RST*%
%TO.N,RESET*%
X150495000Y-33972500D03*
%TO.P,U1,23,GND*%
%TO.N,GND*%
X150495000Y-31432500D03*
%TO.P,U1,24,RAW*%
%TO.N,+5V*%
X150495000Y-28892500D03*
%TD*%
D10*
%TO.P,SW12,*%
%TO.N,*%
X99275000Y-66675000D03*
D11*
X99695000Y-66675000D03*
X109855000Y-66675000D03*
D10*
X110275000Y-66675000D03*
D12*
%TO.P,SW12,1,1*%
%TO.N,ROW1*%
X99674999Y-70574999D03*
D13*
X100964999Y-64134999D03*
D12*
%TO.P,SW12,2,2*%
%TO.N,Net-(D11-A)*%
X104774999Y-72574999D03*
D13*
X107314999Y-61594999D03*
%TD*%
D10*
%TO.P,SW4,*%
%TO.N,*%
X66675000Y-81700000D03*
D11*
X66675000Y-81280000D03*
X66675000Y-71120000D03*
D10*
X66675000Y-70700000D03*
D14*
%TO.P,SW4,1,1*%
%TO.N,ROW2*%
X70574999Y-81299999D03*
D15*
X64134999Y-80009999D03*
D14*
%TO.P,SW4,2,2*%
%TO.N,Net-(D3-A)*%
X72574999Y-76199999D03*
D15*
X61594999Y-73659999D03*
%TD*%
D10*
%TO.P,SW11,*%
%TO.N,*%
X108800000Y-47625000D03*
D11*
X109220000Y-47625000D03*
X119380000Y-47625000D03*
D10*
X119800000Y-47625000D03*
D12*
%TO.P,SW11,1,1*%
%TO.N,ROW0*%
X109199999Y-51524999D03*
D13*
X110489999Y-45084999D03*
D12*
%TO.P,SW11,2,2*%
%TO.N,Net-(D10-A)*%
X114299999Y-53524999D03*
D13*
X116839999Y-42544999D03*
%TD*%
D17*
%TO.P,SW1,1,1*%
%TO.N,GND*%
X239864899Y-40481249D03*
D18*
%TO.P,SW1,2,2*%
%TO.N,RESET*%
X233362500Y-40481250D03*
%TD*%
D10*
%TO.P,SW38,*%
%TO.N,*%
X213575000Y-66675000D03*
D11*
X213995000Y-66675000D03*
X224155000Y-66675000D03*
D10*
X224575000Y-66675000D03*
D12*
%TO.P,SW38,1,1*%
%TO.N,ROW1*%
X213974999Y-70574999D03*
D13*
X215264999Y-64134999D03*
D12*
%TO.P,SW38,2,2*%
%TO.N,Net-(D37-A)*%
X219074999Y-72574999D03*
D13*
X221614999Y-61594999D03*
%TD*%
D10*
%TO.P,SW2,*%
%TO.N,*%
X70700000Y-47625000D03*
D11*
X71120000Y-47625000D03*
X81280000Y-47625000D03*
D10*
X81700000Y-47625000D03*
D12*
%TO.P,SW2,1,1*%
%TO.N,ROW0*%
X71099999Y-51524999D03*
D13*
X72389999Y-45084999D03*
D12*
%TO.P,SW2,2,2*%
%TO.N,Net-(D1-A)*%
X76199999Y-53524999D03*
D13*
X78739999Y-42544999D03*
%TD*%
D10*
%TO.P,SW35,*%
%TO.N,*%
X194525000Y-85725000D03*
D11*
X194945000Y-85725000D03*
X205105000Y-85725000D03*
D10*
X205525000Y-85725000D03*
D12*
%TO.P,SW35,1,1*%
%TO.N,ROW2*%
X194924999Y-89624999D03*
D13*
X196214999Y-83184999D03*
D12*
%TO.P,SW35,2,2*%
%TO.N,Net-(D34-A)*%
X200024999Y-91624999D03*
D13*
X202564999Y-80644999D03*
%TD*%
D10*
%TO.P,SW23,*%
%TO.N,*%
X118325000Y-123825000D03*
D11*
X118745000Y-123825000D03*
X128905000Y-123825000D03*
D10*
X129325000Y-123825000D03*
D12*
%TO.P,SW23,1,1*%
%TO.N,ROW3*%
X118724999Y-127724999D03*
D13*
X120014999Y-121284999D03*
D12*
%TO.P,SW23,2,2*%
%TO.N,Net-(D22-A)*%
X123824999Y-129724999D03*
D13*
X126364999Y-118744999D03*
%TD*%
D10*
%TO.P,SW25,*%
%TO.N,*%
X165950000Y-47625000D03*
D11*
X166370000Y-47625000D03*
X176530000Y-47625000D03*
D10*
X176950000Y-47625000D03*
D12*
%TO.P,SW25,1,1*%
%TO.N,ROW0*%
X166349999Y-51524999D03*
D13*
X167639999Y-45084999D03*
D12*
%TO.P,SW25,2,2*%
%TO.N,Net-(D24-A)*%
X171449999Y-53524999D03*
D13*
X173989999Y-42544999D03*
%TD*%
D10*
%TO.P,SW30,*%
%TO.N,*%
X175475000Y-66675000D03*
D11*
X175895000Y-66675000D03*
X186055000Y-66675000D03*
D10*
X186475000Y-66675000D03*
D12*
%TO.P,SW30,1,1*%
%TO.N,ROW1*%
X175874999Y-70574999D03*
D13*
X177164999Y-64134999D03*
D12*
%TO.P,SW30,2,2*%
%TO.N,Net-(D29-A)*%
X180974999Y-72574999D03*
D13*
X183514999Y-61594999D03*
%TD*%
D10*
%TO.P,SW43,*%
%TO.N,*%
X232625000Y-85725000D03*
D11*
X233045000Y-85725000D03*
X243205000Y-85725000D03*
D10*
X243625000Y-85725000D03*
D12*
%TO.P,SW43,1,1*%
%TO.N,ROW2*%
X233024999Y-89624999D03*
D13*
X234314999Y-83184999D03*
D12*
%TO.P,SW43,2,2*%
%TO.N,Net-(D42-A)*%
X238124999Y-91624999D03*
D13*
X240664999Y-80644999D03*
%TD*%
D10*
%TO.P,SW8,*%
%TO.N,*%
X80225000Y-66675000D03*
D11*
X80645000Y-66675000D03*
X90805000Y-66675000D03*
D10*
X91225000Y-66675000D03*
D12*
%TO.P,SW8,1,1*%
%TO.N,ROW1*%
X80624999Y-70574999D03*
D13*
X81914999Y-64134999D03*
D12*
%TO.P,SW8,2,2*%
%TO.N,Net-(D7-A)*%
X85724999Y-72574999D03*
D13*
X88264999Y-61594999D03*
%TD*%
D10*
%TO.P,SW13,*%
%TO.N,*%
X99275000Y-85725000D03*
D11*
X99695000Y-85725000D03*
X109855000Y-85725000D03*
D10*
X110275000Y-85725000D03*
D12*
%TO.P,SW13,1,1*%
%TO.N,ROW2*%
X99674999Y-89624999D03*
D13*
X100964999Y-83184999D03*
D12*
%TO.P,SW13,2,2*%
%TO.N,Net-(D12-A)*%
X104774999Y-91624999D03*
D13*
X107314999Y-80644999D03*
%TD*%
D10*
%TO.P,SW18,*%
%TO.N,*%
X118325000Y-85725000D03*
D11*
X118745000Y-85725000D03*
X128905000Y-85725000D03*
D10*
X129325000Y-85725000D03*
D12*
%TO.P,SW18,1,1*%
%TO.N,ROW2*%
X118724999Y-89624999D03*
D13*
X120014999Y-83184999D03*
D12*
%TO.P,SW18,2,2*%
%TO.N,Net-(D17-A)*%
X123824999Y-91624999D03*
D13*
X126364999Y-80644999D03*
%TD*%
D19*
%TO.P,D27,1,K*%
%TO.N,COL4*%
X152399999Y-117633749D03*
D20*
%TO.P,D27,2,A*%
%TO.N,Net-(D27-A)*%
X152399999Y-125253749D03*
%TD*%
D19*
%TO.P,D41,1,K*%
%TO.N,COL9*%
X228599999Y-65246249D03*
D20*
%TO.P,D41,2,A*%
%TO.N,Net-(D41-A)*%
X228599999Y-72866249D03*
%TD*%
D19*
%TO.P,D33,1,K*%
%TO.N,COL7*%
X190499999Y-65246249D03*
D20*
%TO.P,D33,2,A*%
%TO.N,Net-(D33-A)*%
X190499999Y-72866249D03*
%TD*%
D19*
%TO.P,D30,1,K*%
%TO.N,COL6*%
X190499999Y-84296249D03*
D20*
%TO.P,D30,2,A*%
%TO.N,Net-(D30-A)*%
X190499999Y-91916249D03*
%TD*%
D19*
%TO.P,D31,1,K*%
%TO.N,COL5*%
X171449999Y-117633749D03*
D20*
%TO.P,D31,2,A*%
%TO.N,Net-(D31-A)*%
X171449999Y-125253749D03*
%TD*%
D19*
%TO.P,D12,1,K*%
%TO.N,COL2*%
X114299999Y-84296249D03*
D20*
%TO.P,D12,2,A*%
%TO.N,Net-(D12-A)*%
X114299999Y-91916249D03*
%TD*%
D19*
%TO.P,D22,1,K*%
%TO.N,COL3*%
X133349999Y-117633749D03*
D20*
%TO.P,D22,2,A*%
%TO.N,Net-(D22-A)*%
X133349999Y-125253749D03*
%TD*%
D19*
%TO.P,D42,1,K*%
%TO.N,COL9*%
X234314999Y-76199999D03*
D20*
%TO.P,D42,2,A*%
%TO.N,Net-(D42-A)*%
X241934999Y-76199999D03*
%TD*%
D19*
%TO.P,D37,1,K*%
%TO.N,COL8*%
X209549999Y-65246249D03*
D20*
%TO.P,D37,2,A*%
%TO.N,Net-(D37-A)*%
X209549999Y-72866249D03*
%TD*%
D19*
%TO.P,D1,1,K*%
%TO.N,COL0*%
X88106249Y-51434999D03*
D20*
%TO.P,D1,2,A*%
%TO.N,Net-(D1-A)*%
X88106249Y-43814999D03*
%TD*%
D19*
%TO.P,D17,1,K*%
%TO.N,COL3*%
X119379999Y-76199999D03*
D20*
%TO.P,D17,2,A*%
%TO.N,Net-(D17-A)*%
X126999999Y-76199999D03*
%TD*%
D19*
%TO.P,D29,1,K*%
%TO.N,COL6*%
X171449999Y-65246249D03*
D20*
%TO.P,D29,2,A*%
%TO.N,Net-(D29-A)*%
X171449999Y-72866249D03*
%TD*%
D21*
%TO.P,J3,1,Pin_1*%
%TO.N,GND*%
X227329999Y-58419999D03*
%TD*%
D19*
%TO.P,D38,1,K*%
%TO.N,COL8*%
X228599999Y-79533749D03*
D20*
%TO.P,D38,2,A*%
%TO.N,Net-(D38-A)*%
X228599999Y-87153749D03*
%TD*%
D19*
%TO.P,D25,1,K*%
%TO.N,COL5*%
X158114999Y-76199999D03*
D20*
%TO.P,D25,2,A*%
%TO.N,Net-(D25-A)*%
X165734999Y-76199999D03*
%TD*%
D19*
%TO.P,D3,1,K*%
%TO.N,COL0*%
X76199999Y-68579999D03*
D20*
%TO.P,D3,2,A*%
%TO.N,Net-(D3-A)*%
X76199999Y-76199999D03*
%TD*%
D21*
%TO.P,J1,1,Pin_1*%
%TO.N,+5V*%
X231139999Y-58419999D03*
%TD*%
D19*
%TO.P,D26,1,K*%
%TO.N,COL5*%
X171449999Y-84296249D03*
D20*
%TO.P,D26,2,A*%
%TO.N,Net-(D26-A)*%
X171449999Y-91916249D03*
%TD*%
D19*
%TO.P,D16,1,K*%
%TO.N,COL3*%
X114299999Y-65246249D03*
D20*
%TO.P,D16,2,A*%
%TO.N,Net-(D16-A)*%
X114299999Y-72866249D03*
%TD*%
D21*
%TO.P,J2,1,Pin_1*%
%TO.N,LED_DAT*%
X234949999Y-58419999D03*
%TD*%
D19*
%TO.P,D11,1,K*%
%TO.N,COL2*%
X95249999Y-65246249D03*
D20*
%TO.P,D11,2,A*%
%TO.N,Net-(D11-A)*%
X95249999Y-72866249D03*
%TD*%
D19*
%TO.P,D7,1,K*%
%TO.N,COL1*%
X89534999Y-76199999D03*
D20*
%TO.P,D7,2,A*%
%TO.N,Net-(D7-A)*%
X81914999Y-76199999D03*
%TD*%
D19*
%TO.P,D24,1,K*%
%TO.N,COL5*%
X183356249Y-52069999D03*
D20*
%TO.P,D24,2,A*%
%TO.N,Net-(D24-A)*%
X183356249Y-44449999D03*
%TD*%
D19*
%TO.P,D8,1,K*%
%TO.N,COL1*%
X95249999Y-84296249D03*
D20*
%TO.P,D8,2,A*%
%TO.N,Net-(D8-A)*%
X95249999Y-91916249D03*
%TD*%
D19*
%TO.P,D32,1,K*%
%TO.N,COL7*%
X196849999Y-52069999D03*
D20*
%TO.P,D32,2,A*%
%TO.N,Net-(D32-A)*%
X196849999Y-44449999D03*
%TD*%
D19*
%TO.P,D10,1,K*%
%TO.N,COL2*%
X126206249Y-51434999D03*
D20*
%TO.P,D10,2,A*%
%TO.N,Net-(D10-A)*%
X126206249Y-43814999D03*
%TD*%
D19*
%TO.P,D34,1,K*%
%TO.N,COL7*%
X209549999Y-84296249D03*
D20*
%TO.P,D34,2,A*%
%TO.N,Net-(D34-A)*%
X209549999Y-91916249D03*
%TD*%
D19*
%TO.P,D35,1,K*%
%TO.N,COL6*%
X187166249Y-114299999D03*
D20*
%TO.P,D35,2,A*%
%TO.N,Net-(D35-A)*%
X179546249Y-114299999D03*
%TD*%
D19*
%TO.P,D18,1,K*%
%TO.N,COL2*%
X114299999Y-117633749D03*
D20*
%TO.P,D18,2,A*%
%TO.N,Net-(D18-A)*%
X114299999Y-125253749D03*
%TD*%
D19*
%TO.P,D20,1,K*%
%TO.N,COL4*%
X153669999Y-80009999D03*
D20*
%TO.P,D20,2,A*%
%TO.N,Net-(D20-A)*%
X153669999Y-72389999D03*
%TD*%
D22*
%TO.N,COL0*%
X116078000Y-55626000D02*
X124587000Y-47117000D01*
X127889000Y-47117000D02*
X130873500Y-44132500D01*
X124587000Y-47117000D02*
X127889000Y-47117000D01*
X88106250Y-51435000D02*
X94996000Y-51435000D01*
X108585000Y-55626000D02*
X116078000Y-55626000D01*
X94996000Y-51435000D02*
X96393000Y-52832000D01*
X105791000Y-52832000D02*
X108585000Y-55626000D01*
X130873500Y-44132500D02*
X135255000Y-44132500D01*
X96393000Y-52832000D02*
X105791000Y-52832000D01*
%TO.N,Net-(D1-A)*%
X78740000Y-42545000D02*
X86836250Y-42545000D01*
X78994000Y-50788000D02*
X76220000Y-53562000D01*
X78994000Y-42816000D02*
X78994000Y-50788000D01*
X78760000Y-42582000D02*
X78994000Y-42816000D01*
X86836250Y-42545000D02*
X88106250Y-43815000D01*
%TO.N,Net-(D3-A)*%
X61595000Y-73660000D02*
X62103000Y-73152000D01*
X62103000Y-73152000D02*
X69527000Y-73152000D01*
X72575000Y-76200000D02*
X76200000Y-76200000D01*
X69527000Y-73152000D02*
X72575000Y-76200000D01*
%TO.N,COL1*%
X95250000Y-84296250D02*
X95250000Y-81915000D01*
X95250000Y-81915000D02*
X89535000Y-76200000D01*
%TO.N,Net-(D7-A)*%
X85540000Y-72575000D02*
X85725000Y-72575000D01*
X88265000Y-70235000D02*
X85925000Y-72575000D01*
X81915000Y-76200000D02*
X85540000Y-72575000D01*
X85925000Y-72575000D02*
X85725000Y-72575000D01*
X88265000Y-61595000D02*
X88265000Y-70235000D01*
%TO.N,Net-(D8-A)*%
X88265000Y-89322000D02*
X85925000Y-91662000D01*
X95250000Y-91916250D02*
X86016250Y-91916250D01*
X85540000Y-91662000D02*
X85725000Y-91662000D01*
X88265000Y-80682000D02*
X88265000Y-89322000D01*
X86016250Y-91916250D02*
X85725000Y-91625000D01*
X85925000Y-91662000D02*
X85725000Y-91662000D01*
%TO.N,Net-(D10-A)*%
X116840000Y-42545000D02*
X124936250Y-42545000D01*
X114520000Y-53562000D02*
X114320000Y-53562000D01*
X116860000Y-51222000D02*
X114520000Y-53562000D01*
X116860000Y-42582000D02*
X116860000Y-51222000D01*
X124936250Y-42545000D02*
X126206250Y-43815000D01*
%TO.N,Net-(D11-A)*%
X104483750Y-72866250D02*
X104775000Y-72575000D01*
X107315000Y-61595000D02*
X107586362Y-61866362D01*
X107586362Y-69763638D02*
X104775000Y-72575000D01*
X95250000Y-72866250D02*
X104483750Y-72866250D01*
X107586362Y-61866362D02*
X107586362Y-69763638D01*
%TO.N,Net-(D12-A)*%
X104995000Y-91662000D02*
X104795000Y-91662000D01*
X104610000Y-91662000D02*
X104795000Y-91662000D01*
X107335000Y-80682000D02*
X107335000Y-89322000D01*
X105066250Y-91916250D02*
X104775000Y-91625000D01*
X114300000Y-91916250D02*
X105066250Y-91916250D01*
X107335000Y-89322000D02*
X104995000Y-91662000D01*
%TO.N,Net-(D16-A)*%
X114300000Y-72866250D02*
X123533750Y-72866250D01*
X126500000Y-69900000D02*
X123825000Y-72575000D01*
X123533750Y-72866250D02*
X123825000Y-72575000D01*
X126500000Y-61730000D02*
X126500000Y-69900000D01*
X126365000Y-61595000D02*
X126500000Y-61730000D01*
%TO.N,Net-(D17-A)*%
X126385000Y-89322000D02*
X124045000Y-91662000D01*
X124045000Y-91662000D02*
X123845000Y-91662000D01*
X126385000Y-80682000D02*
X126385000Y-89322000D01*
X123660000Y-91662000D02*
X123845000Y-91662000D01*
X126365000Y-76835000D02*
X127000000Y-76200000D01*
X126365000Y-80645000D02*
X126365000Y-76835000D01*
%TO.N,Net-(D18-A)*%
X104775000Y-129725000D02*
X107315000Y-127185000D01*
X112368750Y-127185000D02*
X107315000Y-127185000D01*
X114300000Y-125253750D02*
X112368750Y-127185000D01*
X107315000Y-127185000D02*
X107315000Y-118745000D01*
%TO.N,Net-(D20-A)*%
X148775000Y-76200000D02*
X149860000Y-76200000D01*
X138303000Y-73152000D02*
X145727000Y-73152000D01*
X137795000Y-73660000D02*
X138303000Y-73152000D01*
X149860000Y-76200000D02*
X153670000Y-72390000D01*
X145727000Y-73152000D02*
X148775000Y-76200000D01*
%TO.N,Net-(D22-A)*%
X126365000Y-127135000D02*
X131468750Y-127135000D01*
X131468750Y-127135000D02*
X133350000Y-125253750D01*
X126365000Y-127185000D02*
X126365000Y-127135000D01*
X126365000Y-127135000D02*
X126365000Y-118745000D01*
X123825000Y-129725000D02*
X126365000Y-127185000D01*
%TO.N,COL5*%
X149243500Y-42907500D02*
X135318500Y-56832500D01*
X183356250Y-52070000D02*
X181102000Y-52070000D01*
X167132000Y-56896000D02*
X153143500Y-42907500D01*
X176276000Y-56896000D02*
X167132000Y-56896000D01*
X153143500Y-42907500D02*
X149243500Y-42907500D01*
X135318500Y-56832500D02*
X135255000Y-56832500D01*
X181102000Y-52070000D02*
X176276000Y-56896000D01*
%TO.N,Net-(D24-A)*%
X174010000Y-42582000D02*
X174010000Y-51222000D01*
X174010000Y-51222000D02*
X171670000Y-53562000D01*
X173990000Y-42545000D02*
X177419000Y-42545000D01*
X179324000Y-44450000D02*
X183356250Y-44450000D01*
X177419000Y-42545000D02*
X179324000Y-44450000D01*
X171670000Y-53562000D02*
X171470000Y-53562000D01*
X171285000Y-53562000D02*
X171470000Y-53562000D01*
%TO.N,Net-(D25-A)*%
X164485000Y-70272000D02*
X162145000Y-72612000D01*
X162110000Y-72575000D02*
X165735000Y-76200000D01*
X161925000Y-72575000D02*
X162110000Y-72575000D01*
X162145000Y-72612000D02*
X161945000Y-72612000D01*
X164485000Y-61632000D02*
X164485000Y-70272000D01*
X161760000Y-72612000D02*
X161945000Y-72612000D01*
%TO.N,Net-(D26-A)*%
X164485000Y-80682000D02*
X164485000Y-89322000D01*
X162145000Y-91662000D02*
X161945000Y-91662000D01*
X162216250Y-91916250D02*
X161925000Y-91625000D01*
X161760000Y-91662000D02*
X161945000Y-91662000D01*
X171450000Y-91916250D02*
X162216250Y-91916250D01*
X164485000Y-89322000D02*
X162145000Y-91662000D01*
%TO.N,Net-(D27-A)*%
X145390000Y-127210000D02*
X145390000Y-127160000D01*
X142850000Y-129750000D02*
X145390000Y-127210000D01*
X145390000Y-127160000D02*
X145390000Y-118770000D01*
X150493750Y-127160000D02*
X152375000Y-125278750D01*
X145390000Y-127160000D02*
X150493750Y-127160000D01*
%TO.N,COL6*%
X166147750Y-59944000D02*
X171450000Y-65246250D01*
X153606500Y-56832500D02*
X156718000Y-59944000D01*
X150495000Y-56832500D02*
X153606500Y-56832500D01*
X156718000Y-59944000D02*
X166147750Y-59944000D01*
%TO.N,Net-(D29-A)*%
X171450000Y-72866250D02*
X180683750Y-72866250D01*
X180810000Y-72612000D02*
X180995000Y-72612000D01*
X183535000Y-61632000D02*
X183535000Y-70272000D01*
X181195000Y-72612000D02*
X180995000Y-72612000D01*
X183535000Y-70272000D02*
X181195000Y-72612000D01*
X180683750Y-72866250D02*
X180975000Y-72575000D01*
%TO.N,Net-(D30-A)*%
X190500000Y-91916250D02*
X181266250Y-91916250D01*
X180810000Y-91662000D02*
X180995000Y-91662000D01*
X183535000Y-80682000D02*
X183535000Y-89322000D01*
X181266250Y-91916250D02*
X180975000Y-91625000D01*
X183535000Y-89322000D02*
X181195000Y-91662000D01*
X181195000Y-91662000D02*
X180995000Y-91662000D01*
%TO.N,Net-(D31-A)*%
X164390000Y-127160000D02*
X169493750Y-127160000D01*
X161850000Y-129750000D02*
X164390000Y-127210000D01*
X164390000Y-127160000D02*
X164390000Y-118770000D01*
X164390000Y-127210000D02*
X164390000Y-127160000D01*
X169493750Y-127160000D02*
X171375000Y-125278750D01*
%TO.N,COL7*%
X190500000Y-65246250D02*
X184689750Y-59436000D01*
X155564000Y-58153604D02*
X155564000Y-56250000D01*
X155564000Y-56250000D02*
X153606500Y-54292500D01*
X153606500Y-54292500D02*
X150495000Y-54292500D01*
X184689750Y-59436000D02*
X156846396Y-59436000D01*
X156846396Y-59436000D02*
X155564000Y-58153604D01*
%TO.N,Net-(D32-A)*%
X196850000Y-44450000D02*
X202049441Y-44450000D01*
X212110000Y-42582000D02*
X212110000Y-51222000D01*
X203954441Y-42545000D02*
X212090000Y-42545000D01*
X202049441Y-44450000D02*
X203954441Y-42545000D01*
X212110000Y-51222000D02*
X209770000Y-53562000D01*
%TO.N,Net-(D33-A)*%
X190500000Y-72866250D02*
X199733750Y-72866250D01*
X200245000Y-72612000D02*
X200045000Y-72612000D01*
X202585000Y-70272000D02*
X200245000Y-72612000D01*
X202585000Y-61632000D02*
X202585000Y-70272000D01*
X199733750Y-72866250D02*
X200025000Y-72575000D01*
X199860000Y-72612000D02*
X200045000Y-72612000D01*
%TO.N,Net-(D34-A)*%
X200245000Y-91662000D02*
X200045000Y-91662000D01*
X209550000Y-91916250D02*
X200316250Y-91916250D01*
X199860000Y-91662000D02*
X200045000Y-91662000D01*
X202585000Y-89322000D02*
X200245000Y-91662000D01*
X202585000Y-80682000D02*
X202585000Y-89322000D01*
X200316250Y-91916250D02*
X200025000Y-91625000D01*
%TO.N,Net-(D35-A)*%
X179546250Y-114300000D02*
X183515000Y-118268750D01*
X183515000Y-118268750D02*
X183515000Y-118745000D01*
X180850000Y-129750000D02*
X183390000Y-127210000D01*
X183390000Y-127160000D02*
X183390000Y-118770000D01*
X183390000Y-127210000D02*
X183390000Y-127160000D01*
%TO.N,COL8*%
X156974792Y-58928000D02*
X203231750Y-58928000D01*
X150495000Y-51752500D02*
X153606500Y-51752500D01*
X153606500Y-51752500D02*
X156014000Y-54160000D01*
X203231750Y-58928000D02*
X209550000Y-65246250D01*
X156014000Y-57967208D02*
X156974792Y-58928000D01*
X156014000Y-54160000D02*
X156014000Y-57967208D01*
%TO.N,Net-(D37-A)*%
X221615000Y-61595000D02*
X221996000Y-61976000D01*
X221996000Y-61976000D02*
X221996000Y-69654000D01*
X221996000Y-69654000D02*
X219075000Y-72575000D01*
X218783750Y-72866250D02*
X219075000Y-72575000D01*
X209550000Y-72866250D02*
X218783750Y-72866250D01*
%TO.N,Net-(D38-A)*%
X221635000Y-80555000D02*
X221635000Y-89195000D01*
X221635000Y-89195000D02*
X219295000Y-91535000D01*
X228600000Y-84709000D02*
X224536000Y-80645000D01*
X218910000Y-91535000D02*
X219095000Y-91535000D01*
X228600000Y-87153750D02*
X228600000Y-84709000D01*
X219295000Y-91535000D02*
X219095000Y-91535000D01*
X224536000Y-80645000D02*
X221615000Y-80645000D01*
%TO.N,COL9*%
X221773750Y-58420000D02*
X228600000Y-65246250D01*
X156464000Y-57780812D02*
X157103188Y-58420000D01*
X153860500Y-49212500D02*
X156464000Y-51816000D01*
X150495000Y-49212500D02*
X153860500Y-49212500D01*
X156464000Y-51816000D02*
X156464000Y-57780812D01*
X157103188Y-58420000D02*
X221773750Y-58420000D01*
%TO.N,Net-(D41-A)*%
X240685000Y-61632000D02*
X240685000Y-70272000D01*
X237960000Y-72612000D02*
X238145000Y-72612000D01*
X240685000Y-70272000D02*
X238345000Y-72612000D01*
X237833750Y-72866250D02*
X238125000Y-72575000D01*
X238345000Y-72612000D02*
X238145000Y-72612000D01*
X228600000Y-72866250D02*
X237833750Y-72866250D01*
%TO.N,Net-(D42-A)*%
X237960000Y-91662000D02*
X238145000Y-91662000D01*
X240685000Y-80682000D02*
X240685000Y-89322000D01*
X241935000Y-76200000D02*
X241935000Y-79375000D01*
X238345000Y-91662000D02*
X238145000Y-91662000D01*
X241935000Y-79375000D02*
X240665000Y-80645000D01*
X240685000Y-89322000D02*
X238345000Y-91662000D01*
%TO.N,GND*%
X227330000Y-53492400D02*
X227330000Y-58420000D01*
X239864900Y-40957500D02*
X227330000Y-53492400D01*
X239864900Y-40481250D02*
X239864900Y-40957500D01*
%TO.N,LED_DAT*%
X135255000Y-41592500D02*
X137731500Y-41592500D01*
X153797000Y-29083000D02*
X153797000Y-36830000D01*
X153797000Y-36830000D02*
X155575000Y-38608000D01*
X155575000Y-38608000D02*
X241300000Y-38608000D01*
X241300000Y-38608000D02*
X243586000Y-40894000D01*
X243586000Y-40894000D02*
X243586000Y-49784000D01*
X137731500Y-41592500D02*
X145669000Y-33655000D01*
X243586000Y-49784000D02*
X234950000Y-58420000D01*
X145669000Y-29972000D02*
X148590000Y-27051000D01*
X151765000Y-27051000D02*
X153797000Y-29083000D01*
X148590000Y-27051000D02*
X151765000Y-27051000D01*
X145669000Y-33655000D02*
X145669000Y-29972000D01*
%TO.N,RESET*%
X177292000Y-40894000D02*
X170688000Y-40894000D01*
X186569788Y-43307000D02*
X179705000Y-43307000D01*
X191643000Y-40894000D02*
X188982788Y-40894000D01*
X194056000Y-43307000D02*
X191643000Y-40894000D01*
X226853750Y-40481250D02*
X224028000Y-43307000D01*
X157861000Y-43307000D02*
X152400000Y-37846000D01*
X215900000Y-40894000D02*
X203581000Y-40894000D01*
X152400000Y-35052000D02*
X151320500Y-33972500D01*
X233362500Y-40481250D02*
X226853750Y-40481250D01*
X203581000Y-40894000D02*
X201168000Y-43307000D01*
X152400000Y-37846000D02*
X152400000Y-35052000D01*
X201168000Y-43307000D02*
X194056000Y-43307000D01*
X188982788Y-40894000D02*
X186569788Y-43307000D01*
X151320500Y-33972500D02*
X150495000Y-33972500D01*
X224028000Y-43307000D02*
X218313000Y-43307000D01*
X170688000Y-40894000D02*
X168275000Y-43307000D01*
X168275000Y-43307000D02*
X157861000Y-43307000D01*
X218313000Y-43307000D02*
X215900000Y-40894000D01*
X179705000Y-43307000D02*
X177292000Y-40894000D01*
%TO.N,ROW0*%
X110845000Y-45457000D02*
X110510000Y-45122000D01*
X98134000Y-51525000D02*
X109200000Y-51525000D01*
X138938000Y-42926000D02*
X142811500Y-39052500D01*
X95631000Y-49022000D02*
X98134000Y-51525000D01*
X71100000Y-51525000D02*
X71100000Y-53447000D01*
X116840000Y-38735000D02*
X129286000Y-38735000D01*
X78232000Y-56261000D02*
X85471000Y-49022000D01*
X204470000Y-51562000D02*
X206095000Y-49937000D01*
X136125500Y-42907500D02*
X136144000Y-42926000D01*
X109220000Y-51562000D02*
X110845000Y-49937000D01*
X169545000Y-56007000D02*
X175006000Y-56007000D01*
X206095000Y-49937000D02*
X206095000Y-45457000D01*
X167995000Y-45457000D02*
X167660000Y-45122000D01*
X129286000Y-38735000D02*
X133458500Y-42907500D01*
X85471000Y-49022000D02*
X95631000Y-49022000D01*
X136144000Y-42926000D02*
X138938000Y-42926000D01*
X72745000Y-49937000D02*
X72745000Y-45457000D01*
X142811500Y-39052500D02*
X150495000Y-39052500D01*
X71120000Y-51562000D02*
X72745000Y-49937000D01*
X166350000Y-52812000D02*
X169545000Y-56007000D01*
X167995000Y-49937000D02*
X167995000Y-45457000D01*
X110845000Y-49937000D02*
X110845000Y-45457000D01*
X200877000Y-51525000D02*
X204450000Y-51525000D01*
X71100000Y-53447000D02*
X73914000Y-56261000D01*
X166350000Y-51525000D02*
X166350000Y-52812000D01*
X150495000Y-39052500D02*
X152970104Y-39052500D01*
X166312000Y-43757000D02*
X167640000Y-45085000D01*
X166370000Y-51562000D02*
X167995000Y-49937000D01*
X157674604Y-43757000D02*
X166312000Y-43757000D01*
X110490000Y-45085000D02*
X116840000Y-38735000D01*
X152970104Y-39052500D02*
X157674604Y-43757000D01*
X72745000Y-45457000D02*
X72410000Y-45122000D01*
X206095000Y-45457000D02*
X205760000Y-45122000D01*
X73914000Y-56261000D02*
X78232000Y-56261000D01*
X133458500Y-42907500D02*
X136125500Y-42907500D01*
X181229000Y-49784000D02*
X199136000Y-49784000D01*
X199136000Y-49784000D02*
X200877000Y-51525000D01*
X175006000Y-56007000D02*
X181229000Y-49784000D01*
%TO.N,ROW2*%
X133858000Y-93980000D02*
X138213000Y-89625000D01*
X80625000Y-89662000D02*
X82250000Y-88037000D01*
X84582000Y-93980000D02*
X99695000Y-93980000D01*
X230378000Y-94488000D02*
X233025000Y-91841000D01*
X177520000Y-83557000D02*
X177185000Y-83222000D01*
X196570000Y-83557000D02*
X196235000Y-83222000D01*
X175895000Y-89662000D02*
X177520000Y-88037000D01*
X215620000Y-83430000D02*
X215285000Y-83095000D01*
X82250000Y-88037000D02*
X82250000Y-83557000D01*
X213975000Y-93980000D02*
X213975000Y-89625000D01*
X80625000Y-90023000D02*
X84582000Y-93980000D01*
X64643000Y-79502000D02*
X68777000Y-79502000D01*
X158470000Y-88037000D02*
X158470000Y-83557000D01*
X233025000Y-91841000D02*
X233025000Y-89625000D01*
X99695000Y-89662000D02*
X101320000Y-88037000D01*
X118725000Y-93980000D02*
X133858000Y-93980000D01*
X82250000Y-83557000D02*
X81915000Y-83222000D01*
X215620000Y-87910000D02*
X215620000Y-83430000D01*
X194925000Y-89625000D02*
X194925000Y-93960000D01*
X70575000Y-81300000D02*
X80030000Y-81300000D01*
X213995000Y-89535000D02*
X215620000Y-87910000D01*
X156825000Y-89625000D02*
X156825000Y-91293000D01*
X175895000Y-93980000D02*
X194945000Y-93980000D01*
X175875000Y-89625000D02*
X175875000Y-93960000D01*
X227076000Y-94488000D02*
X230378000Y-94488000D01*
X234670000Y-83557000D02*
X234335000Y-83222000D01*
X138213000Y-89625000D02*
X156825000Y-89625000D01*
X226568000Y-93980000D02*
X227076000Y-94488000D01*
X158470000Y-83557000D02*
X158135000Y-83222000D01*
X99675000Y-89625000D02*
X99675000Y-93960000D01*
X99695000Y-93980000D02*
X118725000Y-93980000D01*
X101320000Y-83557000D02*
X100985000Y-83222000D01*
X68777000Y-79502000D02*
X70575000Y-81300000D01*
X194925000Y-93960000D02*
X194945000Y-93980000D01*
X99675000Y-93960000D02*
X99695000Y-93980000D01*
X80030000Y-81300000D02*
X81915000Y-83185000D01*
X213975000Y-93980000D02*
X226568000Y-93980000D01*
X175875000Y-93960000D02*
X175895000Y-93980000D01*
X177520000Y-88037000D02*
X177520000Y-83557000D01*
X194945000Y-89662000D02*
X196570000Y-88037000D01*
X194945000Y-93980000D02*
X213975000Y-93980000D01*
X120370000Y-88037000D02*
X120370000Y-83557000D01*
X101320000Y-88037000D02*
X101320000Y-83557000D01*
X80625000Y-89625000D02*
X80625000Y-90023000D01*
X234670000Y-88037000D02*
X234670000Y-83557000D01*
X120370000Y-83557000D02*
X120035000Y-83222000D01*
X159512000Y-93980000D02*
X175895000Y-93980000D01*
X156845000Y-89662000D02*
X158470000Y-88037000D01*
X118745000Y-89662000D02*
X120370000Y-88037000D01*
X118725000Y-93980000D02*
X118725000Y-89625000D01*
X156825000Y-91293000D02*
X159512000Y-93980000D01*
X64135000Y-80010000D02*
X64643000Y-79502000D01*
X233045000Y-89662000D02*
X234670000Y-88037000D01*
X196570000Y-88037000D02*
X196570000Y-83557000D01*
%TO.N,ROW1*%
X208317000Y-70575000D02*
X206629000Y-72263000D01*
X82250000Y-64470000D02*
X81915000Y-64135000D01*
X146775000Y-81300000D02*
X148443000Y-81300000D01*
X187579000Y-72390000D02*
X187579000Y-77851000D01*
X206629000Y-77851000D02*
X217678000Y-77851000D01*
X112522000Y-71607022D02*
X112522000Y-73787000D01*
X196570000Y-68987000D02*
X196570000Y-64507000D01*
X168910000Y-77724000D02*
X169037000Y-77851000D01*
X134239000Y-74549000D02*
X139700000Y-80010000D01*
X158470000Y-68987000D02*
X158470000Y-64507000D01*
X170344000Y-70575000D02*
X168910000Y-72009000D01*
X118725000Y-70575000D02*
X120250000Y-69050000D01*
X156845000Y-70612000D02*
X158470000Y-68987000D01*
X145231000Y-79756000D02*
X146775000Y-81300000D01*
X99675000Y-70575000D02*
X101250000Y-69000000D01*
X156825000Y-72918000D02*
X156825000Y-70575000D01*
X140589000Y-79756000D02*
X145231000Y-79756000D01*
X168910000Y-72009000D02*
X168910000Y-77724000D01*
X100965000Y-64135000D02*
X100965000Y-59309000D01*
X158470000Y-64507000D02*
X158135000Y-64172000D01*
X206629000Y-72263000D02*
X206629000Y-77851000D01*
X101250000Y-64420000D02*
X100965000Y-64135000D01*
X140335000Y-80010000D02*
X140589000Y-79756000D01*
X156825000Y-70575000D02*
X157225000Y-70575000D01*
X177520000Y-68987000D02*
X177520000Y-64507000D01*
X164501000Y-77851000D02*
X169037000Y-77851000D01*
X215265000Y-64135000D02*
X215646000Y-64516000D01*
X208317000Y-70575000D02*
X213975000Y-70575000D01*
X86741000Y-59309000D02*
X100965000Y-59309000D01*
X234670000Y-64507000D02*
X234335000Y-64172000D01*
X101250000Y-69000000D02*
X101250000Y-64420000D01*
X120250000Y-69050000D02*
X120250000Y-64370000D01*
X118725000Y-70575000D02*
X113554022Y-70575000D01*
X196570000Y-64507000D02*
X196235000Y-64172000D01*
X217678000Y-77851000D02*
X224954000Y-70575000D01*
X120250000Y-64370000D02*
X120015000Y-64135000D01*
X115189000Y-59309000D02*
X120015000Y-64135000D01*
X234670000Y-68987000D02*
X234670000Y-64507000D01*
X189394000Y-70575000D02*
X187579000Y-72390000D01*
X194945000Y-70612000D02*
X196570000Y-68987000D01*
X82250000Y-68950000D02*
X82250000Y-64470000D01*
X100965000Y-59309000D02*
X115189000Y-59309000D01*
X215646000Y-68904000D02*
X213975000Y-70575000D01*
X157225000Y-70575000D02*
X164501000Y-77851000D01*
X233045000Y-70612000D02*
X234670000Y-68987000D01*
X148443000Y-81300000D02*
X156825000Y-72918000D01*
X113554022Y-70575000D02*
X112522000Y-71607022D01*
X169037000Y-77851000D02*
X187579000Y-77851000D01*
X175895000Y-70612000D02*
X177520000Y-68987000D01*
X194925000Y-70575000D02*
X189394000Y-70575000D01*
X187579000Y-77851000D02*
X206629000Y-77851000D01*
X175875000Y-70575000D02*
X170344000Y-70575000D01*
X224954000Y-70575000D02*
X233025000Y-70575000D01*
X215646000Y-64516000D02*
X215646000Y-68904000D01*
X81915000Y-64135000D02*
X86741000Y-59309000D01*
X139700000Y-80010000D02*
X140335000Y-80010000D01*
X113284000Y-74549000D02*
X134239000Y-74549000D01*
X177520000Y-64507000D02*
X177185000Y-64172000D01*
X112522000Y-73787000D02*
X113284000Y-74549000D01*
X80625000Y-70575000D02*
X82250000Y-68950000D01*
%TO.N,ROW3*%
X139275000Y-121545000D02*
X139040000Y-121310000D01*
X177275000Y-121545000D02*
X177040000Y-121310000D01*
X118750000Y-132500000D02*
X137750000Y-132500000D01*
X118725000Y-127725000D02*
X120250000Y-126200000D01*
X156825000Y-132425000D02*
X156750000Y-132500000D01*
X137750000Y-127750000D02*
X139275000Y-126225000D01*
X101250000Y-126150000D02*
X101250000Y-121570000D01*
X118725000Y-132475000D02*
X118750000Y-132500000D01*
X137750000Y-132500000D02*
X156750000Y-132500000D01*
X158275000Y-121545000D02*
X158040000Y-121310000D01*
X118725000Y-127725000D02*
X118725000Y-132475000D01*
X120250000Y-121520000D02*
X120015000Y-121285000D01*
X137775000Y-132475000D02*
X137750000Y-132500000D01*
X99675000Y-130675000D02*
X101500000Y-132500000D01*
X156750000Y-127750000D02*
X158275000Y-126225000D01*
X156750000Y-132500000D02*
X174000000Y-132500000D01*
X120250000Y-126200000D02*
X120250000Y-121520000D01*
X174000000Y-132500000D02*
X175875000Y-130625000D01*
X139275000Y-126225000D02*
X139275000Y-121545000D01*
X101500000Y-132500000D02*
X118750000Y-132500000D01*
X175750000Y-127750000D02*
X177275000Y-126225000D01*
X156825000Y-127725000D02*
X156825000Y-132425000D01*
X158275000Y-126225000D02*
X158275000Y-121545000D01*
X177275000Y-126225000D02*
X177275000Y-121545000D01*
X99675000Y-127725000D02*
X101250000Y-126150000D01*
X175875000Y-130625000D02*
X175875000Y-127725000D01*
X99675000Y-127725000D02*
X99675000Y-130675000D01*
X137775000Y-127725000D02*
X137775000Y-132475000D01*
X101250000Y-121570000D02*
X100965000Y-121285000D01*
%TD*%
M02*
