%TF.GenerationSoftware,KiCad,Pcbnew,(6.0.9)*%
%TF.CreationDate,2023-02-21T23:40:31+05:30*%
%TF.ProjectId,Peridot Steno,50657269-646f-4742-9053-74656e6f2e6b,rev?*%
%TF.SameCoordinates,Original*%
%TF.FileFunction,Copper,L1,Top*%
%TF.FilePolarity,Positive*%
%FSLAX46Y46*%
G04 Gerber Fmt 4.6, Leading zero omitted, Abs format (unit mm)*
G04 Created by KiCad (PCBNEW (6.0.9)) date 2023-02-21 23:40:31*
%MOMM*%
%LPD*%
G01*
G04 APERTURE LIST*
%TA.AperFunction,WasherPad*%
%ADD10C,1.900000*%
%TD*%
%TA.AperFunction,WasherPad*%
%ADD11C,2.100000*%
%TD*%
%TA.AperFunction,ComponentPad*%
%ADD12O,2.800000X2.000000*%
%TD*%
%TA.AperFunction,ComponentPad*%
%ADD13O,2.500000X2.000000*%
%TD*%
%TA.AperFunction,ComponentPad*%
%ADD14O,2.000000X2.500000*%
%TD*%
%TA.AperFunction,ComponentPad*%
%ADD15O,2.000000X2.800000*%
%TD*%
%TA.AperFunction,ComponentPad*%
%ADD16C,1.800000*%
%TD*%
%TA.AperFunction,ComponentPad*%
%ADD17R,1.752600X1.752600*%
%TD*%
%TA.AperFunction,ComponentPad*%
%ADD18C,1.752600*%
%TD*%
%TA.AperFunction,ComponentPad*%
%ADD19R,1.600000X1.600000*%
%TD*%
%TA.AperFunction,ComponentPad*%
%ADD20O,1.600000X1.600000*%
%TD*%
%TA.AperFunction,ComponentPad*%
%ADD21R,2.000000X2.000000*%
%TD*%
%TA.AperFunction,Conductor*%
%ADD22C,0.250000*%
%TD*%
G04 APERTURE END LIST*
D10*
%TO.P,SW26,*%
%TO.N,*%
X156845000Y-66675000D03*
D11*
X167425000Y-66675000D03*
D10*
X167005000Y-66675000D03*
D11*
X156425000Y-66675000D03*
D12*
%TO.P,SW26,1,1*%
%TO.N,ROW1*%
X156825000Y-70575000D03*
D13*
X158115000Y-64135000D03*
%TO.P,SW26,2,2*%
%TO.N,Net-(D25-Pad2)*%
X164465000Y-61595000D03*
D12*
X161925000Y-72575000D03*
%TD*%
D11*
%TO.P,SW19,*%
%TO.N,*%
X99275000Y-123825000D03*
D10*
X99695000Y-123825000D03*
D11*
X110275000Y-123825000D03*
D10*
X109855000Y-123825000D03*
D13*
%TO.P,SW19,1,1*%
%TO.N,ROW3*%
X100965000Y-121285000D03*
D12*
X99675000Y-127725000D03*
%TO.P,SW19,2,2*%
%TO.N,Net-(D18-Pad2)*%
X104775000Y-129725000D03*
D13*
X107315000Y-118745000D03*
%TD*%
D11*
%TO.P,SW17,*%
%TO.N,*%
X118325000Y-66675000D03*
D10*
X128905000Y-66675000D03*
D11*
X129325000Y-66675000D03*
D10*
X118745000Y-66675000D03*
D13*
%TO.P,SW17,1,1*%
%TO.N,ROW1*%
X120015000Y-64135000D03*
D12*
X118725000Y-70575000D03*
%TO.P,SW17,2,2*%
%TO.N,Net-(D16-Pad2)*%
X123825000Y-72575000D03*
D13*
X126365000Y-61595000D03*
%TD*%
D11*
%TO.P,SW42,*%
%TO.N,*%
X232625000Y-66675000D03*
D10*
X243205000Y-66675000D03*
X233045000Y-66675000D03*
D11*
X243625000Y-66675000D03*
D13*
%TO.P,SW42,1,1*%
%TO.N,ROW1*%
X234315000Y-64135000D03*
D12*
X233025000Y-70575000D03*
%TO.P,SW42,2,2*%
%TO.N,Net-(D41-Pad2)*%
X238125000Y-72575000D03*
D13*
X240665000Y-61595000D03*
%TD*%
D11*
%TO.P,SW27,*%
%TO.N,*%
X156425000Y-85725000D03*
D10*
X167005000Y-85725000D03*
X156845000Y-85725000D03*
D11*
X167425000Y-85725000D03*
D12*
%TO.P,SW27,1,1*%
%TO.N,ROW2*%
X156825000Y-89625000D03*
D13*
X158115000Y-83185000D03*
D12*
%TO.P,SW27,2,2*%
%TO.N,Net-(D26-Pad2)*%
X161925000Y-91625000D03*
D13*
X164465000Y-80645000D03*
%TD*%
D11*
%TO.P,SW36,*%
%TO.N,*%
X186475000Y-123825000D03*
X175475000Y-123825000D03*
D10*
X175895000Y-123825000D03*
X186055000Y-123825000D03*
D12*
%TO.P,SW36,1,1*%
%TO.N,ROW3*%
X175875000Y-127725000D03*
D13*
X177165000Y-121285000D03*
D12*
%TO.P,SW36,2,2*%
%TO.N,Net-(D35-Pad2)*%
X180975000Y-129725000D03*
D13*
X183515000Y-118745000D03*
%TD*%
D10*
%TO.P,SW21,*%
%TO.N,*%
X142875000Y-68738750D03*
D11*
X142875000Y-79318750D03*
D10*
X142875000Y-78898750D03*
D11*
X142875000Y-68318750D03*
D14*
%TO.P,SW21,1,1*%
%TO.N,ROW1*%
X140335000Y-77628750D03*
D15*
X146775000Y-78918750D03*
%TO.P,SW21,2,2*%
%TO.N,Net-(D20-Pad2)*%
X148775000Y-73818750D03*
D14*
X137795000Y-71278750D03*
%TD*%
D11*
%TO.P,SW32,*%
%TO.N,*%
X167425000Y-123825000D03*
D10*
X156845000Y-123825000D03*
X167005000Y-123825000D03*
D11*
X156425000Y-123825000D03*
D13*
%TO.P,SW32,1,1*%
%TO.N,ROW3*%
X158115000Y-121285000D03*
D12*
X156825000Y-127725000D03*
D13*
%TO.P,SW32,2,2*%
%TO.N,Net-(D31-Pad2)*%
X164465000Y-118745000D03*
D12*
X161925000Y-129725000D03*
%TD*%
D10*
%TO.P,SW28,*%
%TO.N,*%
X147955000Y-123825000D03*
X137795000Y-123825000D03*
D11*
X148375000Y-123825000D03*
X137375000Y-123825000D03*
D12*
%TO.P,SW28,1,1*%
%TO.N,ROW3*%
X137775000Y-127725000D03*
D13*
X139065000Y-121285000D03*
D12*
%TO.P,SW28,2,2*%
%TO.N,Net-(D27-Pad2)*%
X142875000Y-129725000D03*
D13*
X145415000Y-118745000D03*
%TD*%
D11*
%TO.P,SW33,*%
%TO.N,*%
X204050000Y-47625000D03*
X215050000Y-47625000D03*
D10*
X214630000Y-47625000D03*
X204470000Y-47625000D03*
D12*
%TO.P,SW33,1,1*%
%TO.N,ROW0*%
X204450000Y-51525000D03*
D13*
X205740000Y-45085000D03*
D12*
%TO.P,SW33,2,2*%
%TO.N,Net-(D32-Pad2)*%
X209550000Y-53525000D03*
D13*
X212090000Y-42545000D03*
%TD*%
D11*
%TO.P,SW34,*%
%TO.N,*%
X205525000Y-66675000D03*
D10*
X205105000Y-66675000D03*
X194945000Y-66675000D03*
D11*
X194525000Y-66675000D03*
D13*
%TO.P,SW34,1,1*%
%TO.N,ROW1*%
X196215000Y-64135000D03*
D12*
X194925000Y-70575000D03*
%TO.P,SW34,2,2*%
%TO.N,Net-(D33-Pad2)*%
X200025000Y-72575000D03*
D13*
X202565000Y-61595000D03*
%TD*%
D11*
%TO.P,SW39,*%
%TO.N,*%
X224575000Y-85725000D03*
D10*
X213995000Y-85725000D03*
X224155000Y-85725000D03*
D11*
X213575000Y-85725000D03*
D13*
%TO.P,SW39,1,1*%
%TO.N,ROW2*%
X215265000Y-83185000D03*
D12*
X213975000Y-89625000D03*
D13*
%TO.P,SW39,2,2*%
%TO.N,Net-(D38-Pad2)*%
X221615000Y-80645000D03*
D12*
X219075000Y-91625000D03*
%TD*%
D11*
%TO.P,SW31,*%
%TO.N,*%
X186475000Y-85725000D03*
X175475000Y-85725000D03*
D10*
X186055000Y-85725000D03*
X175895000Y-85725000D03*
D13*
%TO.P,SW31,1,1*%
%TO.N,ROW2*%
X177165000Y-83185000D03*
D12*
X175875000Y-89625000D03*
%TO.P,SW31,2,2*%
%TO.N,Net-(D30-Pad2)*%
X180975000Y-91625000D03*
D13*
X183515000Y-80645000D03*
%TD*%
D10*
%TO.P,SW9,*%
%TO.N,*%
X80645000Y-85725000D03*
D11*
X80225000Y-85725000D03*
X91225000Y-85725000D03*
D10*
X90805000Y-85725000D03*
D13*
%TO.P,SW9,1,1*%
%TO.N,ROW2*%
X81915000Y-83185000D03*
D12*
X80625000Y-89625000D03*
D13*
%TO.P,SW9,2,2*%
%TO.N,Net-(D8-Pad2)*%
X88265000Y-80645000D03*
D12*
X85725000Y-91625000D03*
%TD*%
D16*
%TO.P,U1,1,TX*%
%TO.N,unconnected-(U1-Pad1)*%
X135255000Y-28892500D03*
%TO.P,U1,2,RX*%
%TO.N,unconnected-(U1-Pad2)*%
X135255000Y-31432500D03*
%TO.P,U1,3,GND*%
%TO.N,GND*%
X135255000Y-33972500D03*
%TO.P,U1,4,GND*%
X135255000Y-36512500D03*
%TO.P,U1,5,SDA*%
%TO.N,unconnected-(U1-Pad5)*%
X135255000Y-39052500D03*
%TO.P,U1,6,SCL*%
%TO.N,LED_DAT*%
X135255000Y-41592500D03*
%TO.P,U1,7,D4*%
%TO.N,COL0*%
X135255000Y-44132500D03*
%TO.P,U1,8,C6*%
%TO.N,COL1*%
X135255000Y-46672500D03*
%TO.P,U1,9,D7*%
%TO.N,COL2*%
X135255000Y-49212500D03*
%TO.P,U1,10,E6*%
%TO.N,COL3*%
X135255000Y-51752500D03*
%TO.P,U1,11,B4*%
%TO.N,COL4*%
X135255000Y-54292500D03*
%TO.P,U1,12,B5*%
%TO.N,COL5*%
X135255000Y-56832500D03*
%TO.P,U1,13,B6*%
%TO.N,COL6*%
X150495000Y-56832500D03*
%TO.P,U1,14,B2*%
%TO.N,COL7*%
X150495000Y-54292500D03*
%TO.P,U1,15,B3*%
%TO.N,COL8*%
X150495000Y-51752500D03*
%TO.P,U1,16,B1*%
%TO.N,COL9*%
X150495000Y-49212500D03*
%TO.P,U1,17,F7*%
%TO.N,ROW3*%
X150495000Y-46672500D03*
%TO.P,U1,18,F6*%
%TO.N,ROW2*%
X150495000Y-44132500D03*
%TO.P,U1,19,F5*%
%TO.N,ROW1*%
X150495000Y-41592500D03*
%TO.P,U1,20,F4*%
%TO.N,ROW0*%
X150495000Y-39052500D03*
%TO.P,U1,21,VCC*%
%TO.N,unconnected-(U1-Pad21)*%
X150495000Y-36512500D03*
%TO.P,U1,22,RST*%
%TO.N,RESET*%
X150495000Y-33972500D03*
%TO.P,U1,23,GND*%
%TO.N,GND*%
X150495000Y-31432500D03*
%TO.P,U1,24,RAW*%
%TO.N,+5V*%
X150495000Y-28892500D03*
%TD*%
D11*
%TO.P,SW12,*%
%TO.N,*%
X110275000Y-66675000D03*
X99275000Y-66675000D03*
D10*
X109855000Y-66675000D03*
X99695000Y-66675000D03*
D12*
%TO.P,SW12,1,1*%
%TO.N,ROW1*%
X99675000Y-70575000D03*
D13*
X100965000Y-64135000D03*
D12*
%TO.P,SW12,2,2*%
%TO.N,Net-(D11-Pad2)*%
X104775000Y-72575000D03*
D13*
X107315000Y-61595000D03*
%TD*%
D11*
%TO.P,SW4,*%
%TO.N,*%
X66675000Y-68318750D03*
D10*
X66675000Y-78898750D03*
D11*
X66675000Y-79318750D03*
D10*
X66675000Y-68738750D03*
D15*
%TO.P,SW4,1,1*%
%TO.N,ROW2*%
X70575000Y-78918750D03*
D14*
X64135000Y-77628750D03*
D15*
%TO.P,SW4,2,2*%
%TO.N,Net-(D3-Pad2)*%
X72575000Y-73818750D03*
D14*
X61595000Y-71278750D03*
%TD*%
D10*
%TO.P,SW11,*%
%TO.N,*%
X109220000Y-47625000D03*
D11*
X108800000Y-47625000D03*
X119800000Y-47625000D03*
D10*
X119380000Y-47625000D03*
D13*
%TO.P,SW11,1,1*%
%TO.N,ROW0*%
X110490000Y-45085000D03*
D12*
X109200000Y-51525000D03*
D13*
%TO.P,SW11,2,2*%
%TO.N,Net-(D10-Pad2)*%
X116840000Y-42545000D03*
D12*
X114300000Y-53525000D03*
%TD*%
D17*
%TO.P,SW1,1,1*%
%TO.N,GND*%
X240506250Y-51746150D03*
D18*
%TO.P,SW1,2,2*%
%TO.N,RESET*%
X240506250Y-45243750D03*
%TD*%
D11*
%TO.P,SW38,*%
%TO.N,*%
X223350000Y-66675000D03*
X212350000Y-66675000D03*
D10*
X222930000Y-66675000D03*
X212770000Y-66675000D03*
D12*
%TO.P,SW38,1,1*%
%TO.N,ROW1*%
X212750000Y-70575000D03*
D13*
X214040000Y-64135000D03*
D12*
%TO.P,SW38,2,2*%
%TO.N,Net-(D37-Pad2)*%
X217850000Y-72575000D03*
D13*
X220390000Y-61595000D03*
%TD*%
D11*
%TO.P,SW2,*%
%TO.N,*%
X81700000Y-47625000D03*
X70700000Y-47625000D03*
D10*
X81280000Y-47625000D03*
X71120000Y-47625000D03*
D12*
%TO.P,SW2,1,1*%
%TO.N,ROW0*%
X71100000Y-51525000D03*
D13*
X72390000Y-45085000D03*
%TO.P,SW2,2,2*%
%TO.N,Net-(D1-Pad2)*%
X78740000Y-42545000D03*
D12*
X76200000Y-53525000D03*
%TD*%
D11*
%TO.P,SW35,*%
%TO.N,*%
X205525000Y-85725000D03*
D10*
X194945000Y-85725000D03*
X205105000Y-85725000D03*
D11*
X194525000Y-85725000D03*
D13*
%TO.P,SW35,1,1*%
%TO.N,ROW2*%
X196215000Y-83185000D03*
D12*
X194925000Y-89625000D03*
D13*
%TO.P,SW35,2,2*%
%TO.N,Net-(D34-Pad2)*%
X202565000Y-80645000D03*
D12*
X200025000Y-91625000D03*
%TD*%
D10*
%TO.P,SW23,*%
%TO.N,*%
X118745000Y-123825000D03*
X128905000Y-123825000D03*
D11*
X118325000Y-123825000D03*
X129325000Y-123825000D03*
D12*
%TO.P,SW23,1,1*%
%TO.N,ROW3*%
X118725000Y-127725000D03*
D13*
X120015000Y-121285000D03*
%TO.P,SW23,2,2*%
%TO.N,Net-(D22-Pad2)*%
X126365000Y-118745000D03*
D12*
X123825000Y-129725000D03*
%TD*%
D11*
%TO.P,SW25,*%
%TO.N,*%
X165950000Y-47625000D03*
D10*
X166370000Y-47625000D03*
X176530000Y-47625000D03*
D11*
X176950000Y-47625000D03*
D12*
%TO.P,SW25,1,1*%
%TO.N,ROW0*%
X166350000Y-51525000D03*
D13*
X167640000Y-45085000D03*
%TO.P,SW25,2,2*%
%TO.N,Net-(D24-Pad2)*%
X173990000Y-42545000D03*
D12*
X171450000Y-53525000D03*
%TD*%
D10*
%TO.P,SW30,*%
%TO.N,*%
X175895000Y-66675000D03*
X186055000Y-66675000D03*
D11*
X175475000Y-66675000D03*
X186475000Y-66675000D03*
D12*
%TO.P,SW30,1,1*%
%TO.N,ROW1*%
X175875000Y-70575000D03*
D13*
X177165000Y-64135000D03*
%TO.P,SW30,2,2*%
%TO.N,Net-(D29-Pad2)*%
X183515000Y-61595000D03*
D12*
X180975000Y-72575000D03*
%TD*%
D10*
%TO.P,SW43,*%
%TO.N,*%
X243205000Y-85725000D03*
D11*
X243625000Y-85725000D03*
X232625000Y-85725000D03*
D10*
X233045000Y-85725000D03*
D13*
%TO.P,SW43,1,1*%
%TO.N,ROW2*%
X234315000Y-83185000D03*
D12*
X233025000Y-89625000D03*
%TO.P,SW43,2,2*%
%TO.N,Net-(D42-Pad2)*%
X238125000Y-91625000D03*
D13*
X240665000Y-80645000D03*
%TD*%
D11*
%TO.P,SW8,*%
%TO.N,*%
X80225000Y-66675000D03*
D10*
X90805000Y-66675000D03*
D11*
X91225000Y-66675000D03*
D10*
X80645000Y-66675000D03*
D12*
%TO.P,SW8,1,1*%
%TO.N,ROW1*%
X80625000Y-70575000D03*
D13*
X81915000Y-64135000D03*
%TO.P,SW8,2,2*%
%TO.N,Net-(D7-Pad2)*%
X88265000Y-61595000D03*
D12*
X85725000Y-72575000D03*
%TD*%
D10*
%TO.P,SW13,*%
%TO.N,*%
X109855000Y-85725000D03*
D11*
X99275000Y-85725000D03*
X110275000Y-85725000D03*
D10*
X99695000Y-85725000D03*
D13*
%TO.P,SW13,1,1*%
%TO.N,ROW2*%
X100965000Y-83185000D03*
D12*
X99675000Y-89625000D03*
%TO.P,SW13,2,2*%
%TO.N,Net-(D12-Pad2)*%
X104775000Y-91625000D03*
D13*
X107315000Y-80645000D03*
%TD*%
D11*
%TO.P,SW18,*%
%TO.N,*%
X129325000Y-85725000D03*
X118325000Y-85725000D03*
D10*
X118745000Y-85725000D03*
X128905000Y-85725000D03*
D13*
%TO.P,SW18,1,1*%
%TO.N,ROW2*%
X120015000Y-83185000D03*
D12*
X118725000Y-89625000D03*
%TO.P,SW18,2,2*%
%TO.N,Net-(D17-Pad2)*%
X123825000Y-91625000D03*
D13*
X126365000Y-80645000D03*
%TD*%
D19*
%TO.P,D27,1,K*%
%TO.N,COL4*%
X152400000Y-117633750D03*
D20*
%TO.P,D27,2,A*%
%TO.N,Net-(D27-Pad2)*%
X152400000Y-125253750D03*
%TD*%
D19*
%TO.P,D41,1,K*%
%TO.N,COL9*%
X228600000Y-65246250D03*
D20*
%TO.P,D41,2,A*%
%TO.N,Net-(D41-Pad2)*%
X228600000Y-72866250D03*
%TD*%
D19*
%TO.P,D33,1,K*%
%TO.N,COL7*%
X190500000Y-65246250D03*
D20*
%TO.P,D33,2,A*%
%TO.N,Net-(D33-Pad2)*%
X190500000Y-72866250D03*
%TD*%
D19*
%TO.P,D30,1,K*%
%TO.N,COL6*%
X190500000Y-84296250D03*
D20*
%TO.P,D30,2,A*%
%TO.N,Net-(D30-Pad2)*%
X190500000Y-91916250D03*
%TD*%
D19*
%TO.P,D31,1,K*%
%TO.N,COL5*%
X171450000Y-117633750D03*
D20*
%TO.P,D31,2,A*%
%TO.N,Net-(D31-Pad2)*%
X171450000Y-125253750D03*
%TD*%
D19*
%TO.P,D12,1,K*%
%TO.N,COL2*%
X114300000Y-84296250D03*
D20*
%TO.P,D12,2,A*%
%TO.N,Net-(D12-Pad2)*%
X114300000Y-91916250D03*
%TD*%
D19*
%TO.P,D22,1,K*%
%TO.N,COL3*%
X133350000Y-117633750D03*
D20*
%TO.P,D22,2,A*%
%TO.N,Net-(D22-Pad2)*%
X133350000Y-125253750D03*
%TD*%
D19*
%TO.P,D42,1,K*%
%TO.N,COL9*%
X234315000Y-76200000D03*
D20*
%TO.P,D42,2,A*%
%TO.N,Net-(D42-Pad2)*%
X241935000Y-76200000D03*
%TD*%
D19*
%TO.P,D37,1,K*%
%TO.N,COL8*%
X209550000Y-65246250D03*
D20*
%TO.P,D37,2,A*%
%TO.N,Net-(D37-Pad2)*%
X209550000Y-72866250D03*
%TD*%
D19*
%TO.P,D1,1,K*%
%TO.N,COL0*%
X88106250Y-51435000D03*
D20*
%TO.P,D1,2,A*%
%TO.N,Net-(D1-Pad2)*%
X88106250Y-43815000D03*
%TD*%
D19*
%TO.P,D17,1,K*%
%TO.N,COL3*%
X119380000Y-76200000D03*
D20*
%TO.P,D17,2,A*%
%TO.N,Net-(D17-Pad2)*%
X127000000Y-76200000D03*
%TD*%
D19*
%TO.P,D29,1,K*%
%TO.N,COL6*%
X171450000Y-65246250D03*
D20*
%TO.P,D29,2,A*%
%TO.N,Net-(D29-Pad2)*%
X171450000Y-72866250D03*
%TD*%
D21*
%TO.P,J3,1,Pin_1*%
%TO.N,GND*%
X227330000Y-58420000D03*
%TD*%
D19*
%TO.P,D38,1,K*%
%TO.N,COL8*%
X228600000Y-79533750D03*
D20*
%TO.P,D38,2,A*%
%TO.N,Net-(D38-Pad2)*%
X228600000Y-87153750D03*
%TD*%
D19*
%TO.P,D25,1,K*%
%TO.N,COL5*%
X158115000Y-76200000D03*
D20*
%TO.P,D25,2,A*%
%TO.N,Net-(D25-Pad2)*%
X165735000Y-76200000D03*
%TD*%
D19*
%TO.P,D3,1,K*%
%TO.N,COL0*%
X76200000Y-67627500D03*
D20*
%TO.P,D3,2,A*%
%TO.N,Net-(D3-Pad2)*%
X76200000Y-75247500D03*
%TD*%
D21*
%TO.P,J1,1,Pin_1*%
%TO.N,+5V*%
X231140000Y-58420000D03*
%TD*%
D19*
%TO.P,D26,1,K*%
%TO.N,COL5*%
X171450000Y-84296250D03*
D20*
%TO.P,D26,2,A*%
%TO.N,Net-(D26-Pad2)*%
X171450000Y-91916250D03*
%TD*%
D19*
%TO.P,D16,1,K*%
%TO.N,COL3*%
X114300000Y-65246250D03*
D20*
%TO.P,D16,2,A*%
%TO.N,Net-(D16-Pad2)*%
X114300000Y-72866250D03*
%TD*%
D21*
%TO.P,J2,1,Pin_1*%
%TO.N,LED_DAT*%
X234950000Y-58420000D03*
%TD*%
D19*
%TO.P,D11,1,K*%
%TO.N,COL2*%
X95250000Y-65246250D03*
D20*
%TO.P,D11,2,A*%
%TO.N,Net-(D11-Pad2)*%
X95250000Y-72866250D03*
%TD*%
D19*
%TO.P,D7,1,K*%
%TO.N,COL1*%
X89535000Y-76200000D03*
D20*
%TO.P,D7,2,A*%
%TO.N,Net-(D7-Pad2)*%
X81915000Y-76200000D03*
%TD*%
D19*
%TO.P,D24,1,K*%
%TO.N,COL5*%
X183356250Y-52070000D03*
D20*
%TO.P,D24,2,A*%
%TO.N,Net-(D24-Pad2)*%
X183356250Y-44450000D03*
%TD*%
D19*
%TO.P,D8,1,K*%
%TO.N,COL1*%
X95250000Y-84296250D03*
D20*
%TO.P,D8,2,A*%
%TO.N,Net-(D8-Pad2)*%
X95250000Y-91916250D03*
%TD*%
D19*
%TO.P,D32,1,K*%
%TO.N,COL7*%
X196850000Y-52070000D03*
D20*
%TO.P,D32,2,A*%
%TO.N,Net-(D32-Pad2)*%
X196850000Y-44450000D03*
%TD*%
D19*
%TO.P,D10,1,K*%
%TO.N,COL2*%
X126206250Y-51435000D03*
D20*
%TO.P,D10,2,A*%
%TO.N,Net-(D10-Pad2)*%
X126206250Y-43815000D03*
%TD*%
D19*
%TO.P,D34,1,K*%
%TO.N,COL7*%
X209550000Y-84296250D03*
D20*
%TO.P,D34,2,A*%
%TO.N,Net-(D34-Pad2)*%
X209550000Y-91916250D03*
%TD*%
D19*
%TO.P,D35,1,K*%
%TO.N,COL6*%
X187166250Y-114300000D03*
D20*
%TO.P,D35,2,A*%
%TO.N,Net-(D35-Pad2)*%
X179546250Y-114300000D03*
%TD*%
D19*
%TO.P,D18,1,K*%
%TO.N,COL2*%
X114300000Y-117633750D03*
D20*
%TO.P,D18,2,A*%
%TO.N,Net-(D18-Pad2)*%
X114300000Y-125253750D03*
%TD*%
D19*
%TO.P,D20,1,K*%
%TO.N,COL4*%
X153670000Y-80010000D03*
D20*
%TO.P,D20,2,A*%
%TO.N,Net-(D20-Pad2)*%
X153670000Y-72390000D03*
%TD*%
D22*
%TO.N,COL0*%
X116078000Y-55626000D02*
X124587000Y-47117000D01*
X127889000Y-47117000D02*
X130873500Y-44132500D01*
X124587000Y-47117000D02*
X127889000Y-47117000D01*
X88106250Y-51435000D02*
X94996000Y-51435000D01*
X108585000Y-55626000D02*
X116078000Y-55626000D01*
X94996000Y-51435000D02*
X96393000Y-52832000D01*
X105791000Y-52832000D02*
X108585000Y-55626000D01*
X130873500Y-44132500D02*
X135255000Y-44132500D01*
X96393000Y-52832000D02*
X105791000Y-52832000D01*
%TO.N,Net-(D1-Pad2)*%
X78740000Y-42545000D02*
X86836250Y-42545000D01*
X78760000Y-51222000D02*
X76420000Y-53562000D01*
X78760000Y-42582000D02*
X78760000Y-51222000D01*
X76035000Y-53562000D02*
X76220000Y-53562000D01*
X86836250Y-42545000D02*
X88106250Y-43815000D01*
X76420000Y-53562000D02*
X76220000Y-53562000D01*
%TO.N,Net-(D3-Pad2)*%
X72575000Y-73818750D02*
X74771250Y-73818750D01*
X74771250Y-73818750D02*
X76200000Y-75247500D01*
X61595000Y-71278750D02*
X61880750Y-70993000D01*
X61880750Y-70993000D02*
X69749250Y-70993000D01*
X69749250Y-70993000D02*
X72575000Y-73818750D01*
%TO.N,COL1*%
X95250000Y-84296250D02*
X95250000Y-81915000D01*
X95250000Y-81915000D02*
X89535000Y-76200000D01*
%TO.N,Net-(D7-Pad2)*%
X85540000Y-72575000D02*
X85725000Y-72575000D01*
X88265000Y-70235000D02*
X85925000Y-72575000D01*
X81915000Y-76200000D02*
X85540000Y-72575000D01*
X85925000Y-72575000D02*
X85725000Y-72575000D01*
X88265000Y-61595000D02*
X88265000Y-70235000D01*
%TO.N,Net-(D8-Pad2)*%
X88265000Y-89322000D02*
X85925000Y-91662000D01*
X95250000Y-91916250D02*
X86016250Y-91916250D01*
X85540000Y-91662000D02*
X85725000Y-91662000D01*
X88265000Y-80682000D02*
X88265000Y-89322000D01*
X86016250Y-91916250D02*
X85725000Y-91625000D01*
X85925000Y-91662000D02*
X85725000Y-91662000D01*
%TO.N,Net-(D10-Pad2)*%
X116840000Y-42545000D02*
X124936250Y-42545000D01*
X114520000Y-53562000D02*
X114320000Y-53562000D01*
X116860000Y-51222000D02*
X114520000Y-53562000D01*
X116860000Y-42582000D02*
X116860000Y-51222000D01*
X124936250Y-42545000D02*
X126206250Y-43815000D01*
X114135000Y-53562000D02*
X114320000Y-53562000D01*
%TO.N,Net-(D11-Pad2)*%
X104483750Y-72866250D02*
X104775000Y-72575000D01*
X107315000Y-61595000D02*
X107586362Y-61866362D01*
X107586362Y-69763638D02*
X104775000Y-72575000D01*
X95250000Y-72866250D02*
X104483750Y-72866250D01*
X107586362Y-61866362D02*
X107586362Y-69763638D01*
%TO.N,Net-(D12-Pad2)*%
X104995000Y-91662000D02*
X104795000Y-91662000D01*
X104610000Y-91662000D02*
X104795000Y-91662000D01*
X107335000Y-80682000D02*
X107335000Y-89322000D01*
X105066250Y-91916250D02*
X104775000Y-91625000D01*
X114300000Y-91916250D02*
X105066250Y-91916250D01*
X107335000Y-89322000D02*
X104995000Y-91662000D01*
%TO.N,Net-(D16-Pad2)*%
X114300000Y-72866250D02*
X123533750Y-72866250D01*
X126500000Y-69900000D02*
X123825000Y-72575000D01*
X123533750Y-72866250D02*
X123825000Y-72575000D01*
X126500000Y-61730000D02*
X126500000Y-69900000D01*
X126365000Y-61595000D02*
X126500000Y-61730000D01*
%TO.N,Net-(D17-Pad2)*%
X126385000Y-89322000D02*
X124045000Y-91662000D01*
X124045000Y-91662000D02*
X123845000Y-91662000D01*
X126385000Y-80682000D02*
X126385000Y-89322000D01*
X123660000Y-91662000D02*
X123845000Y-91662000D01*
X126365000Y-76835000D02*
X127000000Y-76200000D01*
X126365000Y-80645000D02*
X126365000Y-76835000D01*
%TO.N,Net-(D18-Pad2)*%
X104775000Y-129725000D02*
X107315000Y-127185000D01*
X112368750Y-127185000D02*
X107315000Y-127185000D01*
X114300000Y-125253750D02*
X112368750Y-127185000D01*
X107315000Y-127185000D02*
X107315000Y-118745000D01*
%TO.N,Net-(D20-Pad2)*%
X146235000Y-71278750D02*
X148775000Y-73818750D01*
X148775000Y-73818750D02*
X152241250Y-73818750D01*
X152241250Y-73818750D02*
X153670000Y-72390000D01*
X137795000Y-71278750D02*
X146235000Y-71278750D01*
%TO.N,Net-(D22-Pad2)*%
X126365000Y-127135000D02*
X131468750Y-127135000D01*
X131468750Y-127135000D02*
X133350000Y-125253750D01*
X126365000Y-127185000D02*
X126365000Y-127135000D01*
X126365000Y-127135000D02*
X126365000Y-118745000D01*
X123825000Y-129725000D02*
X126365000Y-127185000D01*
%TO.N,COL5*%
X149243500Y-42907500D02*
X135318500Y-56832500D01*
X183356250Y-52070000D02*
X181102000Y-52070000D01*
X167132000Y-56896000D02*
X153143500Y-42907500D01*
X176276000Y-56896000D02*
X167132000Y-56896000D01*
X153143500Y-42907500D02*
X149243500Y-42907500D01*
X135318500Y-56832500D02*
X135255000Y-56832500D01*
X181102000Y-52070000D02*
X176276000Y-56896000D01*
%TO.N,Net-(D24-Pad2)*%
X174010000Y-42582000D02*
X174010000Y-51222000D01*
X174010000Y-51222000D02*
X171670000Y-53562000D01*
X173990000Y-42545000D02*
X177419000Y-42545000D01*
X179324000Y-44450000D02*
X183356250Y-44450000D01*
X177419000Y-42545000D02*
X179324000Y-44450000D01*
X171670000Y-53562000D02*
X171470000Y-53562000D01*
X171285000Y-53562000D02*
X171470000Y-53562000D01*
%TO.N,Net-(D25-Pad2)*%
X164485000Y-70272000D02*
X162145000Y-72612000D01*
X162110000Y-72575000D02*
X165735000Y-76200000D01*
X161925000Y-72575000D02*
X162110000Y-72575000D01*
X162145000Y-72612000D02*
X161945000Y-72612000D01*
X164485000Y-61632000D02*
X164485000Y-70272000D01*
X161760000Y-72612000D02*
X161945000Y-72612000D01*
%TO.N,Net-(D26-Pad2)*%
X164485000Y-80682000D02*
X164485000Y-89322000D01*
X162145000Y-91662000D02*
X161945000Y-91662000D01*
X162216250Y-91916250D02*
X161925000Y-91625000D01*
X161760000Y-91662000D02*
X161945000Y-91662000D01*
X171450000Y-91916250D02*
X162216250Y-91916250D01*
X164485000Y-89322000D02*
X162145000Y-91662000D01*
%TO.N,Net-(D27-Pad2)*%
X145390000Y-127210000D02*
X145390000Y-127160000D01*
X142850000Y-129750000D02*
X145390000Y-127210000D01*
X145390000Y-127160000D02*
X145390000Y-118770000D01*
X150493750Y-127160000D02*
X152375000Y-125278750D01*
X145390000Y-127160000D02*
X150493750Y-127160000D01*
%TO.N,COL6*%
X171450000Y-63246000D02*
X171450000Y-65246250D01*
X150495000Y-56832500D02*
X153606500Y-59944000D01*
X168148000Y-59944000D02*
X171450000Y-63246000D01*
X153606500Y-59944000D02*
X168148000Y-59944000D01*
%TO.N,Net-(D29-Pad2)*%
X171450000Y-72866250D02*
X180683750Y-72866250D01*
X180810000Y-72612000D02*
X180995000Y-72612000D01*
X183535000Y-61632000D02*
X183535000Y-70272000D01*
X181195000Y-72612000D02*
X180995000Y-72612000D01*
X183535000Y-70272000D02*
X181195000Y-72612000D01*
X180683750Y-72866250D02*
X180975000Y-72575000D01*
%TO.N,Net-(D30-Pad2)*%
X190500000Y-91916250D02*
X181266250Y-91916250D01*
X180810000Y-91662000D02*
X180995000Y-91662000D01*
X183535000Y-80682000D02*
X183535000Y-89322000D01*
X181266250Y-91916250D02*
X180975000Y-91625000D01*
X183535000Y-89322000D02*
X181195000Y-91662000D01*
X181195000Y-91662000D02*
X180995000Y-91662000D01*
%TO.N,Net-(D31-Pad2)*%
X164390000Y-127160000D02*
X169493750Y-127160000D01*
X161850000Y-129750000D02*
X164390000Y-127210000D01*
X164390000Y-127160000D02*
X164390000Y-118770000D01*
X164390000Y-127210000D02*
X164390000Y-127160000D01*
X169493750Y-127160000D02*
X171375000Y-125278750D01*
%TO.N,COL7*%
X176403000Y-59817000D02*
X176022000Y-59436000D01*
X190500000Y-65246250D02*
X185070750Y-59817000D01*
X185070750Y-59817000D02*
X176403000Y-59817000D01*
X155638500Y-59436000D02*
X150495000Y-54292500D01*
X176022000Y-59436000D02*
X155638500Y-59436000D01*
%TO.N,Net-(D32-Pad2)*%
X196850000Y-44450000D02*
X202049441Y-44450000D01*
X212110000Y-42582000D02*
X212110000Y-51222000D01*
X203954441Y-42545000D02*
X212090000Y-42545000D01*
X202049441Y-44450000D02*
X203954441Y-42545000D01*
X212110000Y-51222000D02*
X209770000Y-53562000D01*
X209385000Y-53562000D02*
X209570000Y-53562000D01*
X209770000Y-53562000D02*
X209570000Y-53562000D01*
%TO.N,Net-(D33-Pad2)*%
X190500000Y-72866250D02*
X199733750Y-72866250D01*
X200245000Y-72612000D02*
X200045000Y-72612000D01*
X202585000Y-70272000D02*
X200245000Y-72612000D01*
X202585000Y-61632000D02*
X202585000Y-70272000D01*
X199733750Y-72866250D02*
X200025000Y-72575000D01*
X199860000Y-72612000D02*
X200045000Y-72612000D01*
%TO.N,Net-(D34-Pad2)*%
X200245000Y-91662000D02*
X200045000Y-91662000D01*
X209550000Y-91916250D02*
X200316250Y-91916250D01*
X199860000Y-91662000D02*
X200045000Y-91662000D01*
X202585000Y-89322000D02*
X200245000Y-91662000D01*
X202585000Y-80682000D02*
X202585000Y-89322000D01*
X200316250Y-91916250D02*
X200025000Y-91625000D01*
%TO.N,Net-(D35-Pad2)*%
X179546250Y-114300000D02*
X183515000Y-118268750D01*
X183515000Y-118268750D02*
X183515000Y-118745000D01*
X180850000Y-129750000D02*
X183390000Y-127210000D01*
X183390000Y-127160000D02*
X183390000Y-118770000D01*
X183390000Y-127210000D02*
X183390000Y-127160000D01*
%TO.N,COL8*%
X150495000Y-51752500D02*
X157728500Y-58986000D01*
X176589396Y-59367000D02*
X203670750Y-59367000D01*
X203670750Y-59367000D02*
X209550000Y-65246250D01*
X157728500Y-58986000D02*
X176208396Y-58986000D01*
X176208396Y-58986000D02*
X176589396Y-59367000D01*
%TO.N,Net-(D37-Pad2)*%
X209550000Y-72866250D02*
X217558750Y-72866250D01*
X217558750Y-72866250D02*
X217850000Y-72575000D01*
X218025000Y-72612000D02*
X217825000Y-72612000D01*
X220365000Y-70272000D02*
X218025000Y-72612000D01*
X217640000Y-72612000D02*
X217825000Y-72612000D01*
X220365000Y-61632000D02*
X220365000Y-70272000D01*
%TO.N,Net-(D38-Pad2)*%
X221635000Y-80555000D02*
X221635000Y-89195000D01*
X221635000Y-89195000D02*
X219295000Y-91535000D01*
X228600000Y-84709000D02*
X224536000Y-80645000D01*
X218910000Y-91535000D02*
X219095000Y-91535000D01*
X228600000Y-87153750D02*
X228600000Y-84709000D01*
X219295000Y-91535000D02*
X219095000Y-91535000D01*
X224536000Y-80645000D02*
X221615000Y-80645000D01*
%TO.N,COL9*%
X156464000Y-56769000D02*
X158115000Y-58420000D01*
X156464000Y-55181500D02*
X156464000Y-56769000D01*
X158115000Y-58420000D02*
X176541000Y-58420000D01*
X177038000Y-58917000D02*
X222270750Y-58917000D01*
X150495000Y-49212500D02*
X156464000Y-55181500D01*
X176541000Y-58420000D02*
X177038000Y-58917000D01*
X222270750Y-58917000D02*
X228600000Y-65246250D01*
%TO.N,Net-(D41-Pad2)*%
X240685000Y-61632000D02*
X240685000Y-70272000D01*
X237960000Y-72612000D02*
X238145000Y-72612000D01*
X240685000Y-70272000D02*
X238345000Y-72612000D01*
X237833750Y-72866250D02*
X238125000Y-72575000D01*
X238345000Y-72612000D02*
X238145000Y-72612000D01*
X228600000Y-72866250D02*
X237833750Y-72866250D01*
%TO.N,Net-(D42-Pad2)*%
X237960000Y-91662000D02*
X238145000Y-91662000D01*
X240685000Y-80682000D02*
X240685000Y-89322000D01*
X241935000Y-76200000D02*
X241935000Y-79375000D01*
X238345000Y-91662000D02*
X238145000Y-91662000D01*
X241935000Y-79375000D02*
X240665000Y-80645000D01*
X240685000Y-89322000D02*
X238345000Y-91662000D01*
%TO.N,LED_DAT*%
X243586000Y-42545000D02*
X243586000Y-52070000D01*
X237236000Y-58420000D02*
X234950000Y-58420000D01*
X243586000Y-52070000D02*
X237236000Y-58420000D01*
X153797000Y-29083000D02*
X153797000Y-36830000D01*
X151765000Y-27051000D02*
X153797000Y-29083000D01*
X145669000Y-33655000D02*
X145669000Y-29972000D01*
X145669000Y-29972000D02*
X148590000Y-27051000D01*
X155575000Y-38608000D02*
X239649000Y-38608000D01*
X135255000Y-41592500D02*
X137731500Y-41592500D01*
X239649000Y-38608000D02*
X243586000Y-42545000D01*
X137731500Y-41592500D02*
X145669000Y-33655000D01*
X148590000Y-27051000D02*
X151765000Y-27051000D01*
X153797000Y-36830000D02*
X155575000Y-38608000D01*
%TO.N,RESET*%
X201168000Y-43307000D02*
X194056000Y-43307000D01*
X186569788Y-43307000D02*
X179705000Y-43307000D01*
X218313000Y-43307000D02*
X215900000Y-40894000D01*
X177292000Y-40894000D02*
X170688000Y-40894000D01*
X168275000Y-43307000D02*
X157861000Y-43307000D01*
X224028000Y-43307000D02*
X218313000Y-43307000D01*
X179705000Y-43307000D02*
X177292000Y-40894000D01*
X157861000Y-43307000D02*
X152400000Y-37846000D01*
X215900000Y-40894000D02*
X203581000Y-40894000D01*
X188982788Y-40894000D02*
X186569788Y-43307000D01*
X152400000Y-35052000D02*
X151320500Y-33972500D01*
X240506250Y-45243750D02*
X240506250Y-43529250D01*
X240506250Y-43529250D02*
X237871000Y-40894000D01*
X203581000Y-40894000D02*
X201168000Y-43307000D01*
X170688000Y-40894000D02*
X168275000Y-43307000D01*
X151320500Y-33972500D02*
X150495000Y-33972500D01*
X226441000Y-40894000D02*
X224028000Y-43307000D01*
X191643000Y-40894000D02*
X188982788Y-40894000D01*
X152400000Y-37846000D02*
X152400000Y-35052000D01*
X237871000Y-40894000D02*
X226441000Y-40894000D01*
X194056000Y-43307000D02*
X191643000Y-40894000D01*
%TO.N,ROW0*%
X110845000Y-45457000D02*
X110510000Y-45122000D01*
X98134000Y-51525000D02*
X109200000Y-51525000D01*
X138938000Y-42926000D02*
X142811500Y-39052500D01*
X95631000Y-49022000D02*
X98134000Y-51525000D01*
X71100000Y-51525000D02*
X71100000Y-53447000D01*
X116840000Y-38735000D02*
X129286000Y-38735000D01*
X78232000Y-56261000D02*
X85471000Y-49022000D01*
X204470000Y-51562000D02*
X206095000Y-49937000D01*
X136125500Y-42907500D02*
X136144000Y-42926000D01*
X109220000Y-51562000D02*
X110845000Y-49937000D01*
X169545000Y-56007000D02*
X175006000Y-56007000D01*
X206095000Y-49937000D02*
X206095000Y-45457000D01*
X167995000Y-45457000D02*
X167660000Y-45122000D01*
X129286000Y-38735000D02*
X133458500Y-42907500D01*
X85471000Y-49022000D02*
X95631000Y-49022000D01*
X136144000Y-42926000D02*
X138938000Y-42926000D01*
X72745000Y-49937000D02*
X72745000Y-45457000D01*
X142811500Y-39052500D02*
X150495000Y-39052500D01*
X71120000Y-51562000D02*
X72745000Y-49937000D01*
X166350000Y-52812000D02*
X169545000Y-56007000D01*
X167995000Y-49937000D02*
X167995000Y-45457000D01*
X110845000Y-49937000D02*
X110845000Y-45457000D01*
X200877000Y-51525000D02*
X204450000Y-51525000D01*
X71100000Y-53447000D02*
X73914000Y-56261000D01*
X166350000Y-51525000D02*
X166350000Y-52812000D01*
X150495000Y-39052500D02*
X152970104Y-39052500D01*
X166312000Y-43757000D02*
X167640000Y-45085000D01*
X166370000Y-51562000D02*
X167995000Y-49937000D01*
X157674604Y-43757000D02*
X166312000Y-43757000D01*
X110490000Y-45085000D02*
X116840000Y-38735000D01*
X152970104Y-39052500D02*
X157674604Y-43757000D01*
X72745000Y-45457000D02*
X72410000Y-45122000D01*
X206095000Y-45457000D02*
X205760000Y-45122000D01*
X73914000Y-56261000D02*
X78232000Y-56261000D01*
X133458500Y-42907500D02*
X136125500Y-42907500D01*
X181229000Y-49784000D02*
X199136000Y-49784000D01*
X199136000Y-49784000D02*
X200877000Y-51525000D01*
X175006000Y-56007000D02*
X181229000Y-49784000D01*
%TO.N,ROW2*%
X133858000Y-93980000D02*
X138213000Y-89625000D01*
X80625000Y-89662000D02*
X82250000Y-88037000D01*
X230378000Y-94488000D02*
X233025000Y-91841000D01*
X177520000Y-83557000D02*
X177185000Y-83222000D01*
X196570000Y-83557000D02*
X196235000Y-83222000D01*
X175895000Y-89662000D02*
X177520000Y-88037000D01*
X215620000Y-83430000D02*
X215285000Y-83095000D01*
X82250000Y-88037000D02*
X82250000Y-83557000D01*
X213975000Y-93980000D02*
X213975000Y-89625000D01*
X70575000Y-78918750D02*
X77648750Y-78918750D01*
X158470000Y-88037000D02*
X158470000Y-83557000D01*
X233025000Y-91841000D02*
X233025000Y-89625000D01*
X99695000Y-89662000D02*
X101320000Y-88037000D01*
X68745250Y-77089000D02*
X70575000Y-78918750D01*
X118725000Y-93980000D02*
X133858000Y-93980000D01*
X82250000Y-83557000D02*
X81915000Y-83222000D01*
X215620000Y-87910000D02*
X215620000Y-83430000D01*
X194925000Y-89625000D02*
X194925000Y-93960000D01*
X64674750Y-77089000D02*
X68745250Y-77089000D01*
X213995000Y-89535000D02*
X215620000Y-87910000D01*
X156825000Y-89625000D02*
X156825000Y-91293000D01*
X175895000Y-93980000D02*
X194945000Y-93980000D01*
X175875000Y-89625000D02*
X175875000Y-93960000D01*
X77648750Y-78918750D02*
X81915000Y-83185000D01*
X227076000Y-94488000D02*
X230378000Y-94488000D01*
X234670000Y-83557000D02*
X234335000Y-83222000D01*
X138213000Y-89625000D02*
X156825000Y-89625000D01*
X80625000Y-91547000D02*
X83058000Y-93980000D01*
X226568000Y-93980000D02*
X227076000Y-94488000D01*
X64135000Y-77628750D02*
X64674750Y-77089000D01*
X80625000Y-89625000D02*
X80625000Y-91547000D01*
X158470000Y-83557000D02*
X158135000Y-83222000D01*
X99675000Y-89625000D02*
X99675000Y-93960000D01*
X99695000Y-93980000D02*
X118725000Y-93980000D01*
X101320000Y-83557000D02*
X100985000Y-83222000D01*
X194925000Y-93960000D02*
X194945000Y-93980000D01*
X99675000Y-93960000D02*
X99695000Y-93980000D01*
X213975000Y-93980000D02*
X226568000Y-93980000D01*
X175875000Y-93960000D02*
X175895000Y-93980000D01*
X177520000Y-88037000D02*
X177520000Y-83557000D01*
X194945000Y-89662000D02*
X196570000Y-88037000D01*
X194945000Y-93980000D02*
X213975000Y-93980000D01*
X120370000Y-88037000D02*
X120370000Y-83557000D01*
X101320000Y-88037000D02*
X101320000Y-83557000D01*
X234670000Y-88037000D02*
X234670000Y-83557000D01*
X120370000Y-83557000D02*
X120035000Y-83222000D01*
X159512000Y-93980000D02*
X175895000Y-93980000D01*
X156845000Y-89662000D02*
X158470000Y-88037000D01*
X118745000Y-89662000D02*
X120370000Y-88037000D01*
X118725000Y-93980000D02*
X118725000Y-89625000D01*
X156825000Y-91293000D02*
X159512000Y-93980000D01*
X233045000Y-89662000D02*
X234670000Y-88037000D01*
X196570000Y-88037000D02*
X196570000Y-83557000D01*
X83058000Y-93980000D02*
X99695000Y-93980000D01*
%TO.N,ROW1*%
X214350000Y-68987000D02*
X214350000Y-64507000D01*
X208317000Y-70575000D02*
X206629000Y-72263000D01*
X150824250Y-78918750D02*
X156825000Y-72918000D01*
X82250000Y-64470000D02*
X81915000Y-64135000D01*
X187579000Y-72390000D02*
X187579000Y-77851000D01*
X206629000Y-77851000D02*
X217678000Y-77851000D01*
X196570000Y-68987000D02*
X196570000Y-64507000D01*
X168910000Y-77724000D02*
X169037000Y-77851000D01*
X158470000Y-68987000D02*
X158470000Y-64507000D01*
X214350000Y-64507000D02*
X214015000Y-64172000D01*
X170344000Y-70575000D02*
X168910000Y-72009000D01*
X118725000Y-70575000D02*
X120250000Y-69050000D01*
X156845000Y-70612000D02*
X158470000Y-68987000D01*
X99675000Y-70575000D02*
X101250000Y-69000000D01*
X156825000Y-72918000D02*
X156825000Y-70575000D01*
X112522000Y-71607022D02*
X112522000Y-73787000D01*
X168910000Y-72009000D02*
X168910000Y-77724000D01*
X140620750Y-77343000D02*
X145199250Y-77343000D01*
X100965000Y-64135000D02*
X100965000Y-59309000D01*
X158470000Y-64507000D02*
X158135000Y-64172000D01*
X206629000Y-72263000D02*
X206629000Y-77851000D01*
X101250000Y-64420000D02*
X100965000Y-64135000D01*
X156825000Y-70575000D02*
X157225000Y-70575000D01*
X177520000Y-68987000D02*
X177520000Y-64507000D01*
X164501000Y-77851000D02*
X169037000Y-77851000D01*
X212725000Y-70612000D02*
X214350000Y-68987000D01*
X86741000Y-59309000D02*
X100965000Y-59309000D01*
X137255250Y-74549000D02*
X140335000Y-77628750D01*
X234670000Y-64507000D02*
X234335000Y-64172000D01*
X101250000Y-69000000D02*
X101250000Y-64420000D01*
X120250000Y-69050000D02*
X120250000Y-64370000D01*
X196570000Y-64507000D02*
X196235000Y-64172000D01*
X217678000Y-77851000D02*
X224954000Y-70575000D01*
X120250000Y-64370000D02*
X120015000Y-64135000D01*
X113554022Y-70575000D02*
X112522000Y-71607022D01*
X115189000Y-59309000D02*
X120015000Y-64135000D01*
X234670000Y-68987000D02*
X234670000Y-64507000D01*
X189394000Y-70575000D02*
X187579000Y-72390000D01*
X118725000Y-70575000D02*
X113554022Y-70575000D01*
X140335000Y-77628750D02*
X140620750Y-77343000D01*
X113284000Y-74549000D02*
X137255250Y-74549000D01*
X194945000Y-70612000D02*
X196570000Y-68987000D01*
X82250000Y-68950000D02*
X82250000Y-64470000D01*
X100965000Y-59309000D02*
X115189000Y-59309000D01*
X157225000Y-70575000D02*
X164501000Y-77851000D01*
X233045000Y-70612000D02*
X234670000Y-68987000D01*
X145199250Y-77343000D02*
X146775000Y-78918750D01*
X169037000Y-77851000D02*
X187579000Y-77851000D01*
X175895000Y-70612000D02*
X177520000Y-68987000D01*
X194925000Y-70575000D02*
X189394000Y-70575000D01*
X187579000Y-77851000D02*
X206629000Y-77851000D01*
X175875000Y-70575000D02*
X170344000Y-70575000D01*
X224954000Y-70575000D02*
X233025000Y-70575000D01*
X146775000Y-78918750D02*
X150824250Y-78918750D01*
X81915000Y-64135000D02*
X86741000Y-59309000D01*
X212750000Y-70575000D02*
X208317000Y-70575000D01*
X112522000Y-73787000D02*
X113284000Y-74549000D01*
X177520000Y-64507000D02*
X177185000Y-64172000D01*
X80625000Y-70575000D02*
X82250000Y-68950000D01*
%TO.N,ROW3*%
X139275000Y-121545000D02*
X139040000Y-121310000D01*
X177275000Y-121545000D02*
X177040000Y-121310000D01*
X118750000Y-132500000D02*
X137750000Y-132500000D01*
X118725000Y-127725000D02*
X120250000Y-126200000D01*
X156825000Y-132425000D02*
X156750000Y-132500000D01*
X137750000Y-127750000D02*
X139275000Y-126225000D01*
X101250000Y-126150000D02*
X101250000Y-121570000D01*
X118725000Y-132475000D02*
X118750000Y-132500000D01*
X137750000Y-132500000D02*
X156750000Y-132500000D01*
X158275000Y-121545000D02*
X158040000Y-121310000D01*
X118725000Y-127725000D02*
X118725000Y-132475000D01*
X120250000Y-121520000D02*
X120015000Y-121285000D01*
X137775000Y-132475000D02*
X137750000Y-132500000D01*
X99675000Y-130675000D02*
X101500000Y-132500000D01*
X156750000Y-127750000D02*
X158275000Y-126225000D01*
X156750000Y-132500000D02*
X174000000Y-132500000D01*
X120250000Y-126200000D02*
X120250000Y-121520000D01*
X174000000Y-132500000D02*
X175875000Y-130625000D01*
X139275000Y-126225000D02*
X139275000Y-121545000D01*
X101500000Y-132500000D02*
X118750000Y-132500000D01*
X175750000Y-127750000D02*
X177275000Y-126225000D01*
X156825000Y-127725000D02*
X156825000Y-132425000D01*
X158275000Y-126225000D02*
X158275000Y-121545000D01*
X177275000Y-126225000D02*
X177275000Y-121545000D01*
X99675000Y-127725000D02*
X101250000Y-126150000D01*
X175875000Y-130625000D02*
X175875000Y-127725000D01*
X99675000Y-127725000D02*
X99675000Y-130675000D01*
X137775000Y-127725000D02*
X137775000Y-132475000D01*
X101250000Y-121570000D02*
X100965000Y-121285000D01*
%TD*%
M02*
