%TF.GenerationSoftware,KiCad,Pcbnew,(6.0.9)*%
%TF.CreationDate,2023-02-21T23:40:31+05:30*%
%TF.ProjectId,Peridot Steno,50657269-646f-4742-9053-74656e6f2e6b,rev?*%
%TF.SameCoordinates,Original*%
%TF.FileFunction,Copper,L2,Bot*%
%TF.FilePolarity,Positive*%
%FSLAX46Y46*%
G04 Gerber Fmt 4.6, Leading zero omitted, Abs format (unit mm)*
G04 Created by KiCad (PCBNEW (6.0.9)) date 2023-02-21 23:40:31*
%MOMM*%
%LPD*%
G01*
G04 APERTURE LIST*
%TA.AperFunction,WasherPad*%
%ADD10C,1.900000*%
%TD*%
%TA.AperFunction,WasherPad*%
%ADD11C,2.100000*%
%TD*%
%TA.AperFunction,ComponentPad*%
%ADD12O,2.800000X2.000000*%
%TD*%
%TA.AperFunction,ComponentPad*%
%ADD13O,2.500000X2.000000*%
%TD*%
%TA.AperFunction,ComponentPad*%
%ADD14O,2.000000X2.500000*%
%TD*%
%TA.AperFunction,ComponentPad*%
%ADD15O,2.000000X2.800000*%
%TD*%
%TA.AperFunction,ComponentPad*%
%ADD16C,1.800000*%
%TD*%
%TA.AperFunction,ComponentPad*%
%ADD17R,1.752600X1.752600*%
%TD*%
%TA.AperFunction,ComponentPad*%
%ADD18C,1.752600*%
%TD*%
%TA.AperFunction,ComponentPad*%
%ADD19R,1.600000X1.600000*%
%TD*%
%TA.AperFunction,ComponentPad*%
%ADD20O,1.600000X1.600000*%
%TD*%
%TA.AperFunction,ComponentPad*%
%ADD21R,2.000000X2.000000*%
%TD*%
%TA.AperFunction,Conductor*%
%ADD22C,0.250000*%
%TD*%
%TA.AperFunction,Conductor*%
%ADD23C,1.000000*%
%TD*%
G04 APERTURE END LIST*
D10*
%TO.P,SW26,*%
%TO.N,*%
X156845000Y-66675000D03*
D11*
X167425000Y-66675000D03*
D10*
X167005000Y-66675000D03*
D11*
X156425000Y-66675000D03*
D12*
%TO.P,SW26,1,1*%
%TO.N,ROW1*%
X156825000Y-70575000D03*
D13*
X158115000Y-64135000D03*
%TO.P,SW26,2,2*%
%TO.N,Net-(D25-Pad2)*%
X164465000Y-61595000D03*
D12*
X161925000Y-72575000D03*
%TD*%
D11*
%TO.P,SW19,*%
%TO.N,*%
X99275000Y-123825000D03*
D10*
X99695000Y-123825000D03*
D11*
X110275000Y-123825000D03*
D10*
X109855000Y-123825000D03*
D13*
%TO.P,SW19,1,1*%
%TO.N,ROW3*%
X100965000Y-121285000D03*
D12*
X99675000Y-127725000D03*
%TO.P,SW19,2,2*%
%TO.N,Net-(D18-Pad2)*%
X104775000Y-129725000D03*
D13*
X107315000Y-118745000D03*
%TD*%
D11*
%TO.P,SW17,*%
%TO.N,*%
X118325000Y-66675000D03*
D10*
X128905000Y-66675000D03*
D11*
X129325000Y-66675000D03*
D10*
X118745000Y-66675000D03*
D13*
%TO.P,SW17,1,1*%
%TO.N,ROW1*%
X120015000Y-64135000D03*
D12*
X118725000Y-70575000D03*
%TO.P,SW17,2,2*%
%TO.N,Net-(D16-Pad2)*%
X123825000Y-72575000D03*
D13*
X126365000Y-61595000D03*
%TD*%
D11*
%TO.P,SW42,*%
%TO.N,*%
X232625000Y-66675000D03*
D10*
X243205000Y-66675000D03*
X233045000Y-66675000D03*
D11*
X243625000Y-66675000D03*
D13*
%TO.P,SW42,1,1*%
%TO.N,ROW1*%
X234315000Y-64135000D03*
D12*
X233025000Y-70575000D03*
%TO.P,SW42,2,2*%
%TO.N,Net-(D41-Pad2)*%
X238125000Y-72575000D03*
D13*
X240665000Y-61595000D03*
%TD*%
D11*
%TO.P,SW27,*%
%TO.N,*%
X156425000Y-85725000D03*
D10*
X167005000Y-85725000D03*
X156845000Y-85725000D03*
D11*
X167425000Y-85725000D03*
D12*
%TO.P,SW27,1,1*%
%TO.N,ROW2*%
X156825000Y-89625000D03*
D13*
X158115000Y-83185000D03*
D12*
%TO.P,SW27,2,2*%
%TO.N,Net-(D26-Pad2)*%
X161925000Y-91625000D03*
D13*
X164465000Y-80645000D03*
%TD*%
D11*
%TO.P,SW36,*%
%TO.N,*%
X186475000Y-123825000D03*
X175475000Y-123825000D03*
D10*
X175895000Y-123825000D03*
X186055000Y-123825000D03*
D12*
%TO.P,SW36,1,1*%
%TO.N,ROW3*%
X175875000Y-127725000D03*
D13*
X177165000Y-121285000D03*
D12*
%TO.P,SW36,2,2*%
%TO.N,Net-(D35-Pad2)*%
X180975000Y-129725000D03*
D13*
X183515000Y-118745000D03*
%TD*%
D10*
%TO.P,SW21,*%
%TO.N,*%
X142875000Y-68738750D03*
D11*
X142875000Y-79318750D03*
D10*
X142875000Y-78898750D03*
D11*
X142875000Y-68318750D03*
D14*
%TO.P,SW21,1,1*%
%TO.N,ROW1*%
X140335000Y-77628750D03*
D15*
X146775000Y-78918750D03*
%TO.P,SW21,2,2*%
%TO.N,Net-(D20-Pad2)*%
X148775000Y-73818750D03*
D14*
X137795000Y-71278750D03*
%TD*%
D11*
%TO.P,SW32,*%
%TO.N,*%
X167425000Y-123825000D03*
D10*
X156845000Y-123825000D03*
X167005000Y-123825000D03*
D11*
X156425000Y-123825000D03*
D13*
%TO.P,SW32,1,1*%
%TO.N,ROW3*%
X158115000Y-121285000D03*
D12*
X156825000Y-127725000D03*
D13*
%TO.P,SW32,2,2*%
%TO.N,Net-(D31-Pad2)*%
X164465000Y-118745000D03*
D12*
X161925000Y-129725000D03*
%TD*%
D10*
%TO.P,SW28,*%
%TO.N,*%
X147955000Y-123825000D03*
X137795000Y-123825000D03*
D11*
X148375000Y-123825000D03*
X137375000Y-123825000D03*
D12*
%TO.P,SW28,1,1*%
%TO.N,ROW3*%
X137775000Y-127725000D03*
D13*
X139065000Y-121285000D03*
D12*
%TO.P,SW28,2,2*%
%TO.N,Net-(D27-Pad2)*%
X142875000Y-129725000D03*
D13*
X145415000Y-118745000D03*
%TD*%
D11*
%TO.P,SW33,*%
%TO.N,*%
X204050000Y-47625000D03*
X215050000Y-47625000D03*
D10*
X214630000Y-47625000D03*
X204470000Y-47625000D03*
D12*
%TO.P,SW33,1,1*%
%TO.N,ROW0*%
X204450000Y-51525000D03*
D13*
X205740000Y-45085000D03*
D12*
%TO.P,SW33,2,2*%
%TO.N,Net-(D32-Pad2)*%
X209550000Y-53525000D03*
D13*
X212090000Y-42545000D03*
%TD*%
D11*
%TO.P,SW34,*%
%TO.N,*%
X205525000Y-66675000D03*
D10*
X205105000Y-66675000D03*
X194945000Y-66675000D03*
D11*
X194525000Y-66675000D03*
D13*
%TO.P,SW34,1,1*%
%TO.N,ROW1*%
X196215000Y-64135000D03*
D12*
X194925000Y-70575000D03*
%TO.P,SW34,2,2*%
%TO.N,Net-(D33-Pad2)*%
X200025000Y-72575000D03*
D13*
X202565000Y-61595000D03*
%TD*%
D11*
%TO.P,SW39,*%
%TO.N,*%
X224575000Y-85725000D03*
D10*
X213995000Y-85725000D03*
X224155000Y-85725000D03*
D11*
X213575000Y-85725000D03*
D13*
%TO.P,SW39,1,1*%
%TO.N,ROW2*%
X215265000Y-83185000D03*
D12*
X213975000Y-89625000D03*
D13*
%TO.P,SW39,2,2*%
%TO.N,Net-(D38-Pad2)*%
X221615000Y-80645000D03*
D12*
X219075000Y-91625000D03*
%TD*%
D11*
%TO.P,SW31,*%
%TO.N,*%
X186475000Y-85725000D03*
X175475000Y-85725000D03*
D10*
X186055000Y-85725000D03*
X175895000Y-85725000D03*
D13*
%TO.P,SW31,1,1*%
%TO.N,ROW2*%
X177165000Y-83185000D03*
D12*
X175875000Y-89625000D03*
%TO.P,SW31,2,2*%
%TO.N,Net-(D30-Pad2)*%
X180975000Y-91625000D03*
D13*
X183515000Y-80645000D03*
%TD*%
D10*
%TO.P,SW9,*%
%TO.N,*%
X80645000Y-85725000D03*
D11*
X80225000Y-85725000D03*
X91225000Y-85725000D03*
D10*
X90805000Y-85725000D03*
D13*
%TO.P,SW9,1,1*%
%TO.N,ROW2*%
X81915000Y-83185000D03*
D12*
X80625000Y-89625000D03*
D13*
%TO.P,SW9,2,2*%
%TO.N,Net-(D8-Pad2)*%
X88265000Y-80645000D03*
D12*
X85725000Y-91625000D03*
%TD*%
D16*
%TO.P,U1,1,TX*%
%TO.N,unconnected-(U1-Pad1)*%
X135255000Y-28892500D03*
%TO.P,U1,2,RX*%
%TO.N,unconnected-(U1-Pad2)*%
X135255000Y-31432500D03*
%TO.P,U1,3,GND*%
%TO.N,GND*%
X135255000Y-33972500D03*
%TO.P,U1,4,GND*%
X135255000Y-36512500D03*
%TO.P,U1,5,SDA*%
%TO.N,unconnected-(U1-Pad5)*%
X135255000Y-39052500D03*
%TO.P,U1,6,SCL*%
%TO.N,LED_DAT*%
X135255000Y-41592500D03*
%TO.P,U1,7,D4*%
%TO.N,COL0*%
X135255000Y-44132500D03*
%TO.P,U1,8,C6*%
%TO.N,COL1*%
X135255000Y-46672500D03*
%TO.P,U1,9,D7*%
%TO.N,COL2*%
X135255000Y-49212500D03*
%TO.P,U1,10,E6*%
%TO.N,COL3*%
X135255000Y-51752500D03*
%TO.P,U1,11,B4*%
%TO.N,COL4*%
X135255000Y-54292500D03*
%TO.P,U1,12,B5*%
%TO.N,COL5*%
X135255000Y-56832500D03*
%TO.P,U1,13,B6*%
%TO.N,COL6*%
X150495000Y-56832500D03*
%TO.P,U1,14,B2*%
%TO.N,COL7*%
X150495000Y-54292500D03*
%TO.P,U1,15,B3*%
%TO.N,COL8*%
X150495000Y-51752500D03*
%TO.P,U1,16,B1*%
%TO.N,COL9*%
X150495000Y-49212500D03*
%TO.P,U1,17,F7*%
%TO.N,ROW3*%
X150495000Y-46672500D03*
%TO.P,U1,18,F6*%
%TO.N,ROW2*%
X150495000Y-44132500D03*
%TO.P,U1,19,F5*%
%TO.N,ROW1*%
X150495000Y-41592500D03*
%TO.P,U1,20,F4*%
%TO.N,ROW0*%
X150495000Y-39052500D03*
%TO.P,U1,21,VCC*%
%TO.N,unconnected-(U1-Pad21)*%
X150495000Y-36512500D03*
%TO.P,U1,22,RST*%
%TO.N,RESET*%
X150495000Y-33972500D03*
%TO.P,U1,23,GND*%
%TO.N,GND*%
X150495000Y-31432500D03*
%TO.P,U1,24,RAW*%
%TO.N,+5V*%
X150495000Y-28892500D03*
%TD*%
D11*
%TO.P,SW12,*%
%TO.N,*%
X110275000Y-66675000D03*
X99275000Y-66675000D03*
D10*
X109855000Y-66675000D03*
X99695000Y-66675000D03*
D12*
%TO.P,SW12,1,1*%
%TO.N,ROW1*%
X99675000Y-70575000D03*
D13*
X100965000Y-64135000D03*
D12*
%TO.P,SW12,2,2*%
%TO.N,Net-(D11-Pad2)*%
X104775000Y-72575000D03*
D13*
X107315000Y-61595000D03*
%TD*%
D11*
%TO.P,SW4,*%
%TO.N,*%
X66675000Y-68318750D03*
D10*
X66675000Y-78898750D03*
D11*
X66675000Y-79318750D03*
D10*
X66675000Y-68738750D03*
D15*
%TO.P,SW4,1,1*%
%TO.N,ROW2*%
X70575000Y-78918750D03*
D14*
X64135000Y-77628750D03*
D15*
%TO.P,SW4,2,2*%
%TO.N,Net-(D3-Pad2)*%
X72575000Y-73818750D03*
D14*
X61595000Y-71278750D03*
%TD*%
D10*
%TO.P,SW11,*%
%TO.N,*%
X109220000Y-47625000D03*
D11*
X108800000Y-47625000D03*
X119800000Y-47625000D03*
D10*
X119380000Y-47625000D03*
D13*
%TO.P,SW11,1,1*%
%TO.N,ROW0*%
X110490000Y-45085000D03*
D12*
X109200000Y-51525000D03*
D13*
%TO.P,SW11,2,2*%
%TO.N,Net-(D10-Pad2)*%
X116840000Y-42545000D03*
D12*
X114300000Y-53525000D03*
%TD*%
D17*
%TO.P,SW1,1,1*%
%TO.N,GND*%
X240506250Y-51746150D03*
D18*
%TO.P,SW1,2,2*%
%TO.N,RESET*%
X240506250Y-45243750D03*
%TD*%
D11*
%TO.P,SW38,*%
%TO.N,*%
X223350000Y-66675000D03*
X212350000Y-66675000D03*
D10*
X222930000Y-66675000D03*
X212770000Y-66675000D03*
D12*
%TO.P,SW38,1,1*%
%TO.N,ROW1*%
X212750000Y-70575000D03*
D13*
X214040000Y-64135000D03*
D12*
%TO.P,SW38,2,2*%
%TO.N,Net-(D37-Pad2)*%
X217850000Y-72575000D03*
D13*
X220390000Y-61595000D03*
%TD*%
D11*
%TO.P,SW2,*%
%TO.N,*%
X81700000Y-47625000D03*
X70700000Y-47625000D03*
D10*
X81280000Y-47625000D03*
X71120000Y-47625000D03*
D12*
%TO.P,SW2,1,1*%
%TO.N,ROW0*%
X71100000Y-51525000D03*
D13*
X72390000Y-45085000D03*
%TO.P,SW2,2,2*%
%TO.N,Net-(D1-Pad2)*%
X78740000Y-42545000D03*
D12*
X76200000Y-53525000D03*
%TD*%
D11*
%TO.P,SW35,*%
%TO.N,*%
X205525000Y-85725000D03*
D10*
X194945000Y-85725000D03*
X205105000Y-85725000D03*
D11*
X194525000Y-85725000D03*
D13*
%TO.P,SW35,1,1*%
%TO.N,ROW2*%
X196215000Y-83185000D03*
D12*
X194925000Y-89625000D03*
D13*
%TO.P,SW35,2,2*%
%TO.N,Net-(D34-Pad2)*%
X202565000Y-80645000D03*
D12*
X200025000Y-91625000D03*
%TD*%
D10*
%TO.P,SW23,*%
%TO.N,*%
X118745000Y-123825000D03*
X128905000Y-123825000D03*
D11*
X118325000Y-123825000D03*
X129325000Y-123825000D03*
D12*
%TO.P,SW23,1,1*%
%TO.N,ROW3*%
X118725000Y-127725000D03*
D13*
X120015000Y-121285000D03*
%TO.P,SW23,2,2*%
%TO.N,Net-(D22-Pad2)*%
X126365000Y-118745000D03*
D12*
X123825000Y-129725000D03*
%TD*%
D11*
%TO.P,SW25,*%
%TO.N,*%
X165950000Y-47625000D03*
D10*
X166370000Y-47625000D03*
X176530000Y-47625000D03*
D11*
X176950000Y-47625000D03*
D12*
%TO.P,SW25,1,1*%
%TO.N,ROW0*%
X166350000Y-51525000D03*
D13*
X167640000Y-45085000D03*
%TO.P,SW25,2,2*%
%TO.N,Net-(D24-Pad2)*%
X173990000Y-42545000D03*
D12*
X171450000Y-53525000D03*
%TD*%
D10*
%TO.P,SW30,*%
%TO.N,*%
X175895000Y-66675000D03*
X186055000Y-66675000D03*
D11*
X175475000Y-66675000D03*
X186475000Y-66675000D03*
D12*
%TO.P,SW30,1,1*%
%TO.N,ROW1*%
X175875000Y-70575000D03*
D13*
X177165000Y-64135000D03*
%TO.P,SW30,2,2*%
%TO.N,Net-(D29-Pad2)*%
X183515000Y-61595000D03*
D12*
X180975000Y-72575000D03*
%TD*%
D10*
%TO.P,SW43,*%
%TO.N,*%
X243205000Y-85725000D03*
D11*
X243625000Y-85725000D03*
X232625000Y-85725000D03*
D10*
X233045000Y-85725000D03*
D13*
%TO.P,SW43,1,1*%
%TO.N,ROW2*%
X234315000Y-83185000D03*
D12*
X233025000Y-89625000D03*
%TO.P,SW43,2,2*%
%TO.N,Net-(D42-Pad2)*%
X238125000Y-91625000D03*
D13*
X240665000Y-80645000D03*
%TD*%
D11*
%TO.P,SW8,*%
%TO.N,*%
X80225000Y-66675000D03*
D10*
X90805000Y-66675000D03*
D11*
X91225000Y-66675000D03*
D10*
X80645000Y-66675000D03*
D12*
%TO.P,SW8,1,1*%
%TO.N,ROW1*%
X80625000Y-70575000D03*
D13*
X81915000Y-64135000D03*
%TO.P,SW8,2,2*%
%TO.N,Net-(D7-Pad2)*%
X88265000Y-61595000D03*
D12*
X85725000Y-72575000D03*
%TD*%
D10*
%TO.P,SW13,*%
%TO.N,*%
X109855000Y-85725000D03*
D11*
X99275000Y-85725000D03*
X110275000Y-85725000D03*
D10*
X99695000Y-85725000D03*
D13*
%TO.P,SW13,1,1*%
%TO.N,ROW2*%
X100965000Y-83185000D03*
D12*
X99675000Y-89625000D03*
%TO.P,SW13,2,2*%
%TO.N,Net-(D12-Pad2)*%
X104775000Y-91625000D03*
D13*
X107315000Y-80645000D03*
%TD*%
D11*
%TO.P,SW18,*%
%TO.N,*%
X129325000Y-85725000D03*
X118325000Y-85725000D03*
D10*
X118745000Y-85725000D03*
X128905000Y-85725000D03*
D13*
%TO.P,SW18,1,1*%
%TO.N,ROW2*%
X120015000Y-83185000D03*
D12*
X118725000Y-89625000D03*
%TO.P,SW18,2,2*%
%TO.N,Net-(D17-Pad2)*%
X123825000Y-91625000D03*
D13*
X126365000Y-80645000D03*
%TD*%
D19*
%TO.P,D27,1,K*%
%TO.N,COL4*%
X152400000Y-117633750D03*
D20*
%TO.P,D27,2,A*%
%TO.N,Net-(D27-Pad2)*%
X152400000Y-125253750D03*
%TD*%
D19*
%TO.P,D41,1,K*%
%TO.N,COL9*%
X228600000Y-65246250D03*
D20*
%TO.P,D41,2,A*%
%TO.N,Net-(D41-Pad2)*%
X228600000Y-72866250D03*
%TD*%
D19*
%TO.P,D33,1,K*%
%TO.N,COL7*%
X190500000Y-65246250D03*
D20*
%TO.P,D33,2,A*%
%TO.N,Net-(D33-Pad2)*%
X190500000Y-72866250D03*
%TD*%
D19*
%TO.P,D30,1,K*%
%TO.N,COL6*%
X190500000Y-84296250D03*
D20*
%TO.P,D30,2,A*%
%TO.N,Net-(D30-Pad2)*%
X190500000Y-91916250D03*
%TD*%
D19*
%TO.P,D31,1,K*%
%TO.N,COL5*%
X171450000Y-117633750D03*
D20*
%TO.P,D31,2,A*%
%TO.N,Net-(D31-Pad2)*%
X171450000Y-125253750D03*
%TD*%
D19*
%TO.P,D12,1,K*%
%TO.N,COL2*%
X114300000Y-84296250D03*
D20*
%TO.P,D12,2,A*%
%TO.N,Net-(D12-Pad2)*%
X114300000Y-91916250D03*
%TD*%
D19*
%TO.P,D22,1,K*%
%TO.N,COL3*%
X133350000Y-117633750D03*
D20*
%TO.P,D22,2,A*%
%TO.N,Net-(D22-Pad2)*%
X133350000Y-125253750D03*
%TD*%
D19*
%TO.P,D42,1,K*%
%TO.N,COL9*%
X234315000Y-76200000D03*
D20*
%TO.P,D42,2,A*%
%TO.N,Net-(D42-Pad2)*%
X241935000Y-76200000D03*
%TD*%
D19*
%TO.P,D37,1,K*%
%TO.N,COL8*%
X209550000Y-65246250D03*
D20*
%TO.P,D37,2,A*%
%TO.N,Net-(D37-Pad2)*%
X209550000Y-72866250D03*
%TD*%
D19*
%TO.P,D1,1,K*%
%TO.N,COL0*%
X88106250Y-51435000D03*
D20*
%TO.P,D1,2,A*%
%TO.N,Net-(D1-Pad2)*%
X88106250Y-43815000D03*
%TD*%
D19*
%TO.P,D17,1,K*%
%TO.N,COL3*%
X119380000Y-76200000D03*
D20*
%TO.P,D17,2,A*%
%TO.N,Net-(D17-Pad2)*%
X127000000Y-76200000D03*
%TD*%
D19*
%TO.P,D29,1,K*%
%TO.N,COL6*%
X171450000Y-65246250D03*
D20*
%TO.P,D29,2,A*%
%TO.N,Net-(D29-Pad2)*%
X171450000Y-72866250D03*
%TD*%
D21*
%TO.P,J3,1,Pin_1*%
%TO.N,GND*%
X227330000Y-58420000D03*
%TD*%
D19*
%TO.P,D38,1,K*%
%TO.N,COL8*%
X228600000Y-79533750D03*
D20*
%TO.P,D38,2,A*%
%TO.N,Net-(D38-Pad2)*%
X228600000Y-87153750D03*
%TD*%
D19*
%TO.P,D25,1,K*%
%TO.N,COL5*%
X158115000Y-76200000D03*
D20*
%TO.P,D25,2,A*%
%TO.N,Net-(D25-Pad2)*%
X165735000Y-76200000D03*
%TD*%
D19*
%TO.P,D3,1,K*%
%TO.N,COL0*%
X76200000Y-67627500D03*
D20*
%TO.P,D3,2,A*%
%TO.N,Net-(D3-Pad2)*%
X76200000Y-75247500D03*
%TD*%
D21*
%TO.P,J1,1,Pin_1*%
%TO.N,+5V*%
X231140000Y-58420000D03*
%TD*%
D19*
%TO.P,D26,1,K*%
%TO.N,COL5*%
X171450000Y-84296250D03*
D20*
%TO.P,D26,2,A*%
%TO.N,Net-(D26-Pad2)*%
X171450000Y-91916250D03*
%TD*%
D19*
%TO.P,D16,1,K*%
%TO.N,COL3*%
X114300000Y-65246250D03*
D20*
%TO.P,D16,2,A*%
%TO.N,Net-(D16-Pad2)*%
X114300000Y-72866250D03*
%TD*%
D21*
%TO.P,J2,1,Pin_1*%
%TO.N,LED_DAT*%
X234950000Y-58420000D03*
%TD*%
D19*
%TO.P,D11,1,K*%
%TO.N,COL2*%
X95250000Y-65246250D03*
D20*
%TO.P,D11,2,A*%
%TO.N,Net-(D11-Pad2)*%
X95250000Y-72866250D03*
%TD*%
D19*
%TO.P,D7,1,K*%
%TO.N,COL1*%
X89535000Y-76200000D03*
D20*
%TO.P,D7,2,A*%
%TO.N,Net-(D7-Pad2)*%
X81915000Y-76200000D03*
%TD*%
D19*
%TO.P,D24,1,K*%
%TO.N,COL5*%
X183356250Y-52070000D03*
D20*
%TO.P,D24,2,A*%
%TO.N,Net-(D24-Pad2)*%
X183356250Y-44450000D03*
%TD*%
D19*
%TO.P,D8,1,K*%
%TO.N,COL1*%
X95250000Y-84296250D03*
D20*
%TO.P,D8,2,A*%
%TO.N,Net-(D8-Pad2)*%
X95250000Y-91916250D03*
%TD*%
D19*
%TO.P,D32,1,K*%
%TO.N,COL7*%
X196850000Y-52070000D03*
D20*
%TO.P,D32,2,A*%
%TO.N,Net-(D32-Pad2)*%
X196850000Y-44450000D03*
%TD*%
D19*
%TO.P,D10,1,K*%
%TO.N,COL2*%
X126206250Y-51435000D03*
D20*
%TO.P,D10,2,A*%
%TO.N,Net-(D10-Pad2)*%
X126206250Y-43815000D03*
%TD*%
D19*
%TO.P,D34,1,K*%
%TO.N,COL7*%
X209550000Y-84296250D03*
D20*
%TO.P,D34,2,A*%
%TO.N,Net-(D34-Pad2)*%
X209550000Y-91916250D03*
%TD*%
D19*
%TO.P,D35,1,K*%
%TO.N,COL6*%
X187166250Y-114300000D03*
D20*
%TO.P,D35,2,A*%
%TO.N,Net-(D35-Pad2)*%
X179546250Y-114300000D03*
%TD*%
D19*
%TO.P,D18,1,K*%
%TO.N,COL2*%
X114300000Y-117633750D03*
D20*
%TO.P,D18,2,A*%
%TO.N,Net-(D18-Pad2)*%
X114300000Y-125253750D03*
%TD*%
D19*
%TO.P,D20,1,K*%
%TO.N,COL4*%
X153670000Y-80010000D03*
D20*
%TO.P,D20,2,A*%
%TO.N,Net-(D20-Pad2)*%
X153670000Y-72390000D03*
%TD*%
D22*
%TO.N,COL0*%
X85598000Y-51435000D02*
X78740000Y-58293000D01*
X78740000Y-63373000D02*
X76200000Y-65913000D01*
X78740000Y-58293000D02*
X78740000Y-63373000D01*
X88106250Y-51435000D02*
X85598000Y-51435000D01*
X76200000Y-65913000D02*
X76200000Y-67627500D01*
%TO.N,COL1*%
X135255000Y-46672500D02*
X124142500Y-46672500D01*
X119380000Y-51435000D02*
X112649000Y-51435000D01*
X89281000Y-65532000D02*
X89281000Y-75946000D01*
X89281000Y-75946000D02*
X89535000Y-76200000D01*
X110572901Y-53511099D02*
X101301901Y-53511099D01*
X124142500Y-46672500D02*
X119380000Y-51435000D01*
X101301901Y-53511099D02*
X89281000Y-65532000D01*
X112649000Y-51435000D02*
X110572901Y-53511099D01*
%TO.N,COL2*%
X135255000Y-49212500D02*
X128428750Y-49212500D01*
X114300000Y-88646000D02*
X112522000Y-90424000D01*
X114300000Y-84296250D02*
X114300000Y-88646000D01*
X128428750Y-49212500D02*
X126206250Y-51435000D01*
X101949250Y-58547000D02*
X95250000Y-65246250D01*
X112522000Y-90424000D02*
X112522000Y-115855750D01*
X126206250Y-51435000D02*
X122428000Y-51435000D01*
X112522000Y-115855750D02*
X114300000Y-117633750D01*
X102616000Y-77470000D02*
X109855000Y-77470000D01*
X109855000Y-77470000D02*
X114300000Y-81915000D01*
X122428000Y-51435000D02*
X115316000Y-58547000D01*
X95250000Y-65246250D02*
X95250000Y-70104000D01*
X115316000Y-58547000D02*
X101949250Y-58547000D01*
X114300000Y-81915000D02*
X114300000Y-84296250D01*
X95250000Y-70104000D02*
X102616000Y-77470000D01*
%TO.N,COL3*%
X128778000Y-53213000D02*
X123825000Y-53213000D01*
X114300000Y-70443701D02*
X119380000Y-75523701D01*
X121666000Y-78486000D02*
X126746000Y-78486000D01*
X119380000Y-76200000D02*
X121666000Y-78486000D01*
X126746000Y-78486000D02*
X133350000Y-85090000D01*
X119380000Y-75523701D02*
X119380000Y-76200000D01*
X135255000Y-51752500D02*
X130238500Y-51752500D01*
X114300000Y-62738000D02*
X114300000Y-65246250D01*
X123825000Y-53213000D02*
X114300000Y-62738000D01*
X114300000Y-65246250D02*
X114300000Y-70443701D01*
X130238500Y-51752500D02*
X128778000Y-53213000D01*
X133350000Y-85090000D02*
X133350000Y-117633750D01*
%TO.N,COL4*%
X144145000Y-70866000D02*
X140589000Y-70866000D01*
X132080000Y-55626000D02*
X133413500Y-54292500D01*
X133413500Y-54292500D02*
X135255000Y-54292500D01*
X152400000Y-117633750D02*
X152400000Y-93853000D01*
X140589000Y-70866000D02*
X132080000Y-62357000D01*
X152400000Y-93853000D02*
X153670000Y-92583000D01*
X146177000Y-72898000D02*
X144145000Y-70866000D01*
X150622000Y-76962000D02*
X148717000Y-76962000D01*
X132080000Y-62357000D02*
X132080000Y-55626000D01*
X153670000Y-92583000D02*
X153670000Y-80010000D01*
X153670000Y-80010000D02*
X150622000Y-76962000D01*
X148717000Y-76962000D02*
X146177000Y-74422000D01*
X146177000Y-74422000D02*
X146177000Y-72898000D01*
%TO.N,COL5*%
X159258000Y-71247000D02*
X158115000Y-72390000D01*
X171450000Y-84296250D02*
X173101000Y-85947250D01*
X173101000Y-85947250D02*
X173101000Y-93980000D01*
X159258000Y-65659000D02*
X159258000Y-71247000D01*
X158115000Y-76200000D02*
X163322000Y-76200000D01*
X158115000Y-72390000D02*
X158115000Y-76200000D01*
X164338000Y-57912000D02*
X161163000Y-61087000D01*
X183356250Y-52070000D02*
X177514250Y-57912000D01*
X171418250Y-84296250D02*
X171450000Y-84296250D01*
X161163000Y-63754000D02*
X159258000Y-65659000D01*
X163322000Y-76200000D02*
X171418250Y-84296250D01*
X177514250Y-57912000D02*
X164338000Y-57912000D01*
X173101000Y-93980000D02*
X171450000Y-95631000D01*
X161163000Y-61087000D02*
X161163000Y-63754000D01*
X171450000Y-95631000D02*
X171450000Y-117633750D01*
%TO.N,COL6*%
X190500000Y-84296250D02*
X190500000Y-82169000D01*
X190500000Y-84296250D02*
X190500000Y-87757000D01*
X190500000Y-82169000D02*
X185420000Y-77089000D01*
X171450000Y-69596000D02*
X171450000Y-65246250D01*
X178943000Y-77089000D02*
X171450000Y-69596000D01*
X190500000Y-87757000D02*
X187166250Y-91090750D01*
X185420000Y-77089000D02*
X178943000Y-77089000D01*
X187166250Y-91090750D02*
X187166250Y-114300000D01*
%TO.N,COL7*%
X209550000Y-82550000D02*
X209550000Y-84296250D01*
X190500000Y-69850000D02*
X198501000Y-77851000D01*
X190500000Y-65246250D02*
X190500000Y-58420000D01*
X190500000Y-58420000D02*
X196850000Y-52070000D01*
X190500000Y-65246250D02*
X190500000Y-69850000D01*
X198501000Y-77851000D02*
X204851000Y-77851000D01*
X204851000Y-77851000D02*
X209550000Y-82550000D01*
%TO.N,COL8*%
X228600000Y-79502000D02*
X228600000Y-79533750D01*
X209550000Y-65246250D02*
X209550000Y-69850000D01*
X217297000Y-77597000D02*
X226695000Y-77597000D01*
X226695000Y-77597000D02*
X228600000Y-79502000D01*
X209550000Y-69850000D02*
X217297000Y-77597000D01*
%TO.N,COL9*%
X234315000Y-75184000D02*
X234315000Y-76200000D01*
X228600000Y-69469000D02*
X234315000Y-75184000D01*
X228600000Y-65246250D02*
X228600000Y-69469000D01*
D23*
%TO.N,GND*%
X227330000Y-58420000D02*
X226695000Y-57785000D01*
X196215000Y-49530000D02*
X203073000Y-42672000D01*
X203073000Y-42672000D02*
X207437056Y-42672000D01*
X142557500Y-33972500D02*
X145097500Y-31432500D01*
X226695000Y-57785000D02*
X226695000Y-51862056D01*
X151320500Y-31432500D02*
X152654000Y-32766000D01*
X207437056Y-42672000D02*
X209469056Y-40640000D01*
X184195392Y-49530000D02*
X196215000Y-49530000D01*
X226648944Y-51816000D02*
X240436400Y-51816000D01*
X150495000Y-31432500D02*
X151320500Y-31432500D01*
X171577000Y-40513000D02*
X175178392Y-40513000D01*
X209469056Y-40640000D02*
X215472944Y-40640000D01*
X135255000Y-33972500D02*
X142557500Y-33972500D01*
X226695000Y-51862056D02*
X226648944Y-51816000D01*
X164973000Y-42418000D02*
X169672000Y-42418000D01*
X163068000Y-44323000D02*
X164973000Y-42418000D01*
X175178392Y-40513000D02*
X184195392Y-49530000D01*
X135255000Y-33972500D02*
X135255000Y-36512500D01*
X152654000Y-40386000D02*
X156591000Y-44323000D01*
X215472944Y-40640000D02*
X226648944Y-51816000D01*
X169672000Y-42418000D02*
X171577000Y-40513000D01*
X156591000Y-44323000D02*
X163068000Y-44323000D01*
X152654000Y-32766000D02*
X152654000Y-40386000D01*
X240436400Y-51816000D02*
X240506250Y-51746150D01*
X145097500Y-31432500D02*
X150495000Y-31432500D01*
%TO.N,+5V*%
X150495000Y-28892500D02*
X153854000Y-32251500D01*
X184692448Y-48330000D02*
X195717944Y-48330000D01*
X206940000Y-41472000D02*
X209042000Y-39370000D01*
X157088056Y-43123000D02*
X162570944Y-43123000D01*
X215900000Y-39370000D02*
X226314000Y-49784000D01*
X175605448Y-39243000D02*
X184692448Y-48330000D01*
X202575944Y-41472000D02*
X206940000Y-41472000D01*
X241808000Y-49784000D02*
X243078000Y-51054000D01*
X243078000Y-52705000D02*
X241935000Y-53848000D01*
X169174944Y-41218000D02*
X171149944Y-39243000D01*
X153854000Y-39888944D02*
X157088056Y-43123000D01*
X195717944Y-48330000D02*
X202575944Y-41472000D01*
X171149944Y-39243000D02*
X175605448Y-39243000D01*
X243078000Y-51054000D02*
X243078000Y-52705000D01*
X233172000Y-53848000D02*
X231140000Y-55880000D01*
X209042000Y-39370000D02*
X215900000Y-39370000D01*
X241935000Y-53848000D02*
X233172000Y-53848000D01*
X162570944Y-43123000D02*
X164475944Y-41218000D01*
X164475944Y-41218000D02*
X169174944Y-41218000D01*
X226314000Y-49784000D02*
X241808000Y-49784000D01*
X153854000Y-32251500D02*
X153854000Y-39888944D01*
X231140000Y-55880000D02*
X231140000Y-58420000D01*
D22*
%TO.N,ROW2*%
X150495000Y-44132500D02*
X147574000Y-47053500D01*
X158115000Y-79996643D02*
X158115000Y-83185000D01*
X147574000Y-47053500D02*
X147574000Y-69455643D01*
X147574000Y-69455643D02*
X158115000Y-79996643D01*
%TO.N,ROW1*%
X155702000Y-46799500D02*
X155702000Y-61722000D01*
X150495000Y-41592500D02*
X155702000Y-46799500D01*
X155702000Y-61722000D02*
X158115000Y-64135000D01*
%TO.N,ROW3*%
X160147000Y-81026000D02*
X160147000Y-83947000D01*
X148336000Y-48831500D02*
X148336000Y-69215000D01*
X159258000Y-120142000D02*
X158115000Y-121285000D01*
X160147000Y-83947000D02*
X159258000Y-84836000D01*
X150495000Y-46672500D02*
X148336000Y-48831500D01*
X159258000Y-84836000D02*
X159258000Y-120142000D01*
X148336000Y-69215000D02*
X160147000Y-81026000D01*
%TD*%
M02*
