M48
; DRILL file {KiCad (7.0.0)} date Sun Mar  5 08:54:40 2023
; FORMAT={-:-/ absolute / inch / decimal}
; #@! TF.CreationDate,2023-03-05T08:54:40+05:30
; #@! TF.GenerationSoftware,Kicad,Pcbnew,(7.0.0)
; #@! TF.FileFunction,NonPlated,1,2,NPTH
FMAT,2
INCH
; #@! TA.AperFunction,NonPlated,NPTH,ComponentDrill
T1C0.0669
; #@! TA.AperFunction,NonPlated,NPTH,ComponentDrill
T2C0.0748
; #@! TA.AperFunction,NonPlated,NPTH,ComponentDrill
T3C0.1200
; #@! TA.AperFunction,NonPlated,NPTH,ComponentDrill
T4C0.1570
; #@! TA.AperFunction,NonPlated,NPTH,ComponentDrill
T5C0.1575
%
G90
G05
T1
X2.625Y-2.8
X2.625Y-3.2
X2.8Y-1.875
X3.175Y-2.625
X3.175Y-3.375
X3.2Y-1.875
X3.575Y-2.625
X3.575Y-3.375
X3.925Y-2.625
X3.925Y-3.375
X3.925Y-4.875
X4.3Y-1.875
X4.325Y-2.625
X4.325Y-3.375
X4.325Y-4.875
X4.675Y-2.625
X4.675Y-3.375
X4.675Y-4.875
X4.7Y-1.875
X5.075Y-2.625
X5.075Y-3.375
X5.075Y-4.875
X5.425Y-4.875
X5.625Y-2.8
X5.625Y-3.2
X5.825Y-4.875
X6.175Y-2.625
X6.175Y-3.375
X6.175Y-4.875
X6.55Y-1.875
X6.575Y-2.625
X6.575Y-3.375
X6.575Y-4.875
X6.925Y-2.625
X6.925Y-3.375
X6.925Y-4.875
X6.95Y-1.875
X7.325Y-2.625
X7.325Y-3.375
X7.325Y-4.875
X7.675Y-2.625
X7.675Y-3.375
X8.05Y-1.875
X8.075Y-2.625
X8.075Y-3.375
X8.425Y-2.625
X8.425Y-3.375
X8.45Y-1.875
X8.825Y-2.625
X8.825Y-3.375
X9.175Y-2.625
X9.175Y-3.375
X9.575Y-2.625
X9.575Y-3.375
T2
X2.625Y-2.7835
X2.625Y-3.2165
X2.7835Y-1.875
X3.1585Y-2.625
X3.1585Y-3.375
X3.2165Y-1.875
X3.5915Y-2.625
X3.5915Y-3.375
X3.9085Y-2.625
X3.9085Y-3.375
X3.9085Y-4.875
X4.2835Y-1.875
X4.3415Y-2.625
X4.3415Y-3.375
X4.3415Y-4.875
X4.6585Y-2.625
X4.6585Y-3.375
X4.6585Y-4.875
X4.7165Y-1.875
X5.0915Y-2.625
X5.0915Y-3.375
X5.0915Y-4.875
X5.4085Y-4.875
X5.625Y-2.7835
X5.625Y-3.2165
X5.8415Y-4.875
X6.1585Y-2.625
X6.1585Y-3.375
X6.1585Y-4.875
X6.5335Y-1.875
X6.5915Y-2.625
X6.5915Y-3.375
X6.5915Y-4.875
X6.9085Y-2.625
X6.9085Y-3.375
X6.9085Y-4.875
X6.9665Y-1.875
X7.3415Y-2.625
X7.3415Y-3.375
X7.3415Y-4.875
X7.6585Y-2.625
X7.6585Y-3.375
X8.0335Y-1.875
X8.0915Y-2.625
X8.0915Y-3.375
X8.4085Y-2.625
X8.4085Y-3.375
X8.4665Y-1.875
X8.8415Y-2.625
X8.8415Y-3.375
X9.1585Y-2.625
X9.1585Y-3.375
X9.5915Y-2.625
X9.5915Y-3.375
T3
X2.35Y-2.5315
X2.35Y-3.4685
X2.5315Y-1.6
X3.4685Y-1.6
X4.0315Y-1.6
X4.9685Y-1.6
X5.35Y-2.5315
X5.35Y-3.4685
X6.2815Y-1.6
X7.2185Y-1.6
X7.7815Y-1.6
X8.7185Y-1.6
T4
X2.5315Y-2.2
X2.95Y-2.5315
X2.95Y-3.4685
X3.4685Y-2.2
X4.0315Y-2.2
X4.9685Y-2.2
X5.95Y-2.5315
X5.95Y-3.4685
X6.2815Y-2.2
X7.2185Y-2.2
X7.7815Y-2.2
X8.7185Y-2.2
T5
X2.625Y-3.0
X3.0Y-1.875
X3.375Y-2.625
X3.375Y-3.375
X4.125Y-2.625
X4.125Y-3.375
X4.125Y-4.875
X4.5Y-1.875
X4.875Y-2.625
X4.875Y-3.375
X4.875Y-4.875
X5.625Y-3.0
X5.625Y-4.875
X6.375Y-2.625
X6.375Y-3.375
X6.375Y-4.875
X6.75Y-1.875
X7.125Y-2.625
X7.125Y-3.375
X7.125Y-4.875
X7.875Y-2.625
X7.875Y-3.375
X8.25Y-1.875
X8.625Y-2.625
X8.625Y-3.375
X9.375Y-2.625
X9.375Y-3.375
T0
M30
