0
SECTION
2
HEADER
9
$INSUNITS
70
4
0
ENDSEC
0
SECTION
2
TABLES
0
TABLE
2
LTYPE
0
LTYPE
72
65
70
64
2
CONTINUOUS
3
______
73
0
40
0
0
ENDTAB
0
TABLE
2
LAYER
0
ENDTAB
0
ENDSEC
0
SECTION
2
ENTITIES
0
LINE
8
0
10
12.55
20
-2.525
11
25.55
21
-2.525
0
LINE
8
0
10
12.55
20
-16.525
11
25.55
21
-16.525
0
LINE
8
0
10
12.05
20
-3.025
11
12.05
21
-16.025
0
LINE
8
0
10
26.05
20
-3.025
11
26.05
21
-16.025
0
ARC
8
0
10
12.55
20
-3.025
40
0.5
50
90
51
180
0
ARC
8
0
10
25.55
20
-3.025
40
0.5
50
0
51
90
0
ARC
8
0
10
12.55
20
-16.025
40
0.5
50
180
51
270
0
ARC
8
0
10
25.55
20
-16.025
40
0.5
50
270
51
0
0
LINE
8
0
10
4.112
20
-3.525
11
10.112
21
-3.525
0
LINE
8
0
10
4.112
20
-18.525
11
10.112
21
-18.525
0
LINE
8
0
10
3.612
20
-4.025
11
3.612
21
-18.025
0
LINE
8
0
10
10.612
20
-4.025
11
10.612
21
-18.025
0
ARC
8
0
10
4.112
20
-4.025
40
0.5
50
90
51
180
0
ARC
8
0
10
10.112
20
-4.025
40
0.5
50
0
51
90
0
ARC
8
0
10
4.112
20
-18.025
40
0.5
50
180
51
270
0
ARC
8
0
10
10.112
20
-18.025
40
0.5
50
270
51
0
0
LINE
8
0
10
27.988
20
-3.525
11
33.988
21
-3.525
0
LINE
8
0
10
27.988
20
-18.525
11
33.988
21
-18.525
0
LINE
8
0
10
27.488
20
-4.025
11
27.488
21
-18.025
0
LINE
8
0
10
34.488
20
-4.025
11
34.488
21
-18.025
0
ARC
8
0
10
27.988
20
-4.025
40
0.5
50
90
51
180
0
ARC
8
0
10
33.988
20
-4.025
40
0.5
50
0
51
90
0
ARC
8
0
10
27.988
20
-18.025
40
0.5
50
180
51
270
0
ARC
8
0
10
33.988
20
-18.025
40
0.5
50
270
51
0
0
LINE
8
0
10
50.65
20
-2.525
11
63.65
21
-2.525
0
LINE
8
0
10
50.65
20
-16.525
11
63.65
21
-16.525
0
LINE
8
0
10
50.15
20
-3.025
11
50.15
21
-16.025
0
LINE
8
0
10
64.15
20
-3.025
11
64.15
21
-16.025
0
ARC
8
0
10
50.65
20
-3.025
40
0.5
50
90
51
180
0
ARC
8
0
10
63.65
20
-3.025
40
0.5
50
0
51
90
0
ARC
8
0
10
50.65
20
-16.025
40
0.5
50
180
51
270
0
ARC
8
0
10
63.65
20
-16.025
40
0.5
50
270
51
0
0
LINE
8
0
10
42.212
20
-3.525
11
48.212
21
-3.525
0
LINE
8
0
10
42.212
20
-18.525
11
48.212
21
-18.525
0
LINE
8
0
10
41.712
20
-4.025
11
41.712
21
-18.025
0
LINE
8
0
10
48.712
20
-4.025
11
48.712
21
-18.025
0
ARC
8
0
10
42.212
20
-4.025
40
0.5
50
90
51
180
0
ARC
8
0
10
48.212
20
-4.025
40
0.5
50
0
51
90
0
ARC
8
0
10
42.212
20
-18.025
40
0.5
50
180
51
270
0
ARC
8
0
10
48.212
20
-18.025
40
0.5
50
270
51
0
0
LINE
8
0
10
66.088
20
-3.525
11
72.088
21
-3.525
0
LINE
8
0
10
66.088
20
-18.525
11
72.088
21
-18.525
0
LINE
8
0
10
65.588
20
-4.025
11
65.588
21
-18.025
0
LINE
8
0
10
72.588
20
-4.025
11
72.588
21
-18.025
0
ARC
8
0
10
66.088
20
-4.025
40
0.5
50
90
51
180
0
ARC
8
0
10
72.088
20
-4.025
40
0.5
50
0
51
90
0
ARC
8
0
10
66.088
20
-18.025
40
0.5
50
180
51
270
0
ARC
8
0
10
72.088
20
-18.025
40
0.5
50
270
51
0
0
LINE
8
0
10
107.8
20
-2.525
11
120.8
21
-2.525
0
LINE
8
0
10
107.8
20
-16.525
11
120.8
21
-16.525
0
LINE
8
0
10
107.3
20
-3.025
11
107.3
21
-16.025
0
LINE
8
0
10
121.3
20
-3.025
11
121.3
21
-16.025
0
ARC
8
0
10
107.8
20
-3.025
40
0.5
50
90
51
180
0
ARC
8
0
10
120.8
20
-3.025
40
0.5
50
0
51
90
0
ARC
8
0
10
107.8
20
-16.025
40
0.5
50
180
51
270
0
ARC
8
0
10
120.8
20
-16.025
40
0.5
50
270
51
0
0
LINE
8
0
10
99.362
20
-3.525
11
105.362
21
-3.525
0
LINE
8
0
10
99.362
20
-18.525
11
105.362
21
-18.525
0
LINE
8
0
10
98.862
20
-4.025
11
98.862
21
-18.025
0
LINE
8
0
10
105.862
20
-4.025
11
105.862
21
-18.025
0
ARC
8
0
10
99.362
20
-4.025
40
0.5
50
90
51
180
0
ARC
8
0
10
105.362
20
-4.025
40
0.5
50
0
51
90
0
ARC
8
0
10
99.362
20
-18.025
40
0.5
50
180
51
270
0
ARC
8
0
10
105.362
20
-18.025
40
0.5
50
270
51
0
0
LINE
8
0
10
123.238
20
-3.525
11
129.238
21
-3.525
0
LINE
8
0
10
123.238
20
-18.525
11
129.238
21
-18.525
0
LINE
8
0
10
122.738
20
-4.025
11
122.738
21
-18.025
0
LINE
8
0
10
129.738
20
-4.025
11
129.738
21
-18.025
0
ARC
8
0
10
123.238
20
-4.025
40
0.5
50
90
51
180
0
ARC
8
0
10
129.238
20
-4.025
40
0.5
50
0
51
90
0
ARC
8
0
10
123.238
20
-18.025
40
0.5
50
180
51
270
0
ARC
8
0
10
129.238
20
-18.025
40
0.5
50
270
51
0
0
LINE
8
0
10
145.9
20
-2.525
11
158.9
21
-2.525
0
LINE
8
0
10
145.9
20
-16.525
11
158.9
21
-16.525
0
LINE
8
0
10
145.4
20
-3.025
11
145.4
21
-16.025
0
LINE
8
0
10
159.4
20
-3.025
11
159.4
21
-16.025
0
ARC
8
0
10
145.9
20
-3.025
40
0.5
50
90
51
180
0
ARC
8
0
10
158.9
20
-3.025
40
0.5
50
0
51
90
0
ARC
8
0
10
145.9
20
-16.025
40
0.5
50
180
51
270
0
ARC
8
0
10
158.9
20
-16.025
40
0.5
50
270
51
0
0
LINE
8
0
10
137.462
20
-3.525
11
143.462
21
-3.525
0
LINE
8
0
10
137.462
20
-18.525
11
143.462
21
-18.525
0
LINE
8
0
10
136.962
20
-4.025
11
136.962
21
-18.025
0
LINE
8
0
10
143.962
20
-4.025
11
143.962
21
-18.025
0
ARC
8
0
10
137.462
20
-4.025
40
0.5
50
90
51
180
0
ARC
8
0
10
143.462
20
-4.025
40
0.5
50
0
51
90
0
ARC
8
0
10
137.462
20
-18.025
40
0.5
50
180
51
270
0
ARC
8
0
10
143.462
20
-18.025
40
0.5
50
270
51
0
0
LINE
8
0
10
161.338
20
-3.525
11
167.338
21
-3.525
0
LINE
8
0
10
161.338
20
-18.525
11
167.338
21
-18.525
0
LINE
8
0
10
160.838
20
-4.025
11
160.838
21
-18.025
0
LINE
8
0
10
167.838
20
-4.025
11
167.838
21
-18.025
0
ARC
8
0
10
161.338
20
-4.025
40
0.5
50
90
51
180
0
ARC
8
0
10
167.338
20
-4.025
40
0.5
50
0
51
90
0
ARC
8
0
10
161.338
20
-18.025
40
0.5
50
180
51
270
0
ARC
8
0
10
167.338
20
-18.025
40
0.5
50
270
51
0
0
LINE
8
0
10
16.525
20
-31.6
11
16.525
21
-44.6
0
LINE
8
0
10
2.525
20
-31.6
11
2.525
21
-44.6
0
LINE
8
0
10
16.025
20
-31.1
11
3.025
21
-31.1
0
LINE
8
0
10
16.025
20
-45.1
11
3.025
21
-45.1
0
ARC
8
0
10
16.025
20
-31.6
40
0.5
50
0
51
90
0
ARC
8
0
10
16.025
20
-44.6
40
0.5
50
270
51
0
0
ARC
8
0
10
3.025
20
-31.6
40
0.5
50
90
51
180
0
ARC
8
0
10
3.025
20
-44.6
40
0.5
50
180
51
270
0
LINE
8
0
10
15.525
20
-23.162
11
15.525
21
-29.162
0
LINE
8
0
10
0.525
20
-23.162
11
0.525
21
-29.162
0
LINE
8
0
10
15.025
20
-22.662
11
1.025
21
-22.662
0
LINE
8
0
10
15.025
20
-29.662
11
1.025
21
-29.662
0
ARC
8
0
10
15.025
20
-23.162
40
0.5
50
0
51
90
0
ARC
8
0
10
15.025
20
-29.162
40
0.5
50
270
51
0
0
ARC
8
0
10
1.025
20
-23.162
40
0.5
50
90
51
180
0
ARC
8
0
10
1.025
20
-29.162
40
0.5
50
180
51
270
0
LINE
8
0
10
15.525
20
-47.038
11
15.525
21
-53.038
0
LINE
8
0
10
0.525
20
-47.038
11
0.525
21
-53.038
0
LINE
8
0
10
15.025
20
-46.538
11
1.025
21
-46.538
0
LINE
8
0
10
15.025
20
-53.538
11
1.025
21
-53.538
0
ARC
8
0
10
15.025
20
-47.038
40
0.5
50
0
51
90
0
ARC
8
0
10
15.025
20
-53.038
40
0.5
50
270
51
0
0
ARC
8
0
10
1.025
20
-47.038
40
0.5
50
90
51
180
0
ARC
8
0
10
1.025
20
-53.038
40
0.5
50
180
51
270
0
LINE
8
0
10
22.075
20
-21.575
11
35.075
21
-21.575
0
LINE
8
0
10
22.075
20
-35.575
11
35.075
21
-35.575
0
LINE
8
0
10
21.575
20
-22.075
11
21.575
21
-35.075
0
LINE
8
0
10
35.575
20
-22.075
11
35.575
21
-35.075
0
ARC
8
0
10
22.075
20
-22.075
40
0.5
50
90
51
180
0
ARC
8
0
10
35.075
20
-22.075
40
0.5
50
0
51
90
0
ARC
8
0
10
22.075
20
-35.075
40
0.5
50
180
51
270
0
ARC
8
0
10
35.075
20
-35.075
40
0.5
50
270
51
0
0
LINE
8
0
10
41.125
20
-21.575
11
54.125
21
-21.575
0
LINE
8
0
10
41.125
20
-35.575
11
54.125
21
-35.575
0
LINE
8
0
10
40.625
20
-22.075
11
40.625
21
-35.075
0
LINE
8
0
10
54.625
20
-22.075
11
54.625
21
-35.075
0
ARC
8
0
10
41.125
20
-22.075
40
0.5
50
90
51
180
0
ARC
8
0
10
54.125
20
-22.075
40
0.5
50
0
51
90
0
ARC
8
0
10
41.125
20
-35.075
40
0.5
50
180
51
270
0
ARC
8
0
10
54.125
20
-35.075
40
0.5
50
270
51
0
0
LINE
8
0
10
60.175
20
-21.575
11
73.175
21
-21.575
0
LINE
8
0
10
60.175
20
-35.575
11
73.175
21
-35.575
0
LINE
8
0
10
59.675
20
-22.075
11
59.675
21
-35.075
0
LINE
8
0
10
73.675
20
-22.075
11
73.675
21
-35.075
0
ARC
8
0
10
60.175
20
-22.075
40
0.5
50
90
51
180
0
ARC
8
0
10
73.175
20
-22.075
40
0.5
50
0
51
90
0
ARC
8
0
10
60.175
20
-35.075
40
0.5
50
180
51
270
0
ARC
8
0
10
73.175
20
-35.075
40
0.5
50
270
51
0
0
LINE
8
0
10
92.725
20
-31.6
11
92.725
21
-44.6
0
LINE
8
0
10
78.725
20
-31.6
11
78.725
21
-44.6
0
LINE
8
0
10
92.225
20
-31.1
11
79.225
21
-31.1
0
LINE
8
0
10
92.225
20
-45.1
11
79.225
21
-45.1
0
ARC
8
0
10
92.225
20
-31.6
40
0.5
50
0
51
90
0
ARC
8
0
10
92.225
20
-44.6
40
0.5
50
270
51
0
0
ARC
8
0
10
79.225
20
-31.6
40
0.5
50
90
51
180
0
ARC
8
0
10
79.225
20
-44.6
40
0.5
50
180
51
270
0
LINE
8
0
10
91.725
20
-23.162
11
91.725
21
-29.162
0
LINE
8
0
10
76.725
20
-23.162
11
76.725
21
-29.162
0
LINE
8
0
10
91.225
20
-22.662
11
77.225
21
-22.662
0
LINE
8
0
10
91.225
20
-29.662
11
77.225
21
-29.662
0
ARC
8
0
10
91.225
20
-23.162
40
0.5
50
0
51
90
0
ARC
8
0
10
91.225
20
-29.162
40
0.5
50
270
51
0
0
ARC
8
0
10
77.225
20
-23.162
40
0.5
50
90
51
180
0
ARC
8
0
10
77.225
20
-29.162
40
0.5
50
180
51
270
0
LINE
8
0
10
91.725
20
-47.038
11
91.725
21
-53.038
0
LINE
8
0
10
76.725
20
-47.038
11
76.725
21
-53.038
0
LINE
8
0
10
91.225
20
-46.538
11
77.225
21
-46.538
0
LINE
8
0
10
91.225
20
-53.538
11
77.225
21
-53.538
0
ARC
8
0
10
91.225
20
-47.038
40
0.5
50
0
51
90
0
ARC
8
0
10
91.225
20
-53.038
40
0.5
50
270
51
0
0
ARC
8
0
10
77.225
20
-47.038
40
0.5
50
90
51
180
0
ARC
8
0
10
77.225
20
-53.038
40
0.5
50
180
51
270
0
LINE
8
0
10
98.275
20
-21.575
11
111.275
21
-21.575
0
LINE
8
0
10
98.275
20
-35.575
11
111.275
21
-35.575
0
LINE
8
0
10
97.775
20
-22.075
11
97.775
21
-35.075
0
LINE
8
0
10
111.775
20
-22.075
11
111.775
21
-35.075
0
ARC
8
0
10
98.275
20
-22.075
40
0.5
50
90
51
180
0
ARC
8
0
10
111.275
20
-22.075
40
0.5
50
0
51
90
0
ARC
8
0
10
98.275
20
-35.075
40
0.5
50
180
51
270
0
ARC
8
0
10
111.275
20
-35.075
40
0.5
50
270
51
0
0
LINE
8
0
10
117.325
20
-21.575
11
130.325
21
-21.575
0
LINE
8
0
10
117.325
20
-35.575
11
130.325
21
-35.575
0
LINE
8
0
10
116.825
20
-22.075
11
116.825
21
-35.075
0
LINE
8
0
10
130.825
20
-22.075
11
130.825
21
-35.075
0
ARC
8
0
10
117.325
20
-22.075
40
0.5
50
90
51
180
0
ARC
8
0
10
130.325
20
-22.075
40
0.5
50
0
51
90
0
ARC
8
0
10
117.325
20
-35.075
40
0.5
50
180
51
270
0
ARC
8
0
10
130.325
20
-35.075
40
0.5
50
270
51
0
0
LINE
8
0
10
136.375
20
-21.575
11
149.375
21
-21.575
0
LINE
8
0
10
136.375
20
-35.575
11
149.375
21
-35.575
0
LINE
8
0
10
135.875
20
-22.075
11
135.875
21
-35.075
0
LINE
8
0
10
149.875
20
-22.075
11
149.875
21
-35.075
0
ARC
8
0
10
136.375
20
-22.075
40
0.5
50
90
51
180
0
ARC
8
0
10
149.375
20
-22.075
40
0.5
50
0
51
90
0
ARC
8
0
10
136.375
20
-35.075
40
0.5
50
180
51
270
0
ARC
8
0
10
149.375
20
-35.075
40
0.5
50
270
51
0
0
LINE
8
0
10
155.425
20
-21.575
11
168.425
21
-21.575
0
LINE
8
0
10
155.425
20
-35.575
11
168.425
21
-35.575
0
LINE
8
0
10
154.925
20
-22.075
11
154.925
21
-35.075
0
LINE
8
0
10
168.925
20
-22.075
11
168.925
21
-35.075
0
ARC
8
0
10
155.425
20
-22.075
40
0.5
50
90
51
180
0
ARC
8
0
10
168.425
20
-22.075
40
0.5
50
0
51
90
0
ARC
8
0
10
155.425
20
-35.075
40
0.5
50
180
51
270
0
ARC
8
0
10
168.425
20
-35.075
40
0.5
50
270
51
0
0
LINE
8
0
10
174.475
20
-21.575
11
187.475
21
-21.575
0
LINE
8
0
10
174.475
20
-35.575
11
187.475
21
-35.575
0
LINE
8
0
10
173.975
20
-22.075
11
173.975
21
-35.075
0
LINE
8
0
10
187.975
20
-22.075
11
187.975
21
-35.075
0
ARC
8
0
10
174.475
20
-22.075
40
0.5
50
90
51
180
0
ARC
8
0
10
187.475
20
-22.075
40
0.5
50
0
51
90
0
ARC
8
0
10
174.475
20
-35.075
40
0.5
50
180
51
270
0
ARC
8
0
10
187.475
20
-35.075
40
0.5
50
270
51
0
0
LINE
8
0
10
22.075
20
-40.625
11
35.075
21
-40.625
0
LINE
8
0
10
22.075
20
-54.625
11
35.075
21
-54.625
0
LINE
8
0
10
21.575
20
-41.125
11
21.575
21
-54.125
0
LINE
8
0
10
35.575
20
-41.125
11
35.575
21
-54.125
0
ARC
8
0
10
22.075
20
-41.125
40
0.5
50
90
51
180
0
ARC
8
0
10
35.075
20
-41.125
40
0.5
50
0
51
90
0
ARC
8
0
10
22.075
20
-54.125
40
0.5
50
180
51
270
0
ARC
8
0
10
35.075
20
-54.125
40
0.5
50
270
51
0
0
LINE
8
0
10
41.125
20
-40.625
11
54.125
21
-40.625
0
LINE
8
0
10
41.125
20
-54.625
11
54.125
21
-54.625
0
LINE
8
0
10
40.625
20
-41.125
11
40.625
21
-54.125
0
LINE
8
0
10
54.625
20
-41.125
11
54.625
21
-54.125
0
ARC
8
0
10
41.125
20
-41.125
40
0.5
50
90
51
180
0
ARC
8
0
10
54.125
20
-41.125
40
0.5
50
0
51
90
0
ARC
8
0
10
41.125
20
-54.125
40
0.5
50
180
51
270
0
ARC
8
0
10
54.125
20
-54.125
40
0.5
50
270
51
0
0
LINE
8
0
10
60.175
20
-40.625
11
73.175
21
-40.625
0
LINE
8
0
10
60.175
20
-54.625
11
73.175
21
-54.625
0
LINE
8
0
10
59.675
20
-41.125
11
59.675
21
-54.125
0
LINE
8
0
10
73.675
20
-41.125
11
73.675
21
-54.125
0
ARC
8
0
10
60.175
20
-41.125
40
0.5
50
90
51
180
0
ARC
8
0
10
73.175
20
-41.125
40
0.5
50
0
51
90
0
ARC
8
0
10
60.175
20
-54.125
40
0.5
50
180
51
270
0
ARC
8
0
10
73.175
20
-54.125
40
0.5
50
270
51
0
0
LINE
8
0
10
98.275
20
-40.625
11
111.275
21
-40.625
0
LINE
8
0
10
98.275
20
-54.625
11
111.275
21
-54.625
0
LINE
8
0
10
97.775
20
-41.125
11
97.775
21
-54.125
0
LINE
8
0
10
111.775
20
-41.125
11
111.775
21
-54.125
0
ARC
8
0
10
98.275
20
-41.125
40
0.5
50
90
51
180
0
ARC
8
0
10
111.275
20
-41.125
40
0.5
50
0
51
90
0
ARC
8
0
10
98.275
20
-54.125
40
0.5
50
180
51
270
0
ARC
8
0
10
111.275
20
-54.125
40
0.5
50
270
51
0
0
LINE
8
0
10
117.325
20
-40.625
11
130.325
21
-40.625
0
LINE
8
0
10
117.325
20
-54.625
11
130.325
21
-54.625
0
LINE
8
0
10
116.825
20
-41.125
11
116.825
21
-54.125
0
LINE
8
0
10
130.825
20
-41.125
11
130.825
21
-54.125
0
ARC
8
0
10
117.325
20
-41.125
40
0.5
50
90
51
180
0
ARC
8
0
10
130.325
20
-41.125
40
0.5
50
0
51
90
0
ARC
8
0
10
117.325
20
-54.125
40
0.5
50
180
51
270
0
ARC
8
0
10
130.325
20
-54.125
40
0.5
50
270
51
0
0
LINE
8
0
10
136.375
20
-40.625
11
149.375
21
-40.625
0
LINE
8
0
10
136.375
20
-54.625
11
149.375
21
-54.625
0
LINE
8
0
10
135.875
20
-41.125
11
135.875
21
-54.125
0
LINE
8
0
10
149.875
20
-41.125
11
149.875
21
-54.125
0
ARC
8
0
10
136.375
20
-41.125
40
0.5
50
90
51
180
0
ARC
8
0
10
149.375
20
-41.125
40
0.5
50
0
51
90
0
ARC
8
0
10
136.375
20
-54.125
40
0.5
50
180
51
270
0
ARC
8
0
10
149.375
20
-54.125
40
0.5
50
270
51
0
0
LINE
8
0
10
155.425
20
-40.625
11
168.425
21
-40.625
0
LINE
8
0
10
155.425
20
-54.625
11
168.425
21
-54.625
0
LINE
8
0
10
154.925
20
-41.125
11
154.925
21
-54.125
0
LINE
8
0
10
168.925
20
-41.125
11
168.925
21
-54.125
0
ARC
8
0
10
155.425
20
-41.125
40
0.5
50
90
51
180
0
ARC
8
0
10
168.425
20
-41.125
40
0.5
50
0
51
90
0
ARC
8
0
10
155.425
20
-54.125
40
0.5
50
180
51
270
0
ARC
8
0
10
168.425
20
-54.125
40
0.5
50
270
51
0
0
LINE
8
0
10
174.475
20
-40.625
11
187.475
21
-40.625
0
LINE
8
0
10
174.475
20
-54.625
11
187.475
21
-54.625
0
LINE
8
0
10
173.975
20
-41.125
11
173.975
21
-54.125
0
LINE
8
0
10
187.975
20
-41.125
11
187.975
21
-54.125
0
ARC
8
0
10
174.475
20
-41.125
40
0.5
50
90
51
180
0
ARC
8
0
10
187.475
20
-41.125
40
0.5
50
0
51
90
0
ARC
8
0
10
174.475
20
-54.125
40
0.5
50
180
51
270
0
ARC
8
0
10
187.475
20
-54.125
40
0.5
50
270
51
0
0
LINE
8
0
10
41.125
20
-78.725
11
54.125
21
-78.725
0
LINE
8
0
10
41.125
20
-92.725
11
54.125
21
-92.725
0
LINE
8
0
10
40.625
20
-79.225
11
40.625
21
-92.225
0
LINE
8
0
10
54.625
20
-79.225
11
54.625
21
-92.225
0
ARC
8
0
10
41.125
20
-79.225
40
0.5
50
90
51
180
0
ARC
8
0
10
54.125
20
-79.225
40
0.5
50
0
51
90
0
ARC
8
0
10
41.125
20
-92.225
40
0.5
50
180
51
270
0
ARC
8
0
10
54.125
20
-92.225
40
0.5
50
270
51
0
0
LINE
8
0
10
60.175
20
-78.725
11
73.175
21
-78.725
0
LINE
8
0
10
60.175
20
-92.725
11
73.175
21
-92.725
0
LINE
8
0
10
59.675
20
-79.225
11
59.675
21
-92.225
0
LINE
8
0
10
73.675
20
-79.225
11
73.675
21
-92.225
0
ARC
8
0
10
60.175
20
-79.225
40
0.5
50
90
51
180
0
ARC
8
0
10
73.175
20
-79.225
40
0.5
50
0
51
90
0
ARC
8
0
10
60.175
20
-92.225
40
0.5
50
180
51
270
0
ARC
8
0
10
73.175
20
-92.225
40
0.5
50
270
51
0
0
LINE
8
0
10
79.225
20
-78.725
11
92.225
21
-78.725
0
LINE
8
0
10
79.225
20
-92.725
11
92.225
21
-92.725
0
LINE
8
0
10
78.725
20
-79.225
11
78.725
21
-92.225
0
LINE
8
0
10
92.725
20
-79.225
11
92.725
21
-92.225
0
ARC
8
0
10
79.225
20
-79.225
40
0.5
50
90
51
180
0
ARC
8
0
10
92.225
20
-79.225
40
0.5
50
0
51
90
0
ARC
8
0
10
79.225
20
-92.225
40
0.5
50
180
51
270
0
ARC
8
0
10
92.225
20
-92.225
40
0.5
50
270
51
0
0
LINE
8
0
10
98.275
20
-78.725
11
111.275
21
-78.725
0
LINE
8
0
10
98.275
20
-92.725
11
111.275
21
-92.725
0
LINE
8
0
10
97.775
20
-79.225
11
97.775
21
-92.225
0
LINE
8
0
10
111.775
20
-79.225
11
111.775
21
-92.225
0
ARC
8
0
10
98.275
20
-79.225
40
0.5
50
90
51
180
0
ARC
8
0
10
111.275
20
-79.225
40
0.5
50
0
51
90
0
ARC
8
0
10
98.275
20
-92.225
40
0.5
50
180
51
270
0
ARC
8
0
10
111.275
20
-92.225
40
0.5
50
270
51
0
0
LINE
8
0
10
117.325
20
-78.725
11
130.325
21
-78.725
0
LINE
8
0
10
117.325
20
-92.725
11
130.325
21
-92.725
0
LINE
8
0
10
116.825
20
-79.225
11
116.825
21
-92.225
0
LINE
8
0
10
130.825
20
-79.225
11
130.825
21
-92.225
0
ARC
8
0
10
117.325
20
-79.225
40
0.5
50
90
51
180
0
ARC
8
0
10
130.325
20
-79.225
40
0.5
50
0
51
90
0
ARC
8
0
10
117.325
20
-92.225
40
0.5
50
180
51
270
0
ARC
8
0
10
130.325
20
-92.225
40
0.5
50
270
51
0
0
LINE
8
0
10
0
20
-95.25
11
190.5
21
-95.25
0
LINE
8
0
10
0
20
0
11
190.5
21
0
0
LINE
8
0
10
0
20
-95.25
11
0
21
0
0
LINE
8
0
10
190.5
20
-95.25
11
190.5
21
0
0
ENDSEC
0
EOF