%TF.GenerationSoftware,KiCad,Pcbnew,(6.0.9)*%
%TF.CreationDate,2023-02-21T23:51:28+05:30*%
%TF.ProjectId,Peridot Steno,50657269-646f-4742-9053-74656e6f2e6b,rev?*%
%TF.SameCoordinates,Original*%
%TF.FileFunction,Legend,Bot*%
%TF.FilePolarity,Positive*%
%FSLAX46Y46*%
G04 Gerber Fmt 4.6, Leading zero omitted, Abs format (unit mm)*
G04 Created by KiCad (PCBNEW (6.0.9)) date 2023-02-21 23:51:28*
%MOMM*%
%LPD*%
G01*
G04 APERTURE LIST*
%ADD10C,2.700000*%
G04 APERTURE END LIST*
%TO.C,G\u002A\u002A\u002A*%
G36*
X140600783Y-113141981D02*
G01*
X140595099Y-113169180D01*
X140544924Y-113305637D01*
X140463737Y-113403859D01*
X140347828Y-113468635D01*
X140337083Y-113471852D01*
X140273292Y-113481327D01*
X140180929Y-113487309D01*
X140073289Y-113489846D01*
X139963672Y-113488986D01*
X139865375Y-113484777D01*
X139791695Y-113477267D01*
X139755930Y-113466503D01*
X139753608Y-113462996D01*
X139748994Y-113421473D01*
X139756212Y-113356173D01*
X139766298Y-113312446D01*
X139785937Y-113279044D01*
X139817019Y-113280964D01*
X139860387Y-113296896D01*
X139979517Y-113321898D01*
X140089268Y-113320366D01*
X140177500Y-113293433D01*
X140232072Y-113242231D01*
X140242157Y-113222539D01*
X140254665Y-113184409D01*
X140243361Y-113160020D01*
X140201376Y-113146347D01*
X140121843Y-113140363D01*
X139997891Y-113139041D01*
X139737751Y-113139041D01*
X139752781Y-113012137D01*
X139764081Y-112943639D01*
X139768257Y-112932102D01*
X140052778Y-112932102D01*
X140058852Y-112963748D01*
X140088479Y-112980939D01*
X140155404Y-112985101D01*
X140216682Y-112981965D01*
X140249971Y-112966664D01*
X140258030Y-112932102D01*
X140245730Y-112861900D01*
X140208218Y-112802868D01*
X140155404Y-112779849D01*
X140108084Y-112798098D01*
X140068294Y-112853748D01*
X140052778Y-112932102D01*
X139768257Y-112932102D01*
X139815062Y-112802790D01*
X139897473Y-112701976D01*
X140009350Y-112642455D01*
X140148729Y-112625487D01*
X140313647Y-112652332D01*
X140401201Y-112693120D01*
X140494305Y-112778640D01*
X140563746Y-112890727D01*
X140576296Y-112932102D01*
X140601811Y-113016225D01*
X140600783Y-113141981D01*
G37*
G36*
X148679798Y-112600535D02*
G01*
X148763006Y-112604935D01*
X148852980Y-112615727D01*
X148942778Y-112630637D01*
X148943888Y-113051607D01*
X148944998Y-113472576D01*
X148564343Y-113472576D01*
X148580379Y-113392399D01*
X148581735Y-113384348D01*
X148587484Y-113319784D01*
X148592146Y-113218777D01*
X148595272Y-113093527D01*
X148596414Y-112956238D01*
X148596414Y-112600253D01*
X148679798Y-112600535D01*
G37*
G36*
X150705560Y-112610294D02*
G01*
X150778044Y-112620631D01*
X150866173Y-112625909D01*
X150948709Y-112625909D01*
X151010118Y-112893388D01*
X151071528Y-113160867D01*
X151103819Y-113053742D01*
X151117123Y-113005011D01*
X151141006Y-112901081D01*
X151161041Y-112795694D01*
X151173178Y-112727728D01*
X151186999Y-112663266D01*
X151196446Y-112634295D01*
X151199436Y-112632353D01*
X151239093Y-112628264D01*
X151307352Y-112632673D01*
X151388255Y-112643176D01*
X151465843Y-112657365D01*
X151524157Y-112672835D01*
X151547238Y-112687180D01*
X151544527Y-112702284D01*
X151529280Y-112761032D01*
X151502855Y-112854230D01*
X151467830Y-112972873D01*
X151426782Y-113107959D01*
X151306006Y-113500211D01*
X151113499Y-113492808D01*
X150920992Y-113485404D01*
X150872493Y-113318637D01*
X150845905Y-113233208D01*
X150821421Y-113165270D01*
X150805070Y-113131957D01*
X150802087Y-113131039D01*
X150785323Y-113156075D01*
X150762555Y-113217919D01*
X150737816Y-113306121D01*
X150689488Y-113500197D01*
X150496032Y-113492801D01*
X150302576Y-113485404D01*
X150168932Y-113100556D01*
X150141283Y-113020307D01*
X150099118Y-112895229D01*
X150065273Y-112791393D01*
X150042671Y-112717847D01*
X150034235Y-112683637D01*
X150038277Y-112672895D01*
X150080703Y-112656810D01*
X150171130Y-112651566D01*
X150309078Y-112651566D01*
X150363732Y-112888889D01*
X150376628Y-112945760D01*
X150398427Y-113046483D01*
X150413820Y-113123899D01*
X150420088Y-113164697D01*
X150422494Y-113167148D01*
X150435336Y-113137561D01*
X150456620Y-113071851D01*
X150483402Y-112978669D01*
X150494401Y-112939601D01*
X150528061Y-112829782D01*
X150560591Y-112735724D01*
X150586248Y-112674418D01*
X150613023Y-112629650D01*
X150648891Y-112605817D01*
X150705560Y-112610294D01*
G37*
G36*
X142431513Y-108823012D02*
G01*
X142487277Y-108888227D01*
X142489683Y-108892064D01*
X142555413Y-108977222D01*
X142648567Y-109075451D01*
X142754559Y-109173248D01*
X142858799Y-109257107D01*
X142946700Y-109313524D01*
X142978110Y-109330005D01*
X143029014Y-109365026D01*
X143050303Y-109405790D01*
X143054596Y-109470673D01*
X143054368Y-109504750D01*
X143047123Y-109552443D01*
X143018702Y-109570169D01*
X142954557Y-109572778D01*
X142854517Y-109572778D01*
X142845344Y-110002526D01*
X142840110Y-110177505D01*
X142830729Y-110322525D01*
X142815198Y-110430417D01*
X142791207Y-110508512D01*
X142756448Y-110564138D01*
X142708611Y-110604623D01*
X142645389Y-110637298D01*
X142607768Y-110650812D01*
X142534044Y-110664556D01*
X142433259Y-110669468D01*
X142293517Y-110666535D01*
X142217115Y-110662947D01*
X142117183Y-110656426D01*
X142044583Y-110649395D01*
X142011295Y-110642859D01*
X142004093Y-110628910D01*
X141997540Y-110575162D01*
X141998801Y-110497948D01*
X141999988Y-110481510D01*
X142008894Y-110411116D01*
X142024139Y-110380033D01*
X142050114Y-110378001D01*
X142081631Y-110386794D01*
X142146626Y-110405175D01*
X142191290Y-110406265D01*
X142262081Y-110371051D01*
X142270557Y-110364039D01*
X142292130Y-110341838D01*
X142307215Y-110312502D01*
X142317263Y-110267198D01*
X142323725Y-110197090D01*
X142328050Y-110093343D01*
X142331691Y-109947124D01*
X142339998Y-109572778D01*
X142089780Y-109572778D01*
X142037690Y-109318494D01*
X142177766Y-109310939D01*
X142317841Y-109303384D01*
X142312695Y-109053233D01*
X142307548Y-108803081D01*
X142371101Y-108803081D01*
X142431513Y-108823012D01*
G37*
G36*
X145754949Y-112600535D02*
G01*
X145838155Y-112604931D01*
X145928131Y-112615713D01*
X146017929Y-112630609D01*
X146019549Y-113051592D01*
X146021168Y-113472576D01*
X145830546Y-113472576D01*
X145767761Y-113472382D01*
X145696330Y-113469789D01*
X145660416Y-113461518D01*
X145650083Y-113444297D01*
X145655395Y-113414849D01*
X145657606Y-113402742D01*
X145662870Y-113340272D01*
X145667156Y-113241536D01*
X145670069Y-113117389D01*
X145671215Y-112978687D01*
X145671566Y-112600253D01*
X145754949Y-112600535D01*
G37*
G36*
X138673993Y-110171272D02*
G01*
X138619361Y-110345639D01*
X138526642Y-110486477D01*
X138396891Y-110592431D01*
X138231162Y-110662145D01*
X138212801Y-110666872D01*
X138080593Y-110686641D01*
X137921861Y-110692869D01*
X137755770Y-110686202D01*
X137601482Y-110667284D01*
X137478161Y-110636763D01*
X137353745Y-110592482D01*
X137371596Y-110448236D01*
X137379661Y-110386939D01*
X137389256Y-110324450D01*
X137395346Y-110297753D01*
X137403883Y-110298816D01*
X137446917Y-110315281D01*
X137512734Y-110345381D01*
X137616437Y-110381252D01*
X137752095Y-110399663D01*
X137884500Y-110392403D01*
X137993404Y-110358902D01*
X137993870Y-110358660D01*
X138074165Y-110294376D01*
X138131992Y-110205723D01*
X138154192Y-110112840D01*
X138153325Y-110098499D01*
X138145510Y-110082877D01*
X138123313Y-110072214D01*
X138079346Y-110065564D01*
X138006224Y-110061984D01*
X137896562Y-110060528D01*
X137742972Y-110060253D01*
X137331753Y-110060253D01*
X137348064Y-109887071D01*
X137348906Y-109880657D01*
X137820657Y-109880657D01*
X138156517Y-109880657D01*
X138139097Y-109784445D01*
X138137317Y-109774957D01*
X138104288Y-109660411D01*
X138058107Y-109577298D01*
X138004148Y-109535530D01*
X137927945Y-109531936D01*
X137869952Y-109573451D01*
X137833383Y-109657111D01*
X137820657Y-109779701D01*
X137820657Y-109880657D01*
X137348906Y-109880657D01*
X137360001Y-109796186D01*
X137408755Y-109617114D01*
X137486593Y-109475939D01*
X137592012Y-109375810D01*
X137593049Y-109375124D01*
X137646976Y-109342022D01*
X137696764Y-109321025D01*
X137756274Y-109309406D01*
X137839364Y-109304435D01*
X137959894Y-109303384D01*
X138002135Y-109303521D01*
X138117711Y-109306641D01*
X138200276Y-109315524D01*
X138263914Y-109332339D01*
X138322710Y-109359254D01*
X138409697Y-109414460D01*
X138538728Y-109540982D01*
X138629793Y-109697449D01*
X138679961Y-109878073D01*
X138680043Y-109880657D01*
X138686299Y-110077064D01*
X138673993Y-110171272D01*
G37*
G36*
X140552044Y-109318471D02*
G01*
X140696752Y-109330573D01*
X140807466Y-109355697D01*
X140894151Y-109396435D01*
X140966773Y-109455379D01*
X141005756Y-109499208D01*
X141061397Y-109605496D01*
X141067314Y-109720082D01*
X141024131Y-109847229D01*
X140995587Y-109898957D01*
X140959115Y-109945927D01*
X140907996Y-109989254D01*
X140831738Y-110037649D01*
X140719848Y-110099821D01*
X140623786Y-110153565D01*
X140533279Y-110211305D01*
X140478221Y-110258487D01*
X140451774Y-110300221D01*
X140451526Y-110300925D01*
X140445027Y-110372341D01*
X140478114Y-110421673D01*
X140543521Y-110447638D01*
X140633983Y-110448952D01*
X140742236Y-110424333D01*
X140861014Y-110372497D01*
X140999918Y-110297264D01*
X141054944Y-110462619D01*
X141055429Y-110464077D01*
X141081524Y-110548093D01*
X141097519Y-110610533D01*
X141099969Y-110637978D01*
X141073919Y-110645877D01*
X141010426Y-110658122D01*
X140924150Y-110671657D01*
X140860812Y-110679718D01*
X140691951Y-110693261D01*
X140524398Y-110696848D01*
X140374485Y-110690422D01*
X140258545Y-110673928D01*
X140179851Y-110649488D01*
X140056074Y-110578671D01*
X139965208Y-110480908D01*
X139913330Y-110363778D01*
X139906516Y-110234860D01*
X139924717Y-110156394D01*
X139964068Y-110083176D01*
X140030778Y-110015497D01*
X140131998Y-109946240D01*
X140274882Y-109868286D01*
X140288712Y-109861203D01*
X140415389Y-109791461D01*
X140496822Y-109734618D01*
X140536011Y-109687180D01*
X140535955Y-109645653D01*
X140499654Y-109606545D01*
X140424314Y-109576552D01*
X140321605Y-109585170D01*
X140193082Y-109636040D01*
X140141965Y-109661209D01*
X140086513Y-109686297D01*
X140062823Y-109693767D01*
X140062438Y-109693271D01*
X140048502Y-109665234D01*
X140021916Y-109606955D01*
X139989451Y-109533826D01*
X139957878Y-109461243D01*
X139933969Y-109404599D01*
X139924495Y-109379287D01*
X139944160Y-109366673D01*
X140004678Y-109352228D01*
X140095023Y-109338579D01*
X140203940Y-109327121D01*
X140320175Y-109319249D01*
X140432475Y-109316356D01*
X140552044Y-109318471D01*
G37*
G36*
X136201114Y-109304302D02*
G01*
X136379401Y-109355275D01*
X136569899Y-109438910D01*
X136570989Y-109439342D01*
X136583846Y-109421266D01*
X136589141Y-109369514D01*
X136589141Y-109290257D01*
X136813636Y-109304863D01*
X136852377Y-109307481D01*
X136956980Y-109315523D01*
X137041132Y-109323352D01*
X137089444Y-109329591D01*
X137098028Y-109331651D01*
X137111730Y-109339357D01*
X137122141Y-109356965D01*
X137129711Y-109390392D01*
X137134892Y-109445552D01*
X137138135Y-109528363D01*
X137139893Y-109644738D01*
X137140617Y-109800595D01*
X137140758Y-110001849D01*
X137140758Y-110663985D01*
X136569906Y-110666387D01*
X136583251Y-110221934D01*
X136584960Y-110163561D01*
X136588523Y-110015133D01*
X136589151Y-109907562D01*
X136586355Y-109832994D01*
X136579645Y-109783577D01*
X136568533Y-109751459D01*
X136552529Y-109728787D01*
X136551068Y-109727188D01*
X136473470Y-109668773D01*
X136381107Y-109634920D01*
X136296582Y-109634002D01*
X136274470Y-109641537D01*
X136236488Y-109670232D01*
X136209327Y-109721080D01*
X136192001Y-109799844D01*
X136183521Y-109912289D01*
X136182901Y-110064180D01*
X136189154Y-110261281D01*
X136206971Y-110683159D01*
X136109420Y-110667039D01*
X136034059Y-110658897D01*
X135929823Y-110653011D01*
X135819444Y-110650677D01*
X135627020Y-110650435D01*
X135643351Y-110143677D01*
X135643654Y-110134403D01*
X135650347Y-109972007D01*
X135658969Y-109821834D01*
X135668780Y-109693655D01*
X135679038Y-109597239D01*
X135689001Y-109542357D01*
X135697285Y-109519711D01*
X135757274Y-109424895D01*
X135843867Y-109345886D01*
X135939165Y-109300021D01*
X136043181Y-109287784D01*
X136201114Y-109304302D01*
G37*
G36*
X146755556Y-109305660D02*
G01*
X146835026Y-109311427D01*
X146932685Y-109320095D01*
X147001934Y-109328226D01*
X147031364Y-109334621D01*
X147034519Y-109356319D01*
X147038031Y-109423259D01*
X147041281Y-109528501D01*
X147044098Y-109665107D01*
X147046314Y-109826139D01*
X147047758Y-110004656D01*
X147051324Y-110663182D01*
X146492576Y-110663182D01*
X146492576Y-109288207D01*
X146755556Y-109305660D01*
G37*
G36*
X148833762Y-112216891D02*
G01*
X148898791Y-112232963D01*
X148941323Y-112272426D01*
X148975572Y-112345725D01*
X148969510Y-112425921D01*
X148913661Y-112495764D01*
X148867547Y-112526218D01*
X148782025Y-112546994D01*
X148690940Y-112519442D01*
X148656148Y-112498693D01*
X148609878Y-112446821D01*
X148596807Y-112371364D01*
X148597034Y-112360359D01*
X148622714Y-112281583D01*
X148688584Y-112232387D01*
X148791360Y-112215404D01*
X148833762Y-112216891D01*
G37*
G36*
X143611584Y-113158712D02*
G01*
X143582297Y-113278827D01*
X143517755Y-113370618D01*
X143413788Y-113442448D01*
X143371702Y-113462952D01*
X143315690Y-113482942D01*
X143252702Y-113493008D01*
X143168011Y-113495105D01*
X143046892Y-113491189D01*
X142979117Y-113487438D01*
X142880013Y-113478688D01*
X142807787Y-113468092D01*
X142774650Y-113457176D01*
X142772858Y-113454728D01*
X142766941Y-113412394D01*
X142777253Y-113348467D01*
X142787329Y-113316164D01*
X142810849Y-113279614D01*
X142844243Y-113280868D01*
X142875080Y-113292743D01*
X143001522Y-113322989D01*
X143113414Y-113321390D01*
X143201311Y-113289170D01*
X143255766Y-113227553D01*
X143276000Y-113180020D01*
X143285505Y-113150662D01*
X143274394Y-113147285D01*
X143222080Y-113143033D01*
X143136642Y-113140121D01*
X143028939Y-113139041D01*
X142772374Y-113139041D01*
X142772517Y-113055657D01*
X142779366Y-112965844D01*
X142786180Y-112943601D01*
X143063438Y-112943601D01*
X143067510Y-112972275D01*
X143098884Y-112983300D01*
X143169562Y-112985101D01*
X143238258Y-112981951D01*
X143275721Y-112968352D01*
X143285505Y-112939497D01*
X143284001Y-112921629D01*
X143257338Y-112855482D01*
X143209165Y-112801912D01*
X143154962Y-112779849D01*
X143131144Y-112781497D01*
X143106188Y-112796084D01*
X143088147Y-112836282D01*
X143069078Y-112914546D01*
X143063438Y-112943601D01*
X142786180Y-112943601D01*
X142822493Y-112825062D01*
X142902248Y-112714249D01*
X142913737Y-112703401D01*
X142957621Y-112668250D01*
X143004139Y-112648805D01*
X143069504Y-112640492D01*
X143169931Y-112638738D01*
X143219120Y-112639214D01*
X143313196Y-112645622D01*
X143378135Y-112662035D01*
X143429571Y-112691636D01*
X143464275Y-112718971D01*
X143546814Y-112807040D01*
X143593419Y-112909506D01*
X143597773Y-112939497D01*
X143612815Y-113043105D01*
X143611584Y-113158712D01*
G37*
G36*
X145852100Y-112215545D02*
G01*
X145946361Y-112236608D01*
X146008344Y-112289129D01*
X146030365Y-112366906D01*
X146028242Y-112404003D01*
X146003605Y-112468988D01*
X145940960Y-112518282D01*
X145898024Y-112537447D01*
X145805284Y-112542210D01*
X145713510Y-112495764D01*
X145703481Y-112487386D01*
X145655530Y-112418683D01*
X145650528Y-112346179D01*
X145683426Y-112280829D01*
X145749175Y-112233586D01*
X145842727Y-112215404D01*
X145852100Y-112215545D01*
G37*
G36*
X136546027Y-113122741D02*
G01*
X136515143Y-113257300D01*
X136445055Y-113361566D01*
X136332967Y-113440505D01*
X136248319Y-113474346D01*
X136088838Y-113498233D01*
X136004943Y-113491322D01*
X135871721Y-113452234D01*
X135759003Y-113384878D01*
X135681225Y-113296401D01*
X135677810Y-113290232D01*
X135642980Y-113184225D01*
X135637041Y-113113811D01*
X135974736Y-113113811D01*
X135982163Y-113205458D01*
X135998328Y-113265992D01*
X136035750Y-113312250D01*
X136092742Y-113327295D01*
X136153562Y-113292398D01*
X136165025Y-113277692D01*
X136191598Y-113206313D01*
X136205239Y-113108756D01*
X136205526Y-113002806D01*
X136192038Y-112906249D01*
X136164353Y-112836871D01*
X136157161Y-112827221D01*
X136101809Y-112785554D01*
X136047059Y-112791723D01*
X136003159Y-112845198D01*
X136002659Y-112846312D01*
X135985207Y-112914826D01*
X135975825Y-113010463D01*
X135974736Y-113113811D01*
X135637041Y-113113811D01*
X135632220Y-113056650D01*
X135645462Y-112929637D01*
X135682641Y-112825315D01*
X135703686Y-112793595D01*
X135796072Y-112709508D01*
X135917351Y-112653819D01*
X136055365Y-112629179D01*
X136197956Y-112638235D01*
X136332967Y-112683637D01*
X136379445Y-112710207D01*
X136473863Y-112796614D01*
X136528918Y-112910798D01*
X136540802Y-113002806D01*
X136548022Y-113058708D01*
X136546027Y-113122741D01*
G37*
G36*
X149981238Y-113110193D02*
G01*
X149954261Y-113250790D01*
X149886386Y-113360960D01*
X149776616Y-113442448D01*
X149734530Y-113462952D01*
X149678519Y-113482942D01*
X149615530Y-113493008D01*
X149530839Y-113495105D01*
X149409721Y-113491189D01*
X149341946Y-113487438D01*
X149242841Y-113478688D01*
X149170615Y-113468092D01*
X149137478Y-113457176D01*
X149135686Y-113454728D01*
X149129769Y-113412394D01*
X149140081Y-113348467D01*
X149150158Y-113316164D01*
X149173677Y-113279614D01*
X149207072Y-113280868D01*
X149281294Y-113305996D01*
X149390418Y-113326578D01*
X149480089Y-113325199D01*
X149520309Y-113309031D01*
X149579917Y-113264540D01*
X149628350Y-113209663D01*
X149648333Y-113161237D01*
X149637216Y-113154786D01*
X149584899Y-113146665D01*
X149499463Y-113141103D01*
X149391768Y-113139041D01*
X149135202Y-113139041D01*
X149135345Y-113055657D01*
X149141699Y-112985101D01*
X149413347Y-112985101D01*
X149530840Y-112985101D01*
X149601616Y-112981823D01*
X149638677Y-112968196D01*
X149648333Y-112939497D01*
X149646578Y-112920344D01*
X149619786Y-112855007D01*
X149572524Y-112801818D01*
X149520110Y-112779849D01*
X149501082Y-112780540D01*
X149469743Y-112792071D01*
X149449646Y-112828094D01*
X149431231Y-112901718D01*
X149413347Y-112985101D01*
X149141699Y-112985101D01*
X149145429Y-112943685D01*
X149192689Y-112809117D01*
X149274638Y-112709317D01*
X149386876Y-112647528D01*
X149525003Y-112626991D01*
X149684618Y-112650950D01*
X149806579Y-112705229D01*
X149903080Y-112798088D01*
X149961946Y-112924659D01*
X149963809Y-112939497D01*
X149981829Y-113082984D01*
X149981238Y-113110193D01*
G37*
G36*
X144539830Y-112339023D02*
G01*
X144614747Y-112420775D01*
X144671561Y-112481031D01*
X144753947Y-112555068D01*
X144826216Y-112606772D01*
X144842813Y-112616778D01*
X144906153Y-112670772D01*
X144930593Y-112722327D01*
X144914682Y-112763052D01*
X144856970Y-112784559D01*
X144786414Y-112792677D01*
X144773586Y-113074899D01*
X144769559Y-113148807D01*
X144755853Y-113289415D01*
X144734917Y-113387616D01*
X144705123Y-113449495D01*
X144664839Y-113481143D01*
X144638004Y-113487022D01*
X144566661Y-113493085D01*
X144474129Y-113495746D01*
X144378441Y-113494940D01*
X144297628Y-113490599D01*
X144249725Y-113482659D01*
X144221192Y-113451983D01*
X144209141Y-113377252D01*
X144209144Y-113373757D01*
X144212842Y-113316494D01*
X144231250Y-113297447D01*
X144275737Y-113304132D01*
X144280729Y-113305351D01*
X144337412Y-113311016D01*
X144375908Y-113291929D01*
X144399430Y-113241518D01*
X144411188Y-113153213D01*
X144414394Y-113020445D01*
X144414394Y-112779849D01*
X144337424Y-112779849D01*
X144296800Y-112777491D01*
X144266812Y-112757397D01*
X144260454Y-112702879D01*
X144265175Y-112651964D01*
X144289921Y-112630200D01*
X144350252Y-112625909D01*
X144440050Y-112625909D01*
X144440050Y-112459142D01*
X144440055Y-112454410D01*
X144444179Y-112357191D01*
X144459128Y-112306225D01*
X144489484Y-112300504D01*
X144539830Y-112339023D01*
G37*
G36*
X147961414Y-109303596D02*
G01*
X148014147Y-109307534D01*
X148116671Y-109316305D01*
X148195638Y-109324549D01*
X148237222Y-109330899D01*
X148242132Y-109333062D01*
X148253017Y-109347780D01*
X148261418Y-109380091D01*
X148267679Y-109435617D01*
X148272141Y-109519976D01*
X148275148Y-109638787D01*
X148277042Y-109797671D01*
X148278166Y-110002247D01*
X148280625Y-110663182D01*
X147995944Y-110666018D01*
X147711263Y-110668853D01*
X147718958Y-110255949D01*
X147720253Y-110169223D01*
X147720935Y-110032506D01*
X147719844Y-109916656D01*
X147717111Y-109831816D01*
X147712870Y-109788129D01*
X147712841Y-109788013D01*
X147680536Y-109739950D01*
X147622367Y-109701435D01*
X147573709Y-109685841D01*
X147517950Y-109680932D01*
X147441568Y-109687382D01*
X147329901Y-109705389D01*
X147311586Y-109705326D01*
X147286020Y-109685909D01*
X147260797Y-109634609D01*
X147230337Y-109542288D01*
X147202518Y-109440876D01*
X147192130Y-109363032D01*
X147207336Y-109317399D01*
X147251224Y-109295924D01*
X147326883Y-109290556D01*
X147384262Y-109293995D01*
X147533474Y-109336942D01*
X147666364Y-109426312D01*
X147724091Y-109479097D01*
X147724091Y-109286704D01*
X147961414Y-109303596D01*
G37*
G36*
X147672107Y-113094643D02*
G01*
X147652132Y-113249531D01*
X147599681Y-113366113D01*
X147513968Y-113446262D01*
X147408912Y-113487364D01*
X147291078Y-113493101D01*
X147185303Y-113459748D01*
X147178877Y-113456098D01*
X147119108Y-113427317D01*
X147090203Y-113429589D01*
X147082677Y-113463235D01*
X147082609Y-113466676D01*
X147072601Y-113489590D01*
X147037035Y-113496113D01*
X146963641Y-113488892D01*
X146929420Y-113484420D01*
X146852895Y-113475948D01*
X146803288Y-113472594D01*
X146790358Y-113468880D01*
X146779847Y-113452369D01*
X146772753Y-113416623D01*
X146768672Y-113355230D01*
X146767197Y-113261777D01*
X146767721Y-113166511D01*
X147136658Y-113166511D01*
X147138627Y-113234678D01*
X147147555Y-113274406D01*
X147165832Y-113296790D01*
X147195844Y-113312926D01*
X147258863Y-113323295D01*
X147316623Y-113293900D01*
X147359277Y-113230352D01*
X147383208Y-113141267D01*
X147384797Y-113035264D01*
X147360426Y-112920960D01*
X147355032Y-112905086D01*
X147329227Y-112847574D01*
X147295343Y-112823315D01*
X147236504Y-112818334D01*
X147146818Y-112818334D01*
X147139501Y-113051127D01*
X147139261Y-113058809D01*
X147136658Y-113166511D01*
X146767721Y-113166511D01*
X146767923Y-113129854D01*
X146770445Y-112953049D01*
X146770534Y-112947550D01*
X146771926Y-112776010D01*
X146770883Y-112610100D01*
X146767649Y-112461235D01*
X146762469Y-112340831D01*
X146755587Y-112260303D01*
X146732253Y-112087122D01*
X146827874Y-112087122D01*
X146919270Y-112092056D01*
X147005732Y-112103803D01*
X147089141Y-112120485D01*
X147071798Y-112356753D01*
X147054455Y-112593022D01*
X147221329Y-112606417D01*
X147361873Y-112630046D01*
X147497498Y-112689321D01*
X147594379Y-112782214D01*
X147652628Y-112908838D01*
X147668171Y-113035264D01*
X147672356Y-113069309D01*
X147672107Y-113094643D01*
G37*
G36*
X146227822Y-110227279D02*
G01*
X146214566Y-110276330D01*
X146149989Y-110433850D01*
X146060668Y-110549465D01*
X145943938Y-110626927D01*
X145799772Y-110668756D01*
X145637489Y-110665233D01*
X145470180Y-110611618D01*
X145408759Y-110583516D01*
X145349551Y-110557690D01*
X145322654Y-110547728D01*
X145315726Y-110565560D01*
X145312374Y-110615579D01*
X145312374Y-110683431D01*
X145139192Y-110667075D01*
X145050728Y-110659682D01*
X144947176Y-110653130D01*
X144869798Y-110650536D01*
X144773586Y-110650354D01*
X144773586Y-110126993D01*
X145340954Y-110126993D01*
X145341835Y-110215844D01*
X145346565Y-110273641D01*
X145356266Y-110309134D01*
X145372061Y-110331073D01*
X145395074Y-110348207D01*
X145430387Y-110370125D01*
X145510108Y-110404571D01*
X145572887Y-110400945D01*
X145630871Y-110359846D01*
X145653502Y-110334000D01*
X145710597Y-110223773D01*
X145739771Y-110082370D01*
X145738420Y-109920436D01*
X145714833Y-109787090D01*
X145667274Y-109666104D01*
X145600755Y-109586267D01*
X145517921Y-109550569D01*
X145421414Y-109561996D01*
X145350859Y-109586775D01*
X145343761Y-109948398D01*
X145342799Y-109998338D01*
X145340954Y-110126993D01*
X144773586Y-110126993D01*
X144773586Y-108463132D01*
X144844692Y-108477353D01*
X144858076Y-108479722D01*
X144928685Y-108489108D01*
X145028124Y-108499729D01*
X145139338Y-108509712D01*
X145362878Y-108527850D01*
X145349216Y-108838647D01*
X145343336Y-108959491D01*
X145336548Y-109075815D01*
X145330023Y-109167009D01*
X145324605Y-109220000D01*
X145313657Y-109290556D01*
X145488533Y-109290556D01*
X145620361Y-109297195D01*
X145814589Y-109338324D01*
X145973877Y-109416933D01*
X146098075Y-109532904D01*
X146187031Y-109686120D01*
X146240595Y-109876463D01*
X146249214Y-109930481D01*
X146257858Y-110028231D01*
X146253752Y-110082370D01*
X146251069Y-110117752D01*
X146227822Y-110227279D01*
G37*
G36*
X135385591Y-110305316D02*
G01*
X135300158Y-110455710D01*
X135177488Y-110573019D01*
X135019406Y-110654389D01*
X134926459Y-110681011D01*
X134816211Y-110694646D01*
X134677727Y-110693896D01*
X134671795Y-110693618D01*
X134466868Y-110663611D01*
X134296695Y-110596350D01*
X134162570Y-110493174D01*
X134065783Y-110355418D01*
X134007628Y-110184421D01*
X133989394Y-109981518D01*
X133993246Y-109937853D01*
X134516470Y-109937853D01*
X134522607Y-110078543D01*
X134543761Y-110209196D01*
X134579050Y-110316558D01*
X134627593Y-110387374D01*
X134632785Y-110391867D01*
X134683051Y-110429611D01*
X134716212Y-110445101D01*
X134718326Y-110444904D01*
X134754348Y-110426524D01*
X134805571Y-110387374D01*
X134821901Y-110370671D01*
X134868261Y-110285691D01*
X134898390Y-110169025D01*
X134912288Y-110033873D01*
X134909955Y-109893432D01*
X134891392Y-109760901D01*
X134856597Y-109649480D01*
X134805572Y-109572367D01*
X134779818Y-109551985D01*
X134705085Y-109528638D01*
X134633863Y-109552437D01*
X134576621Y-109621151D01*
X134552773Y-109679376D01*
X134526231Y-109800379D01*
X134516470Y-109937853D01*
X133993246Y-109937853D01*
X134003882Y-109817293D01*
X134057086Y-109642724D01*
X134148399Y-109502312D01*
X134276864Y-109397064D01*
X134441525Y-109327985D01*
X134641423Y-109296082D01*
X134754947Y-109294468D01*
X134954837Y-109321708D01*
X135123509Y-109387499D01*
X135258676Y-109489837D01*
X135358053Y-109626720D01*
X135419355Y-109796146D01*
X135440297Y-109996112D01*
X135437849Y-110033873D01*
X135431962Y-110124693D01*
X135385591Y-110305316D01*
G37*
G36*
X144545268Y-110126587D02*
G01*
X144499382Y-110306255D01*
X144413587Y-110455510D01*
X144289251Y-110572238D01*
X144127740Y-110654326D01*
X144114590Y-110658811D01*
X143964851Y-110689453D01*
X143796686Y-110694853D01*
X143631515Y-110675733D01*
X143490758Y-110632818D01*
X143429709Y-110601339D01*
X143291781Y-110492509D01*
X143188072Y-110350755D01*
X143123028Y-110183329D01*
X143101100Y-109997485D01*
X143102764Y-109942606D01*
X143632243Y-109942606D01*
X143635235Y-110081654D01*
X143653508Y-110210896D01*
X143686774Y-110317185D01*
X143734744Y-110387374D01*
X143741187Y-110392863D01*
X143789772Y-110428966D01*
X143819309Y-110442125D01*
X143842601Y-110437364D01*
X143913704Y-110405199D01*
X143963740Y-110344618D01*
X143997144Y-110248185D01*
X144018352Y-110108464D01*
X144024463Y-109978917D01*
X144014087Y-109838489D01*
X143987423Y-109718088D01*
X143947545Y-109622922D01*
X143897529Y-109558195D01*
X143840447Y-109529117D01*
X143779375Y-109540892D01*
X143717387Y-109598729D01*
X143673264Y-109687683D01*
X143644823Y-109806900D01*
X143632243Y-109942606D01*
X143102764Y-109942606D01*
X143103506Y-109918142D01*
X143125829Y-109758216D01*
X143174468Y-109628715D01*
X143253065Y-109518153D01*
X143317044Y-109454047D01*
X143437209Y-109369946D01*
X143576822Y-109319322D01*
X143749503Y-109296082D01*
X143862115Y-109294427D01*
X144062686Y-109321512D01*
X144232143Y-109387243D01*
X144368198Y-109489626D01*
X144468562Y-109626664D01*
X144530945Y-109796362D01*
X144551095Y-109978917D01*
X144553060Y-109996724D01*
X144545268Y-110126587D01*
G37*
G36*
X137038889Y-112653154D02*
G01*
X137171971Y-112699126D01*
X137267297Y-112778331D01*
X137326850Y-112892435D01*
X137352613Y-113043105D01*
X137351366Y-113159084D01*
X137322117Y-113279060D01*
X137257853Y-113370185D01*
X137154564Y-113440505D01*
X137139321Y-113447966D01*
X137058012Y-113478320D01*
X136965411Y-113493862D01*
X136841785Y-113498233D01*
X136820694Y-113498124D01*
X136728604Y-113494881D01*
X136661084Y-113488044D01*
X136631500Y-113478844D01*
X136627083Y-113445799D01*
X136633400Y-113386831D01*
X136645680Y-113342469D01*
X136672568Y-113323729D01*
X136730501Y-113329819D01*
X136807646Y-113333931D01*
X136908933Y-113303116D01*
X136986892Y-113234810D01*
X137033959Y-113136614D01*
X137042572Y-113016131D01*
X137038076Y-112982590D01*
X137003774Y-112882838D01*
X136940673Y-112824495D01*
X136846862Y-112805505D01*
X136836725Y-112805678D01*
X136767547Y-112815530D01*
X136722983Y-112835866D01*
X136706424Y-112849862D01*
X136685781Y-112855108D01*
X136684242Y-112852466D01*
X136665280Y-112817490D01*
X136634640Y-112759571D01*
X136628495Y-112747808D01*
X136605374Y-112697313D01*
X136607422Y-112672486D01*
X136634640Y-112656945D01*
X136637248Y-112655983D01*
X136687905Y-112647258D01*
X136771506Y-112641082D01*
X136871364Y-112638738D01*
X137038889Y-112653154D01*
G37*
G36*
X139491371Y-113458169D02*
G01*
X139459144Y-113467220D01*
X139314419Y-113491609D01*
X139162463Y-113496034D01*
X139021594Y-113480865D01*
X138910130Y-113446469D01*
X138814406Y-113384447D01*
X138753402Y-113302576D01*
X138724579Y-113192853D01*
X138724241Y-113123470D01*
X139022446Y-113123470D01*
X139036890Y-113231709D01*
X139068077Y-113297515D01*
X139132586Y-113344595D01*
X139213429Y-113350200D01*
X139230033Y-113343883D01*
X139244862Y-113323837D01*
X139252489Y-113281655D01*
X139254357Y-113207638D01*
X139251914Y-113092086D01*
X139244596Y-112843990D01*
X139162917Y-112836078D01*
X139149611Y-112835024D01*
X139088589Y-112843470D01*
X139051517Y-112883699D01*
X139037961Y-112919178D01*
X139023093Y-113012395D01*
X139022446Y-113123470D01*
X138724241Y-113123470D01*
X138723867Y-113046537D01*
X138741524Y-112914449D01*
X138787434Y-112780065D01*
X138860348Y-112689010D01*
X138961562Y-112640358D01*
X139092368Y-112633179D01*
X139254062Y-112666548D01*
X139314841Y-112684803D01*
X139277341Y-112110761D01*
X139453393Y-112128106D01*
X139457693Y-112128530D01*
X139544778Y-112137491D01*
X139607372Y-112144602D01*
X139632179Y-112148357D01*
X139632474Y-112164022D01*
X139631988Y-112224498D01*
X139630630Y-112323924D01*
X139628507Y-112455357D01*
X139625724Y-112611854D01*
X139622388Y-112786471D01*
X139614083Y-113207638D01*
X139609863Y-113421679D01*
X139491371Y-113458169D01*
G37*
G36*
X138309206Y-112631170D02*
G01*
X138371950Y-112636984D01*
X138470348Y-112672146D01*
X138545653Y-112736607D01*
X138584042Y-112818923D01*
X138581153Y-112909297D01*
X138532626Y-112997931D01*
X138503734Y-113026262D01*
X138430682Y-113082324D01*
X138346936Y-113134059D01*
X138284516Y-113172845D01*
X138224587Y-113229899D01*
X138207048Y-113281359D01*
X138235051Y-113321931D01*
X138252218Y-113329246D01*
X138319790Y-113331907D01*
X138403090Y-113313185D01*
X138481641Y-113276827D01*
X138512578Y-113258960D01*
X138541188Y-113258830D01*
X138561599Y-113298588D01*
X138572651Y-113328336D01*
X138598693Y-113405141D01*
X138605255Y-113448641D01*
X138592201Y-113469899D01*
X138559399Y-113479980D01*
X138504790Y-113487290D01*
X138401198Y-113493275D01*
X138282746Y-113494216D01*
X138165941Y-113490415D01*
X138067290Y-113482173D01*
X138003301Y-113469795D01*
X137989641Y-113464490D01*
X137910597Y-113405387D01*
X137865776Y-113317817D01*
X137863003Y-113215943D01*
X137880102Y-113166125D01*
X137926303Y-113106216D01*
X138006557Y-113046095D01*
X138128535Y-112978918D01*
X138152505Y-112966323D01*
X138221669Y-112916813D01*
X138243990Y-112869647D01*
X138243305Y-112861563D01*
X138215298Y-112825256D01*
X138157638Y-112809143D01*
X138085988Y-112814956D01*
X138016014Y-112844428D01*
X137989014Y-112861528D01*
X137960477Y-112869712D01*
X137942482Y-112845063D01*
X137923113Y-112779216D01*
X137915910Y-112750547D01*
X137904767Y-112690024D01*
X137905730Y-112660566D01*
X137908639Y-112658516D01*
X137950893Y-112648025D01*
X138026909Y-112639295D01*
X138121854Y-112633075D01*
X138220897Y-112630117D01*
X138309206Y-112631170D01*
G37*
G36*
X148294949Y-112640864D02*
G01*
X148371407Y-112649577D01*
X148432058Y-112657285D01*
X148455303Y-112661381D01*
X148455117Y-112671185D01*
X148454074Y-112723370D01*
X148452270Y-112812808D01*
X148449881Y-112930759D01*
X148447083Y-113068485D01*
X148438863Y-113472576D01*
X148088810Y-113472576D01*
X148102432Y-113205681D01*
X148116054Y-112938785D01*
X148038574Y-112898719D01*
X147967954Y-112873823D01*
X147881862Y-112881376D01*
X147878676Y-112882287D01*
X147825915Y-112892850D01*
X147801065Y-112875540D01*
X147786642Y-112818880D01*
X147775186Y-112732430D01*
X147785111Y-112674303D01*
X147824280Y-112646836D01*
X147898380Y-112640975D01*
X147991077Y-112655022D01*
X148070769Y-112703175D01*
X148134596Y-112763137D01*
X148134596Y-112623361D01*
X148294949Y-112640864D01*
G37*
G36*
X135232550Y-112609874D02*
G01*
X135237351Y-112610801D01*
X135321829Y-112621502D01*
X135412146Y-112625909D01*
X135511566Y-112625909D01*
X135511566Y-113472576D01*
X135165202Y-113472634D01*
X135165202Y-112870987D01*
X135097649Y-112847178D01*
X135095151Y-112846301D01*
X135037177Y-112830041D01*
X134996602Y-112832879D01*
X134970367Y-112861248D01*
X134955414Y-112921584D01*
X134948685Y-113020320D01*
X134947121Y-113163892D01*
X134947121Y-113472576D01*
X134761111Y-113472628D01*
X134575101Y-113472681D01*
X134583149Y-113188589D01*
X134584874Y-113106914D01*
X134582898Y-112985458D01*
X134571979Y-112904557D01*
X134549745Y-112857319D01*
X134513824Y-112836857D01*
X134461843Y-112836279D01*
X134395505Y-112843990D01*
X134381097Y-113472576D01*
X134010657Y-113472616D01*
X134017467Y-113222445D01*
X134017774Y-113211356D01*
X134025078Y-113027481D01*
X134037064Y-112888100D01*
X134056385Y-112786769D01*
X134085693Y-112717042D01*
X134127641Y-112672478D01*
X134184881Y-112646630D01*
X134260064Y-112633056D01*
X134294258Y-112630127D01*
X134393197Y-112637722D01*
X134496040Y-112676210D01*
X134612914Y-112732788D01*
X134680852Y-112679349D01*
X134696606Y-112668188D01*
X134795511Y-112632016D01*
X134915192Y-112630547D01*
X135040876Y-112664394D01*
X135102635Y-112689741D01*
X135138735Y-112698987D01*
X135151081Y-112685802D01*
X135152374Y-112648359D01*
X135155308Y-112619737D01*
X135176953Y-112603393D01*
X135232550Y-112609874D01*
G37*
G36*
X145161127Y-112294027D02*
G01*
X145197110Y-112320928D01*
X145255115Y-112373939D01*
X145325256Y-112444188D01*
X145340256Y-112459569D01*
X145419260Y-112534067D01*
X145492453Y-112593758D01*
X145545666Y-112626896D01*
X145547721Y-112627762D01*
X145604647Y-112668797D01*
X145624191Y-112717964D01*
X145605994Y-112761230D01*
X145549697Y-112784559D01*
X145479141Y-112792677D01*
X145472755Y-113036415D01*
X145470799Y-113103652D01*
X145465045Y-113225026D01*
X145455713Y-113309762D01*
X145440598Y-113368066D01*
X145417494Y-113410146D01*
X145384195Y-113446209D01*
X145365837Y-113461425D01*
X145319336Y-113483990D01*
X145251387Y-113495053D01*
X145147182Y-113497840D01*
X145143800Y-113497829D01*
X145050099Y-113494942D01*
X144976249Y-113488050D01*
X144937974Y-113478597D01*
X144936039Y-113477126D01*
X144912238Y-113437572D01*
X144893148Y-113373522D01*
X144876358Y-113287297D01*
X144962530Y-113303463D01*
X144973585Y-113305414D01*
X145032974Y-113307960D01*
X145072042Y-113287680D01*
X145094231Y-113237555D01*
X145102984Y-113150571D01*
X145101743Y-113019709D01*
X145101366Y-113008263D01*
X145097195Y-112904012D01*
X145090919Y-112839845D01*
X145079236Y-112805458D01*
X145058843Y-112790550D01*
X145026437Y-112784819D01*
X145012219Y-112782710D01*
X144967028Y-112759165D01*
X144947497Y-112701436D01*
X144945314Y-112685777D01*
X144945924Y-112644841D01*
X144971258Y-112628723D01*
X145034595Y-112625909D01*
X145132778Y-112625909D01*
X145132778Y-112459142D01*
X145135824Y-112377000D01*
X145144226Y-112315774D01*
X145156106Y-112292374D01*
X145161127Y-112294027D01*
G37*
G36*
X146384972Y-112094113D02*
G01*
X146462678Y-112101389D01*
X146527003Y-112109667D01*
X146554666Y-112116353D01*
X146556249Y-112140705D01*
X146556889Y-112209975D01*
X146556513Y-112317273D01*
X146555167Y-112455776D01*
X146552903Y-112618657D01*
X146549769Y-112799091D01*
X146536968Y-113472576D01*
X146223182Y-113472576D01*
X146223182Y-112081126D01*
X146384972Y-112094113D01*
G37*
G36*
X141563333Y-113087122D02*
G01*
X141544298Y-113210946D01*
X141493396Y-113323043D01*
X141411111Y-113413546D01*
X141297924Y-113472589D01*
X141282282Y-113476135D01*
X141216700Y-113482999D01*
X141123767Y-113487077D01*
X141016586Y-113488455D01*
X140908258Y-113487220D01*
X140811886Y-113483459D01*
X140740573Y-113477257D01*
X140707420Y-113468700D01*
X140705639Y-113465227D01*
X140704078Y-113425713D01*
X140711390Y-113360817D01*
X140720326Y-113316763D01*
X140738861Y-113281204D01*
X140768327Y-113281737D01*
X140806230Y-113295993D01*
X140932888Y-113322898D01*
X141047603Y-113317474D01*
X141139926Y-113281314D01*
X141199408Y-113216010D01*
X141231403Y-113151869D01*
X140975625Y-113144557D01*
X140719848Y-113137246D01*
X140719848Y-113015874D01*
X140722571Y-112963658D01*
X140731129Y-112932102D01*
X141002071Y-112932102D01*
X141002176Y-112938127D01*
X141011660Y-112968245D01*
X141045874Y-112981893D01*
X141118014Y-112985101D01*
X141166358Y-112984656D01*
X141211587Y-112978354D01*
X141224554Y-112957795D01*
X141217103Y-112914546D01*
X141201606Y-112863276D01*
X141160800Y-112799965D01*
X141102458Y-112779849D01*
X141055843Y-112798890D01*
X141017226Y-112854758D01*
X141002071Y-112932102D01*
X140731129Y-112932102D01*
X140758311Y-112831869D01*
X140830004Y-112729110D01*
X140930664Y-112659144D01*
X141053305Y-112625734D01*
X141190940Y-112632644D01*
X141336584Y-112683637D01*
X141424397Y-112743948D01*
X141503865Y-112843757D01*
X141548588Y-112957795D01*
X141550016Y-112961437D01*
X141563333Y-113087122D01*
G37*
G36*
X149817576Y-110194957D02*
G01*
X149764249Y-110362572D01*
X149672523Y-110496563D01*
X149541719Y-110597887D01*
X149371160Y-110667500D01*
X149324075Y-110677791D01*
X149199797Y-110690102D01*
X149050915Y-110691549D01*
X148894377Y-110682814D01*
X148747133Y-110664579D01*
X148626129Y-110637526D01*
X148578640Y-110622365D01*
X148522758Y-110598586D01*
X148500854Y-110573756D01*
X148502508Y-110539620D01*
X148503420Y-110535767D01*
X148517638Y-110469263D01*
X148532908Y-110389873D01*
X148549874Y-110296159D01*
X148668429Y-110348601D01*
X148739888Y-110374863D01*
X148883577Y-110400681D01*
X149021203Y-110393682D01*
X149136225Y-110353685D01*
X149171472Y-110328406D01*
X149229284Y-110267669D01*
X149276447Y-110197305D01*
X149303831Y-110132004D01*
X149302307Y-110086456D01*
X149299622Y-110084054D01*
X149257574Y-110074164D01*
X149170971Y-110066668D01*
X149045345Y-110061915D01*
X148886229Y-110060253D01*
X148486346Y-110060253D01*
X148501114Y-109884096D01*
X148501558Y-109880657D01*
X148948631Y-109880657D01*
X149289141Y-109880657D01*
X149289141Y-109794653D01*
X149289005Y-109787731D01*
X149270652Y-109703999D01*
X149228766Y-109621546D01*
X149173923Y-109556829D01*
X149116699Y-109526307D01*
X149089859Y-109527086D01*
X149035117Y-109563069D01*
X148992438Y-109642550D01*
X148965107Y-109760455D01*
X148948631Y-109880657D01*
X148501558Y-109880657D01*
X148516325Y-109766243D01*
X148566328Y-109592555D01*
X148647089Y-109459388D01*
X148759781Y-109365553D01*
X148905576Y-109309860D01*
X149085646Y-109291119D01*
X149153797Y-109292712D01*
X149356404Y-109323279D01*
X149525131Y-109391653D01*
X149658582Y-109496479D01*
X149755358Y-109636400D01*
X149814061Y-109810062D01*
X149820650Y-109880657D01*
X149833293Y-110016108D01*
X149817576Y-110194957D01*
G37*
G36*
X142404817Y-112100858D02*
G01*
X142408727Y-112101266D01*
X142495282Y-112110733D01*
X142557082Y-112118297D01*
X142580975Y-112122352D01*
X142580907Y-112145401D01*
X142580162Y-112213330D01*
X142578812Y-112319409D01*
X142576949Y-112456894D01*
X142574660Y-112619036D01*
X142572034Y-112799091D01*
X142562068Y-113472576D01*
X142236571Y-113472576D01*
X142252074Y-113286566D01*
X142255040Y-113250167D01*
X142259985Y-113170490D01*
X142257638Y-113130538D01*
X142246468Y-113121797D01*
X142224942Y-113135753D01*
X142194641Y-113170736D01*
X142148515Y-113238579D01*
X142099399Y-113321763D01*
X142016489Y-113472576D01*
X141791502Y-113472576D01*
X141703575Y-113471556D01*
X141622371Y-113466277D01*
X141579214Y-113455448D01*
X141566515Y-113437898D01*
X141575411Y-113415205D01*
X141610323Y-113357568D01*
X141665537Y-113277373D01*
X141734452Y-113184576D01*
X141902390Y-112965931D01*
X141747914Y-112802335D01*
X141717624Y-112769896D01*
X141653930Y-112698955D01*
X141609601Y-112645612D01*
X141592805Y-112619495D01*
X141593222Y-112618140D01*
X141622379Y-112609077D01*
X141688450Y-112602678D01*
X141778762Y-112600253D01*
X141841801Y-112600487D01*
X141914420Y-112604025D01*
X141957701Y-112615773D01*
X141985403Y-112640666D01*
X142011283Y-112683637D01*
X142037043Y-112724774D01*
X142094893Y-112803546D01*
X142160651Y-112882475D01*
X142264087Y-112997930D01*
X142229685Y-112082620D01*
X142404817Y-112100858D01*
G37*
G36*
X139215882Y-108808302D02*
G01*
X139260121Y-108837583D01*
X139304413Y-108903499D01*
X139329927Y-108943416D01*
X139413819Y-109044363D01*
X139522152Y-109149242D01*
X139640230Y-109244530D01*
X139753357Y-109316699D01*
X139799802Y-109342290D01*
X139848410Y-109378037D01*
X139868949Y-109417552D01*
X139873182Y-109476522D01*
X139873182Y-109572778D01*
X139642273Y-109572778D01*
X139642233Y-109989697D01*
X139641183Y-110133808D01*
X139635473Y-110287515D01*
X139622927Y-110403054D01*
X139601459Y-110487896D01*
X139568985Y-110549510D01*
X139523419Y-110595364D01*
X139462677Y-110632929D01*
X139442202Y-110642905D01*
X139390140Y-110660752D01*
X139325555Y-110669985D01*
X139235595Y-110671862D01*
X139107404Y-110667636D01*
X139027114Y-110662857D01*
X138925521Y-110653102D01*
X138850960Y-110641372D01*
X138815565Y-110629263D01*
X138810792Y-110622555D01*
X138800865Y-110569813D01*
X138806482Y-110487665D01*
X138814602Y-110437045D01*
X138828295Y-110394074D01*
X138853406Y-110383633D01*
X138901215Y-110394644D01*
X138907027Y-110396232D01*
X138994800Y-110402484D01*
X139069026Y-110378512D01*
X139112814Y-110329514D01*
X139114537Y-110323035D01*
X139120269Y-110270436D01*
X139124906Y-110180225D01*
X139128009Y-110063128D01*
X139129141Y-109929872D01*
X139129141Y-109572778D01*
X139015416Y-109572778D01*
X138977294Y-109572480D01*
X138928131Y-109565980D01*
X138898772Y-109542381D01*
X138879256Y-109490610D01*
X138859624Y-109399596D01*
X138842842Y-109316213D01*
X139134676Y-109316213D01*
X139097950Y-108803081D01*
X139172963Y-108803081D01*
X139215882Y-108808302D01*
G37*
G36*
X151482733Y-110547232D02*
G01*
X151482320Y-110783296D01*
X151481338Y-110974661D01*
X151479626Y-111125722D01*
X151477020Y-111240872D01*
X151473358Y-111324506D01*
X151468477Y-111381016D01*
X151462213Y-111414797D01*
X151454404Y-111430242D01*
X151444888Y-111431745D01*
X151425675Y-111427326D01*
X151360408Y-111418721D01*
X151264948Y-111409724D01*
X151152447Y-111401687D01*
X150897897Y-111386179D01*
X150913807Y-111037509D01*
X150929716Y-110688839D01*
X150777843Y-110697464D01*
X150651073Y-110695893D01*
X150461575Y-110657828D01*
X150293996Y-110578994D01*
X150154770Y-110462794D01*
X150050331Y-110312630D01*
X150036116Y-110284126D01*
X149999556Y-110194049D01*
X149982506Y-110105767D01*
X149979118Y-109993025D01*
X149979806Y-109972568D01*
X150537915Y-109972568D01*
X150543216Y-110109118D01*
X150567821Y-110235199D01*
X150612064Y-110335703D01*
X150652155Y-110379836D01*
X150716093Y-110420590D01*
X150725970Y-110424292D01*
X150775581Y-110438570D01*
X150824925Y-110439178D01*
X150899091Y-110426995D01*
X150907620Y-110425242D01*
X150927988Y-110417326D01*
X150941781Y-110399010D01*
X150950280Y-110362111D01*
X150954766Y-110298446D01*
X150956519Y-110199834D01*
X150956818Y-110058091D01*
X150956818Y-109700307D01*
X150873434Y-109649467D01*
X150865397Y-109644647D01*
X150771932Y-109604865D01*
X150695434Y-109609391D01*
X150627065Y-109658550D01*
X150583885Y-109728498D01*
X150551583Y-109840658D01*
X150537915Y-109972568D01*
X149979806Y-109972568D01*
X149982154Y-109902708D01*
X149999788Y-109765537D01*
X150037000Y-109650806D01*
X150098467Y-109540791D01*
X150194051Y-109439850D01*
X150320119Y-109373481D01*
X150467244Y-109344321D01*
X150626589Y-109354113D01*
X150789319Y-109404599D01*
X150931162Y-109467328D01*
X150931162Y-109404599D01*
X150931208Y-109397499D01*
X150936000Y-109366412D01*
X150956985Y-109349778D01*
X151005866Y-109343096D01*
X151094348Y-109341869D01*
X151169124Y-109343169D01*
X151280521Y-109348785D01*
X151370156Y-109357333D01*
X151482778Y-109372798D01*
X151482778Y-110409546D01*
X151482733Y-110547232D01*
G37*
G36*
X146831109Y-108612410D02*
G01*
X146891708Y-108622530D01*
X146935899Y-108647664D01*
X146982155Y-108694446D01*
X147009091Y-108729027D01*
X147053660Y-108832573D01*
X147056984Y-108938998D01*
X147022250Y-109036913D01*
X146952646Y-109114929D01*
X146851362Y-109161658D01*
X146786539Y-109175918D01*
X146722711Y-109183132D01*
X146670832Y-109174300D01*
X146609048Y-109148208D01*
X146527935Y-109088278D01*
X146481624Y-108998476D01*
X146467047Y-108872430D01*
X146478178Y-108783839D01*
X146528756Y-108687627D01*
X146562520Y-108649487D01*
X146602177Y-108623885D01*
X146658513Y-108612956D01*
X146748814Y-108610657D01*
X146831109Y-108612410D01*
G37*
G36*
X137620437Y-113294129D02*
G01*
X137677339Y-113323674D01*
X137704584Y-113380347D01*
X137692374Y-113446920D01*
X137662555Y-113479455D01*
X137589334Y-113498233D01*
X137573168Y-113497821D01*
X137522078Y-113481945D01*
X137497573Y-113433758D01*
X137496724Y-113368049D01*
X137534113Y-113313568D01*
X137604815Y-113292980D01*
X137620437Y-113294129D01*
G37*
G36*
X150219410Y-97191743D02*
G01*
X150115159Y-97290468D01*
X149981028Y-97416195D01*
X149819591Y-97566573D01*
X149633422Y-97739252D01*
X149425092Y-97931880D01*
X149197177Y-98142107D01*
X148952248Y-98367583D01*
X148692878Y-98605957D01*
X148421642Y-98854879D01*
X148141112Y-99111997D01*
X147853861Y-99374962D01*
X147562463Y-99641423D01*
X147269490Y-99909029D01*
X146977516Y-100175429D01*
X146689113Y-100438274D01*
X146406856Y-100695212D01*
X146133317Y-100943893D01*
X145871070Y-101181966D01*
X145622687Y-101407081D01*
X145390741Y-101616887D01*
X145177807Y-101809034D01*
X144986456Y-101981171D01*
X144819263Y-102130947D01*
X144678799Y-102256012D01*
X144567640Y-102354016D01*
X144488357Y-102422607D01*
X144443523Y-102459435D01*
X144278828Y-102569435D01*
X144017470Y-102702195D01*
X143725751Y-102809092D01*
X143413788Y-102885937D01*
X143402618Y-102887422D01*
X143339580Y-102890757D01*
X143240264Y-102892456D01*
X143115877Y-102892403D01*
X142977626Y-102890480D01*
X142967069Y-102890260D01*
X142807011Y-102885380D01*
X142682852Y-102877278D01*
X142580028Y-102864122D01*
X142483974Y-102844082D01*
X142380128Y-102815325D01*
X142139365Y-102730090D01*
X141891129Y-102611574D01*
X141678784Y-102475221D01*
X141673888Y-102471399D01*
X141628388Y-102432966D01*
X141548259Y-102362914D01*
X141436098Y-102263602D01*
X141294504Y-102137386D01*
X141126073Y-101986621D01*
X140933405Y-101813666D01*
X140719095Y-101620875D01*
X140485743Y-101410605D01*
X140235946Y-101185214D01*
X139972302Y-100947057D01*
X139697408Y-100698491D01*
X139413862Y-100441872D01*
X139124263Y-100179557D01*
X138831206Y-99913903D01*
X138537291Y-99647265D01*
X138245116Y-99382000D01*
X137957277Y-99120465D01*
X137676372Y-98865016D01*
X137405000Y-98618009D01*
X137145758Y-98381802D01*
X136901244Y-98158750D01*
X136674056Y-97951210D01*
X136466790Y-97761539D01*
X136282046Y-97592092D01*
X136122420Y-97445227D01*
X135990511Y-97323299D01*
X135888916Y-97228666D01*
X135820233Y-97163684D01*
X135787059Y-97130709D01*
X135786027Y-97129540D01*
X147547450Y-97129540D01*
X147568888Y-97266627D01*
X147594601Y-97319892D01*
X147665052Y-97410613D01*
X147760521Y-97500229D01*
X147867257Y-97576437D01*
X147971514Y-97626934D01*
X147975285Y-97628205D01*
X148104674Y-97660172D01*
X148249333Y-97678431D01*
X148388224Y-97681372D01*
X148500307Y-97667386D01*
X148577574Y-97643535D01*
X148711079Y-97584138D01*
X148830601Y-97510178D01*
X148917667Y-97432070D01*
X148942769Y-97400700D01*
X149024264Y-97258127D01*
X149054905Y-97114529D01*
X149034939Y-96972357D01*
X148964611Y-96834057D01*
X148844169Y-96702078D01*
X148749210Y-96632648D01*
X148588067Y-96559594D01*
X148411336Y-96521508D01*
X148228642Y-96517439D01*
X148049609Y-96546432D01*
X147883862Y-96607534D01*
X147741026Y-96699792D01*
X147630725Y-96822254D01*
X147614565Y-96848879D01*
X147563687Y-96983022D01*
X147547450Y-97129540D01*
X135786027Y-97129540D01*
X135769984Y-97111370D01*
X135652670Y-96954408D01*
X135569559Y-96796576D01*
X135522933Y-96644964D01*
X135515075Y-96506661D01*
X135548265Y-96388756D01*
X135575963Y-96346222D01*
X135670879Y-96260598D01*
X135808884Y-96187190D01*
X135984737Y-96129115D01*
X135985300Y-96128971D01*
X136006531Y-96123693D01*
X136028673Y-96118788D01*
X136053592Y-96114243D01*
X136083155Y-96110045D01*
X136119228Y-96106179D01*
X136163680Y-96102631D01*
X136218375Y-96099390D01*
X136285182Y-96096440D01*
X136365966Y-96093769D01*
X136462595Y-96091362D01*
X136576936Y-96089207D01*
X136710854Y-96087290D01*
X136866218Y-96085596D01*
X137044893Y-96084113D01*
X137248746Y-96082828D01*
X137479645Y-96081725D01*
X137739456Y-96080793D01*
X138030045Y-96080017D01*
X138353280Y-96079383D01*
X138711027Y-96078879D01*
X139105154Y-96078490D01*
X139537526Y-96078204D01*
X140010010Y-96078006D01*
X140524474Y-96077883D01*
X141082784Y-96077822D01*
X141686807Y-96077808D01*
X142338409Y-96077829D01*
X143039458Y-96077870D01*
X143266595Y-96077883D01*
X143964098Y-96077901D01*
X144612690Y-96077912D01*
X145214205Y-96077952D01*
X145770477Y-96078056D01*
X146283338Y-96078260D01*
X146754622Y-96078599D01*
X147186161Y-96079110D01*
X147579790Y-96079827D01*
X147937341Y-96080786D01*
X148260646Y-96082023D01*
X148551541Y-96083573D01*
X148811856Y-96085472D01*
X149043427Y-96087756D01*
X149248085Y-96090459D01*
X149427664Y-96093618D01*
X149583998Y-96097267D01*
X149718918Y-96101443D01*
X149834259Y-96106182D01*
X149931854Y-96111518D01*
X150013535Y-96117487D01*
X150081136Y-96124125D01*
X150136491Y-96131467D01*
X150181431Y-96139550D01*
X150217791Y-96148407D01*
X150247403Y-96158076D01*
X150272101Y-96168591D01*
X150293717Y-96179989D01*
X150314085Y-96192304D01*
X150335039Y-96205572D01*
X150358410Y-96219829D01*
X150383496Y-96235291D01*
X150494154Y-96331794D01*
X150557006Y-96446539D01*
X150572060Y-96579210D01*
X150539327Y-96729494D01*
X150458819Y-96897078D01*
X150330543Y-97081647D01*
X150327984Y-97084699D01*
X150298864Y-97114529D01*
X150291210Y-97122370D01*
X150219410Y-97191743D01*
G37*
G36*
X143854404Y-112087241D02*
G01*
X143944352Y-112092096D01*
X144019924Y-112101856D01*
X144093687Y-112116590D01*
X144079223Y-113472576D01*
X143734495Y-113472576D01*
X143734495Y-112087122D01*
X143840328Y-112087122D01*
X143854404Y-112087241D01*
G37*
%TD*%
%LPC*%
D10*
%TO.C,H11*%
X95250000Y-44450000D03*
%TD*%
%TO.C,H12*%
X228600000Y-91440000D03*
%TD*%
%TO.C,H3*%
X190500000Y-44450000D03*
%TD*%
%TO.C,H1*%
X114300000Y-129540000D03*
%TD*%
%TO.C,H2*%
X64312800Y-91440000D03*
%TD*%
%TO.C,H9*%
X227965000Y-44450000D03*
%TD*%
%TO.C,H6*%
X142900400Y-92710000D03*
%TD*%
%TO.C,H8*%
X171450000Y-129540000D03*
%TD*%
M02*
